<mxfile host="app.diagrams.net" agent="Mozilla/5.0 (Windows NT 10.0; Win64; x64) AppleWebKit/537.36 (KHTML, like Gecko) Chrome/130.0.0.0 Safari/537.36 Edg/130.0.0.0" version="24.8.4" pages="4">
  <diagram name="Page-1" id="IETmWj7SY2J-WJ-Ga02n">
    <mxGraphModel dx="496" dy="1713" grid="1" gridSize="10" guides="1" tooltips="1" connect="1" arrows="1" fold="1" page="1" pageScale="1" pageWidth="850" pageHeight="1100" math="0" shadow="0">
      <root>
        <mxCell id="0" />
        <mxCell id="1" parent="0" />
        <UserObject label="" plantUmlData="{&quot;data&quot;:&quot;@startuml\nskinparam shadowing false\nskinparam backgroundColor white\nskinparam ArrowColor DeepSkyBlue\nskinparam activity {\n  BackgroundColor LightSkyBlue\n  BorderColor DeepSkyBlue\n  FontColor black\n}\n\nstart\n\n:Create start Node(source, None, None);\n:Initialize empty QueueFrontier;\n:Add start node to frontier;\n:Initialize empty explored set;\n\nwhile (frontier.empty()?) is (no)\n  :node = frontier.remove();\n\n  if (node.state == target?) then (yes)\n    :Initialize empty path list;\n    while (node.parent != None?) is (yes)\n      :Add (node.action, node.state) to path;\n      :node = node.parent;\n    endwhile (no)\n    :Reverse path;\n    :Return path;\n    end\n  else (no)\n    :Add node.state to explored;\n    \n    while (For each (movie_id, person_id) in\\nneighbors_for_person(node.state)) is (next neighbor)\n      if (person_id not in frontier AND\\nperson_id not in explored?) then (yes)\n        :Create child Node(person_id, node, movie_id);\n        :Add child to frontier;\n      endif\n    endwhile (done)\n  endif\nendwhile (yes)\n\n:Print \&quot;No path found\&quot;;\n:Return None;\n\nstop\n\n@enduml\n&quot;,&quot;format&quot;:&quot;svg&quot;}" id="2Kmqf4s3cTkRptCqknTf-2">
          <mxCell style="shape=image;noLabel=1;verticalAlign=top;aspect=fixed;imageAspect=0;image=data:image/svg+xml,PD94bWwgdmVyc2lvbj0iMS4wIiBlbmNvZGluZz0idXMtYXNjaWkiIHN0YW5kYWxvbmU9Im5vIj8+PHN2ZyB4bWxucz0iaHR0cDovL3d3dy53My5vcmcvMjAwMC9zdmciIHhtbG5zOnhsaW5rPSJodHRwOi8vd3d3LnczLm9yZy8xOTk5L3hsaW5rIiBjb250ZW50U3R5bGVUeXBlPSJ0ZXh0L2NzcyIgaGVpZ2h0PSI5OTFweCIgcHJlc2VydmVBc3BlY3RSYXRpbz0ibm9uZSIgc3R5bGU9IndpZHRoOjc1NXB4O2hlaWdodDo5OTFweDtiYWNrZ3JvdW5kOiNGRkZGRkY7IiB2ZXJzaW9uPSIxLjEiIHZpZXdCb3g9IjAgMCA3NTUgOTkxIiB3aWR0aD0iNzU1cHgiIHpvb21BbmRQYW49Im1hZ25pZnkiPjxkZWZzLz48Zz48ZWxsaXBzZSBjeD0iMzYxLjc1IiBjeT0iMjAiIGZpbGw9IiMyMjIyMjIiIHJ4PSIxMCIgcnk9IjEwIiBzdHlsZT0ic3Ryb2tlOiMyMjIyMjI7c3Ryb2tlLXdpZHRoOjEuMDsiLz48cmVjdCBmaWxsPSIjODdDRUZBIiBoZWlnaHQ9IjMyLjg0MzgiIHJ4PSIxMi41IiByeT0iMTIuNSIgc3R5bGU9InN0cm9rZTojMDBCRkZGO3N0cm9rZS13aWR0aDowLjU7IiB3aWR0aD0iMjY3IiB4PSIyMjguMjUiIHk9IjUwIi8+PHRleHQgZmlsbD0iIzAwMDAwMCIgZm9udC1mYW1pbHk9InNhbnMtc2VyaWYiIGZvbnQtc2l6ZT0iMTIiIGxlbmd0aEFkanVzdD0ic3BhY2luZyIgdGV4dExlbmd0aD0iMjQ3IiB4PSIyMzguMjUiIHk9IjcxLjM0MzgiPkNyZWF0ZSBzdGFydCBOb2RlKHNvdXJjZSwgTm9uZSwgTm9uZSk8L3RleHQ+PHJlY3QgZmlsbD0iIzg3Q0VGQSIgaGVpZ2h0PSIzMi44NDM4IiByeD0iMTIuNSIgcnk9IjEyLjUiIHN0eWxlPSJzdHJva2U6IzAwQkZGRjtzdHJva2Utd2lkdGg6MC41OyIgd2lkdGg9IjIxNiIgeD0iMjUzLjc1IiB5PSIxMDIuODQzOCIvPjx0ZXh0IGZpbGw9IiMwMDAwMDAiIGZvbnQtZmFtaWx5PSJzYW5zLXNlcmlmIiBmb250LXNpemU9IjEyIiBsZW5ndGhBZGp1c3Q9InNwYWNpbmciIHRleHRMZW5ndGg9IjE5NiIgeD0iMjYzLjc1IiB5PSIxMjQuMTg3NSI+SW5pdGlhbGl6ZSBlbXB0eSBRdWV1ZUZyb250aWVyPC90ZXh0PjxyZWN0IGZpbGw9IiM4N0NFRkEiIGhlaWdodD0iMzIuODQzOCIgcng9IjEyLjUiIHJ5PSIxMi41IiBzdHlsZT0ic3Ryb2tlOiMwMEJGRkY7c3Ryb2tlLXdpZHRoOjAuNTsiIHdpZHRoPSIxOTIiIHg9IjI2NS43NSIgeT0iMTU1LjY4NzUiLz48dGV4dCBmaWxsPSIjMDAwMDAwIiBmb250LWZhbWlseT0ic2Fucy1zZXJpZiIgZm9udC1zaXplPSIxMiIgbGVuZ3RoQWRqdXN0PSJzcGFjaW5nIiB0ZXh0TGVuZ3RoPSIxNzIiIHg9IjI3NS43NSIgeT0iMTc3LjAzMTMiPkFkZCBzdGFydCBub2RlIHRvIGZyb250aWVyPC90ZXh0PjxyZWN0IGZpbGw9IiM4N0NFRkEiIGhlaWdodD0iMzIuODQzOCIgcng9IjEyLjUiIHJ5PSIxMi41IiBzdHlsZT0ic3Ryb2tlOiMwMEJGRkY7c3Ryb2tlLXdpZHRoOjAuNTsiIHdpZHRoPSIyMDkiIHg9IjI1Ny4yNSIgeT0iMjA4LjUzMTMiLz48dGV4dCBmaWxsPSIjMDAwMDAwIiBmb250LWZhbWlseT0ic2Fucy1zZXJpZiIgZm9udC1zaXplPSIxMiIgbGVuZ3RoQWRqdXN0PSJzcGFjaW5nIiB0ZXh0TGVuZ3RoPSIxODkiIHg9IjI2Ny4yNSIgeT0iMjI5Ljg3NSI+SW5pdGlhbGl6ZSBlbXB0eSBleHBsb3JlZCBzZXQ8L3RleHQ+PHJlY3QgZmlsbD0iIzg3Q0VGQSIgaGVpZ2h0PSIzMi44NDM4IiByeD0iMTIuNSIgcnk9IjEyLjUiIHN0eWxlPSJzdHJva2U6IzAwQkZGRjtzdHJva2Utd2lkdGg6MC41OyIgd2lkdGg9IjE3OCIgeD0iMjcyLjc1IiB5PSIzMTcuMjczNCIvPjx0ZXh0IGZpbGw9IiMwMDAwMDAiIGZvbnQtZmFtaWx5PSJzYW5zLXNlcmlmIiBmb250LXNpemU9IjEyIiBsZW5ndGhBZGp1c3Q9InNwYWNpbmciIHRleHRMZW5ndGg9IjE1OCIgeD0iMjgyLjc1IiB5PSIzMzguNjE3MiI+bm9kZSA9IGZyb250aWVyLnJlbW92ZSgpPC90ZXh0Pjxwb2x5Z29uIGZpbGw9IiM4N0NFRkEiIHBvaW50cz0iMjk5LjI1LDM3MC4xMTcyLDQyNC4yNSwzNzAuMTE3Miw0MzYuMjUsMzgyLjExNzIsNDI0LjI1LDM5NC4xMTcyLDI5OS4yNSwzOTQuMTE3MiwyODcuMjUsMzgyLjExNzIsMjk5LjI1LDM3MC4xMTcyIiBzdHlsZT0ic3Ryb2tlOiMwMEJGRkY7c3Ryb2tlLXdpZHRoOjAuNTsiLz48dGV4dCBmaWxsPSIjMDAwMDAwIiBmb250LWZhbWlseT0ic2Fucy1zZXJpZiIgZm9udC1zaXplPSIxMSIgbGVuZ3RoQWRqdXN0PSJzcGFjaW5nIiB0ZXh0TGVuZ3RoPSIxMjUiIHg9IjI5OS4yNSIgeT0iMzg2LjYyODkiPm5vZGUuc3RhdGUgPT0gdGFyZ2V0PzwvdGV4dD48dGV4dCBmaWxsPSIjMDAwMDAwIiBmb250LWZhbWlseT0ic2Fucy1zZXJpZiIgZm9udC1zaXplPSIxMSIgbGVuZ3RoQWRqdXN0PSJzcGFjaW5nIiB0ZXh0TGVuZ3RoPSIxOCIgeD0iMjY5LjI1IiB5PSIzODAuNzQyMiI+eWVzPC90ZXh0Pjx0ZXh0IGZpbGw9IiMwMDAwMDAiIGZvbnQtZmFtaWx5PSJzYW5zLXNlcmlmIiBmb250LXNpemU9IjExIiBsZW5ndGhBZGp1c3Q9InNwYWNpbmciIHRleHRMZW5ndGg9IjEyIiB4PSI0MzYuMjUiIHk9IjM4MC43NDIyIj5ubzwvdGV4dD48cmVjdCBmaWxsPSIjODdDRUZBIiBoZWlnaHQ9IjMyLjg0MzgiIHJ4PSIxMi41IiByeT0iMTIuNSIgc3R5bGU9InN0cm9rZTojMDBCRkZGO3N0cm9rZS13aWR0aDowLjU7IiB3aWR0aD0iMTg2IiB4PSI5Mi41IiB5PSI0MDQuMTE3MiIvPjx0ZXh0IGZpbGw9IiMwMDAwMDAiIGZvbnQtZmFtaWx5PSJzYW5zLXNlcmlmIiBmb250LXNpemU9IjEyIiBsZW5ndGhBZGp1c3Q9InNwYWNpbmciIHRleHRMZW5ndGg9IjE2NiIgeD0iMTAyLjUiIHk9IjQyNS40NjA5Ij5Jbml0aWFsaXplIGVtcHR5IHBhdGggbGlzdDwvdGV4dD48cmVjdCBmaWxsPSIjODdDRUZBIiBoZWlnaHQ9IjMyLjg0MzgiIHJ4PSIxMi41IiByeT0iMTIuNSIgc3R5bGU9InN0cm9rZTojMDBCRkZGO3N0cm9rZS13aWR0aDowLjU7IiB3aWR0aD0iMjYzIiB4PSI1NCIgeT0iNTEyLjg1OTQiLz48dGV4dCBmaWxsPSIjMDAwMDAwIiBmb250LWZhbWlseT0ic2Fucy1zZXJpZiIgZm9udC1zaXplPSIxMiIgbGVuZ3RoQWRqdXN0PSJzcGFjaW5nIiB0ZXh0TGVuZ3RoPSIyNDMiIHg9IjY0IiB5PSI1MzQuMjAzMSI+QWRkIChub2RlLmFjdGlvbiwgbm9kZS5zdGF0ZSkgdG8gcGF0aDwvdGV4dD48cmVjdCBmaWxsPSIjODdDRUZBIiBoZWlnaHQ9IjMyLjg0MzgiIHJ4PSIxMi41IiByeT0iMTIuNSIgc3R5bGU9InN0cm9rZTojMDBCRkZGO3N0cm9rZS13aWR0aDowLjU7IiB3aWR0aD0iMTQxIiB4PSIxMTUiIHk9IjU4MC43MDMxIi8+PHRleHQgZmlsbD0iIzAwMDAwMCIgZm9udC1mYW1pbHk9InNhbnMtc2VyaWYiIGZvbnQtc2l6ZT0iMTIiIGxlbmd0aEFkanVzdD0ic3BhY2luZyIgdGV4dExlbmd0aD0iMTIxIiB4PSIxMjUiIHk9IjYwMi4wNDY5Ij5ub2RlID0gbm9kZS5wYXJlbnQ8L3RleHQ+PHBvbHlnb24gZmlsbD0iIzg3Q0VGQSIgcG9pbnRzPSIxMjYsNDU2Ljk2MDksMjQ1LDQ1Ni45NjA5LDI1Nyw0NjguOTYwOSwyNDUsNDgwLjk2MDksMTI2LDQ4MC45NjA5LDExNCw0NjguOTYwOSwxMjYsNDU2Ljk2MDkiIHN0eWxlPSJzdHJva2U6IzAwQkZGRjtzdHJva2Utd2lkdGg6MC41OyIvPjx0ZXh0IGZpbGw9IiMwMDAwMDAiIGZvbnQtZmFtaWx5PSJzYW5zLXNlcmlmIiBmb250LXNpemU9IjExIiBsZW5ndGhBZGp1c3Q9InNwYWNpbmciIHRleHRMZW5ndGg9IjE4IiB4PSIxODkuNSIgeT0iNDkxLjM1OTQiPnllczwvdGV4dD48dGV4dCBmaWxsPSIjMDAwMDAwIiBmb250LWZhbWlseT0ic2Fucy1zZXJpZiIgZm9udC1zaXplPSIxMSIgbGVuZ3RoQWRqdXN0PSJzcGFjaW5nIiB0ZXh0TGVuZ3RoPSIxMTkiIHg9IjEyNiIgeT0iNDczLjQ3MjciPm5vZGUucGFyZW50ICE9IE5vbmU/PC90ZXh0Pjx0ZXh0IGZpbGw9IiMwMDAwMDAiIGZvbnQtZmFtaWx5PSJzYW5zLXNlcmlmIiBmb250LXNpemU9IjExIiBsZW5ndGhBZGp1c3Q9InNwYWNpbmciIHRleHRMZW5ndGg9IjEyIiB4PSIxMDIiIHk9IjQ2Ny41ODU5Ij5ubzwvdGV4dD48cmVjdCBmaWxsPSIjODdDRUZBIiBoZWlnaHQ9IjMyLjg0MzgiIHJ4PSIxMi41IiByeT0iMTIuNSIgc3R5bGU9InN0cm9rZTojMDBCRkZGO3N0cm9rZS13aWR0aDowLjU7IiB3aWR0aD0iMTAyIiB4PSIxMzQuNSIgeT0iNjcyLjU0NjkiLz48dGV4dCBmaWxsPSIjMDAwMDAwIiBmb250LWZhbWlseT0ic2Fucy1zZXJpZiIgZm9udC1zaXplPSIxMiIgbGVuZ3RoQWRqdXN0PSJzcGFjaW5nIiB0ZXh0TGVuZ3RoPSI4MiIgeD0iMTQ0LjUiIHk9IjY5My44OTA2Ij5SZXZlcnNlIHBhdGg8L3RleHQ+PHJlY3QgZmlsbD0iIzg3Q0VGQSIgaGVpZ2h0PSIzMi44NDM4IiByeD0iMTIuNSIgcnk9IjEyLjUiIHN0eWxlPSJzdHJva2U6IzAwQkZGRjtzdHJva2Utd2lkdGg6MC41OyIgd2lkdGg9Ijk0IiB4PSIxMzguNSIgeT0iNzM4LjM5MDYiLz48dGV4dCBmaWxsPSIjMDAwMDAwIiBmb250LWZhbWlseT0ic2Fucy1zZXJpZiIgZm9udC1zaXplPSIxMiIgbGVuZ3RoQWRqdXN0PSJzcGFjaW5nIiB0ZXh0TGVuZ3RoPSI3NCIgeD0iMTQ4LjUiIHk9Ijc1OS43MzQ0Ij5SZXR1cm4gcGF0aDwvdGV4dD48ZWxsaXBzZSBjeD0iMTg1LjUiIGN5PSI4MDEuMjM0NCIgZmlsbD0ibm9uZSIgcng9IjEwIiByeT0iMTAiIHN0eWxlPSJzdHJva2U6IzIyMjIyMjtzdHJva2Utd2lkdGg6MS41OyIvPjxsaW5lIHN0eWxlPSJzdHJva2U6IzIyMjIyMjtzdHJva2Utd2lkdGg6Mi41OyIgeDE9IjE3OS4zMTI4IiB4Mj0iMTkxLjY4NzIiIHkxPSI3OTUuMDQ3MiIgeTI9IjgwNy40MjE2Ii8+PGxpbmUgc3R5bGU9InN0cm9rZTojMjIyMjIyO3N0cm9rZS13aWR0aDoyLjU7IiB4MT0iMTkxLjY4NzIiIHgyPSIxNzkuMzEyOCIgeTE9Ijc5NS4wNDcyIiB5Mj0iODA3LjQyMTYiLz48cmVjdCBmaWxsPSIjODdDRUZBIiBoZWlnaHQ9IjMyLjg0MzgiIHJ4PSIxMi41IiByeT0iMTIuNSIgc3R5bGU9InN0cm9rZTojMDBCRkZGO3N0cm9rZS13aWR0aDowLjU7IiB3aWR0aD0iMTk0IiB4PSI0NDEiIHk9IjQwNC4xMTcyIi8+PHRleHQgZmlsbD0iIzAwMDAwMCIgZm9udC1mYW1pbHk9InNhbnMtc2VyaWYiIGZvbnQtc2l6ZT0iMTIiIGxlbmd0aEFkanVzdD0ic3BhY2luZyIgdGV4dExlbmd0aD0iMTc0IiB4PSI0NTEiIHk9IjQyNS40NjA5Ij5BZGQgbm9kZS5zdGF0ZSB0byBleHBsb3JlZDwvdGV4dD48cmVjdCBmaWxsPSIjODdDRUZBIiBoZWlnaHQ9IjMyLjg0MzgiIHJ4PSIxMi41IiByeT0iMTIuNSIgc3R5bGU9InN0cm9rZTojMDBCRkZGO3N0cm9rZS13aWR0aDowLjU7IiB3aWR0aD0iMzEwIiB4PSIzODMiIHk9IjU2MC44NTk0Ii8+PHRleHQgZmlsbD0iIzAwMDAwMCIgZm9udC1mYW1pbHk9InNhbnMtc2VyaWYiIGZvbnQtc2l6ZT0iMTIiIGxlbmd0aEFkanVzdD0ic3BhY2luZyIgdGV4dExlbmd0aD0iMjkwIiB4PSIzOTMiIHk9IjU4Mi4yMDMxIj5DcmVhdGUgY2hpbGQgTm9kZShwZXJzb25faWQsIG5vZGUsIG1vdmllX2lkKTwvdGV4dD48cmVjdCBmaWxsPSIjODdDRUZBIiBoZWlnaHQ9IjMyLjg0MzgiIHJ4PSIxMi41IiByeT0iMTIuNSIgc3R5bGU9InN0cm9rZTojMDBCRkZGO3N0cm9rZS13aWR0aDowLjU7IiB3aWR0aD0iMTU3IiB4PSI0NTkuNSIgeT0iNjI4LjcwMzEiLz48dGV4dCBmaWxsPSIjMDAwMDAwIiBmb250LWZhbWlseT0ic2Fucy1zZXJpZiIgZm9udC1zaXplPSIxMiIgbGVuZ3RoQWRqdXN0PSJzcGFjaW5nIiB0ZXh0TGVuZ3RoPSIxMzciIHg9IjQ2OS41IiB5PSI2NTAuMDQ2OSI+QWRkIGNoaWxkIHRvIGZyb250aWVyPC90ZXh0Pjxwb2x5Z29uIGZpbGw9IiM4N0NFRkEiIHBvaW50cz0iNDUxLDUxMi44NTk0LDYyNSw1MTIuODU5NCw2MzcsNTI0Ljg1OTQsNjI1LDUzNi44NTk0LDQ1MSw1MzYuODU5NCw0MzksNTI0Ljg1OTQsNDUxLDUxMi44NTk0IiBzdHlsZT0ic3Ryb2tlOiMwMEJGRkY7c3Ryb2tlLXdpZHRoOjAuNTsiLz48dGV4dCBmaWxsPSIjMDAwMDAwIiBmb250LWZhbWlseT0ic2Fucy1zZXJpZiIgZm9udC1zaXplPSIxMSIgbGVuZ3RoQWRqdXN0PSJzcGFjaW5nIiB0ZXh0TGVuZ3RoPSIxOCIgeD0iNTQyIiB5PSI1NDcuMjU3OCI+eWVzPC90ZXh0Pjx0ZXh0IGZpbGw9IiMwMDAwMDAiIGZvbnQtZmFtaWx5PSJzYW5zLXNlcmlmIiBmb250LXNpemU9IjExIiBsZW5ndGhBZGp1c3Q9InNwYWNpbmciIHRleHRMZW5ndGg9IjE3NCIgeD0iNDUxIiB5PSI1MjMuNDg0NCI+cGVyc29uX2lkIG5vdCBpbiBmcm9udGllciBBTkQ8L3RleHQ+PHRleHQgZmlsbD0iIzAwMDAwMCIgZm9udC1mYW1pbHk9InNhbnMtc2VyaWYiIGZvbnQtc2l6ZT0iMTEiIGxlbmd0aEFkanVzdD0ic3BhY2luZyIgdGV4dExlbmd0aD0iMTU2IiB4PSI0NTEiIHk9IjUzNS4yNTc4Ij5wZXJzb25faWQgbm90IGluIGV4cGxvcmVkPzwvdGV4dD48cG9seWdvbiBmaWxsPSIjODdDRUZBIiBwb2ludHM9IjUzOCw2ODUuNTQ2OSw1NTAsNjk3LjU0NjksNTM4LDcwOS41NDY5LDUyNiw2OTcuNTQ2OSw1MzgsNjg1LjU0NjkiIHN0eWxlPSJzdHJva2U6IzAwQkZGRjtzdHJva2Utd2lkdGg6MC41OyIvPjxwb2x5Z29uIGZpbGw9IiM4N0NFRkEiIHBvaW50cz0iNDM5LDQ1Ni45NjA5LDYzNyw0NTYuOTYwOSw2NDksNDY4Ljk2MDksNjM3LDQ4MC45NjA5LDQzOSw0ODAuOTYwOSw0MjcsNDY4Ljk2MDksNDM5LDQ1Ni45NjA5IiBzdHlsZT0ic3Ryb2tlOiMwMEJGRkY7c3Ryb2tlLXdpZHRoOjAuNTsiLz48dGV4dCBmaWxsPSIjMDAwMDAwIiBmb250LWZhbWlseT0ic2Fucy1zZXJpZiIgZm9udC1zaXplPSIxMSIgbGVuZ3RoQWRqdXN0PSJzcGFjaW5nIiB0ZXh0TGVuZ3RoPSI3OCIgeD0iNTQyIiB5PSI0OTEuMzU5NCI+bmV4dCBuZWlnaGJvcjwvdGV4dD48dGV4dCBmaWxsPSIjMDAwMDAwIiBmb250LWZhbWlseT0ic2Fucy1zZXJpZiIgZm9udC1zaXplPSIxMSIgbGVuZ3RoQWRqdXN0PSJzcGFjaW5nIiB0ZXh0TGVuZ3RoPSIxOTgiIHg9IjQzOSIgeT0iNDY3LjU4NTkiPkZvciBlYWNoIChtb3ZpZV9pZCwgcGVyc29uX2lkKSBpbjwvdGV4dD48dGV4dCBmaWxsPSIjMDAwMDAwIiBmb250LWZhbWlseT0ic2Fucy1zZXJpZiIgZm9udC1zaXplPSIxMSIgbGVuZ3RoQWRqdXN0PSJzcGFjaW5nIiB0ZXh0TGVuZ3RoPSIxOTEiIHg9IjQzOSIgeT0iNDc5LjM1OTQiPm5laWdoYm9yc19mb3JfcGVyc29uKG5vZGUuc3RhdGUpPC90ZXh0Pjx0ZXh0IGZpbGw9IiMwMDAwMDAiIGZvbnQtZmFtaWx5PSJzYW5zLXNlcmlmIiBmb250LXNpemU9IjExIiBsZW5ndGhBZGp1c3Q9InNwYWNpbmciIHRleHRMZW5ndGg9IjI0IiB4PSI0MDMiIHk9IjQ2Ny41ODU5Ij5kb25lPC90ZXh0Pjxwb2x5Z29uIGZpbGw9IiM4N0NFRkEiIHBvaW50cz0iMzExLjI1LDI2MS4zNzUsNDEyLjI1LDI2MS4zNzUsNDI0LjI1LDI3My4zNzUsNDEyLjI1LDI4NS4zNzUsMzExLjI1LDI4NS4zNzUsMjk5LjI1LDI3My4zNzUsMzExLjI1LDI2MS4zNzUiIHN0eWxlPSJzdHJva2U6IzAwQkZGRjtzdHJva2Utd2lkdGg6MC41OyIvPjx0ZXh0IGZpbGw9IiMwMDAwMDAiIGZvbnQtZmFtaWx5PSJzYW5zLXNlcmlmIiBmb250LXNpemU9IjExIiBsZW5ndGhBZGp1c3Q9InNwYWNpbmciIHRleHRMZW5ndGg9IjEyIiB4PSIzNjUuNzUiIHk9IjI5NS43NzM0Ij5ubzwvdGV4dD48dGV4dCBmaWxsPSIjMDAwMDAwIiBmb250LWZhbWlseT0ic2Fucy1zZXJpZiIgZm9udC1zaXplPSIxMSIgbGVuZ3RoQWRqdXN0PSJzcGFjaW5nIiB0ZXh0TGVuZ3RoPSIxMDEiIHg9IjMxMS4yNSIgeT0iMjc3Ljg4NjciPmZyb250aWVyLmVtcHR5KCk/PC90ZXh0Pjx0ZXh0IGZpbGw9IiMwMDAwMDAiIGZvbnQtZmFtaWx5PSJzYW5zLXNlcmlmIiBmb250LXNpemU9IjExIiBsZW5ndGhBZGp1c3Q9InNwYWNpbmciIHRleHRMZW5ndGg9IjE4IiB4PSIyODEuMjUiIHk9IjI3MiI+eWVzPC90ZXh0PjxyZWN0IGZpbGw9IiM4N0NFRkEiIGhlaWdodD0iMzIuODQzOCIgcng9IjEyLjUiIHJ5PSIxMi41IiBzdHlsZT0ic3Ryb2tlOiMwMEJGRkY7c3Ryb2tlLXdpZHRoOjAuNTsiIHdpZHRoPSIxNTgiIHg9IjI4Mi43NSIgeT0iODUzLjIzNDQiLz48dGV4dCBmaWxsPSIjMDAwMDAwIiBmb250LWZhbWlseT0ic2Fucy1zZXJpZiIgZm9udC1zaXplPSIxMiIgbGVuZ3RoQWRqdXN0PSJzcGFjaW5nIiB0ZXh0TGVuZ3RoPSIxMzgiIHg9IjI5Mi43NSIgeT0iODc0LjU3ODEiPlByaW50ICJObyBwYXRoIGZvdW5kIjwvdGV4dD48cmVjdCBmaWxsPSIjODdDRUZBIiBoZWlnaHQ9IjMyLjg0MzgiIHJ4PSIxMi41IiByeT0iMTIuNSIgc3R5bGU9InN0cm9rZTojMDBCRkZGO3N0cm9rZS13aWR0aDowLjU7IiB3aWR0aD0iOTUiIHg9IjMxNC4yNSIgeT0iOTA2LjA3ODEiLz48dGV4dCBmaWxsPSIjMDAwMDAwIiBmb250LWZhbWlseT0ic2Fucy1zZXJpZiIgZm9udC1zaXplPSIxMiIgbGVuZ3RoQWRqdXN0PSJzcGFjaW5nIiB0ZXh0TGVuZ3RoPSI3NSIgeD0iMzI0LjI1IiB5PSI5MjcuNDIxOSI+UmV0dXJuIE5vbmU8L3RleHQ+PGVsbGlwc2UgY3g9IjM2MS43NSIgY3k9Ijk2OS45MjE5IiBmaWxsPSJub25lIiByeD0iMTEiIHJ5PSIxMSIgc3R5bGU9InN0cm9rZTojMjIyMjIyO3N0cm9rZS13aWR0aDoxLjA7Ii8+PGVsbGlwc2UgY3g9IjM2MS43NSIgY3k9Ijk2OS45MjE5IiBmaWxsPSIjMjIyMjIyIiByeD0iNiIgcnk9IjYiIHN0eWxlPSJzdHJva2U6IzIyMjIyMjtzdHJva2Utd2lkdGg6MS4wOyIvPjxsaW5lIHN0eWxlPSJzdHJva2U6IzAwQkZGRjtzdHJva2Utd2lkdGg6MS4wOyIgeDE9IjM2MS43NSIgeDI9IjM2MS43NSIgeTE9IjMwIiB5Mj0iNTAiLz48cG9seWdvbiBmaWxsPSIjMDBCRkZGIiBwb2ludHM9IjM1Ny43NSw0MCwzNjEuNzUsNTAsMzY1Ljc1LDQwLDM2MS43NSw0NCIgc3R5bGU9InN0cm9rZTojMDBCRkZGO3N0cm9rZS13aWR0aDoxLjA7Ii8+PGxpbmUgc3R5bGU9InN0cm9rZTojMDBCRkZGO3N0cm9rZS13aWR0aDoxLjA7IiB4MT0iMzYxLjc1IiB4Mj0iMzYxLjc1IiB5MT0iODIuODQzOCIgeTI9IjEwMi44NDM4Ii8+PHBvbHlnb24gZmlsbD0iIzAwQkZGRiIgcG9pbnRzPSIzNTcuNzUsOTIuODQzOCwzNjEuNzUsMTAyLjg0MzgsMzY1Ljc1LDkyLjg0MzgsMzYxLjc1LDk2Ljg0MzgiIHN0eWxlPSJzdHJva2U6IzAwQkZGRjtzdHJva2Utd2lkdGg6MS4wOyIvPjxsaW5lIHN0eWxlPSJzdHJva2U6IzAwQkZGRjtzdHJva2Utd2lkdGg6MS4wOyIgeDE9IjM2MS43NSIgeDI9IjM2MS43NSIgeTE9IjEzNS42ODc1IiB5Mj0iMTU1LjY4NzUiLz48cG9seWdvbiBmaWxsPSIjMDBCRkZGIiBwb2ludHM9IjM1Ny43NSwxNDUuNjg3NSwzNjEuNzUsMTU1LjY4NzUsMzY1Ljc1LDE0NS42ODc1LDM2MS43NSwxNDkuNjg3NSIgc3R5bGU9InN0cm9rZTojMDBCRkZGO3N0cm9rZS13aWR0aDoxLjA7Ii8+PGxpbmUgc3R5bGU9InN0cm9rZTojMDBCRkZGO3N0cm9rZS13aWR0aDoxLjA7IiB4MT0iMzYxLjc1IiB4Mj0iMzYxLjc1IiB5MT0iMTg4LjUzMTMiIHkyPSIyMDguNTMxMyIvPjxwb2x5Z29uIGZpbGw9IiMwMEJGRkYiIHBvaW50cz0iMzU3Ljc1LDE5OC41MzEzLDM2MS43NSwyMDguNTMxMywzNjUuNzUsMTk4LjUzMTMsMzYxLjc1LDIwMi41MzEzIiBzdHlsZT0ic3Ryb2tlOiMwMEJGRkY7c3Ryb2tlLXdpZHRoOjEuMDsiLz48bGluZSBzdHlsZT0ic3Ryb2tlOiMwMEJGRkY7c3Ryb2tlLXdpZHRoOjEuMDsiIHgxPSIxODUuNSIgeDI9IjE4NS41IiB5MT0iNTQ1LjcwMzEiIHkyPSI1ODAuNzAzMSIvPjxwb2x5Z29uIGZpbGw9IiMwMEJGRkYiIHBvaW50cz0iMTgxLjUsNTcwLjcwMzEsMTg1LjUsNTgwLjcwMzEsMTg5LjUsNTcwLjcwMzEsMTg1LjUsNTc0LjcwMzEiIHN0eWxlPSJzdHJva2U6IzAwQkZGRjtzdHJva2Utd2lkdGg6MS4wOyIvPjxsaW5lIHN0eWxlPSJzdHJva2U6IzAwQkZGRjtzdHJva2Utd2lkdGg6MS4wOyIgeDE9IjE4NS41IiB4Mj0iMTg1LjUiIHkxPSI0ODAuOTYwOSIgeTI9IjUxMi44NTk0Ii8+PHBvbHlnb24gZmlsbD0iIzAwQkZGRiIgcG9pbnRzPSIxODEuNSw1MDIuODU5NCwxODUuNSw1MTIuODU5NCwxODkuNSw1MDIuODU5NCwxODUuNSw1MDYuODU5NCIgc3R5bGU9InN0cm9rZTojMDBCRkZGO3N0cm9rZS13aWR0aDoxLjA7Ii8+PGxpbmUgc3R5bGU9InN0cm9rZTojMDBCRkZGO3N0cm9rZS13aWR0aDoxLjA7IiB4MT0iMTg1LjUiIHgyPSIxODUuNSIgeTE9IjYxMy41NDY5IiB5Mj0iNjI1LjU0NjkiLz48bGluZSBzdHlsZT0ic3Ryb2tlOiMwMEJGRkY7c3Ryb2tlLXdpZHRoOjEuMDsiIHgxPSIxODUuNSIgeDI9IjMyOSIgeTE9IjYyNS41NDY5IiB5Mj0iNjI1LjU0NjkiLz48cG9seWdvbiBmaWxsPSIjMDBCRkZGIiBwb2ludHM9IjMyNSw1NTUuMzE2NCwzMjksNTQ1LjMxNjQsMzMzLDU1NS4zMTY0LDMyOSw1NTEuMzE2NCIgc3R5bGU9InN0cm9rZTojMDBCRkZGO3N0cm9rZS13aWR0aDoxLjA7Ii8+PGxpbmUgc3R5bGU9InN0cm9rZTojMDBCRkZGO3N0cm9rZS13aWR0aDoxLjA7IiB4MT0iMzI5IiB4Mj0iMzI5IiB5MT0iNDY4Ljk2MDkiIHkyPSI2MjUuNTQ2OSIvPjxsaW5lIHN0eWxlPSJzdHJva2U6IzAwQkZGRjtzdHJva2Utd2lkdGg6MS4wOyIgeDE9IjMyOSIgeDI9IjI1NyIgeTE9IjQ2OC45NjA5IiB5Mj0iNDY4Ljk2MDkiLz48cG9seWdvbiBmaWxsPSIjMDBCRkZGIiBwb2ludHM9IjI2Nyw0NjQuOTYwOSwyNTcsNDY4Ljk2MDksMjY3LDQ3Mi45NjA5LDI2Myw0NjguOTYwOSIgc3R5bGU9InN0cm9rZTojMDBCRkZGO3N0cm9rZS13aWR0aDoxLjA7Ii8+PGxpbmUgc3R5bGU9InN0cm9rZTojMDBCRkZGO3N0cm9rZS13aWR0aDoxLjA7IiB4MT0iMTE0IiB4Mj0iNDIiIHkxPSI0NjguOTYwOSIgeTI9IjQ2OC45NjA5Ii8+PHBvbHlnb24gZmlsbD0iIzAwQkZGRiIgcG9pbnRzPSIzOCw1NDEuMzE2NCw0Miw1NTEuMzE2NCw0Niw1NDEuMzE2NCw0Miw1NDUuMzE2NCIgc3R5bGU9InN0cm9rZTojMDBCRkZGO3N0cm9rZS13aWR0aDoxLjA7Ii8+PGxpbmUgc3R5bGU9InN0cm9rZTojMDBCRkZGO3N0cm9rZS13aWR0aDoxLjA7IiB4MT0iNDIiIHgyPSI0MiIgeTE9IjQ2OC45NjA5IiB5Mj0iNjM3LjU0NjkiLz48bGluZSBzdHlsZT0ic3Ryb2tlOiMwMEJGRkY7c3Ryb2tlLXdpZHRoOjEuMDsiIHgxPSI0MiIgeDI9IjE4NS41IiB5MT0iNjM3LjU0NjkiIHkyPSI2MzcuNTQ2OSIvPjxsaW5lIHN0eWxlPSJzdHJva2U6IzAwQkZGRjtzdHJva2Utd2lkdGg6MS4wOyIgeDE9IjE4NS41IiB4Mj0iMTg1LjUiIHkxPSI2MzcuNTQ2OSIgeTI9IjY3Mi41NDY5Ii8+PHBvbHlnb24gZmlsbD0iIzAwQkZGRiIgcG9pbnRzPSIxODEuNSw2NjIuNTQ2OSwxODUuNSw2NzIuNTQ2OSwxODkuNSw2NjIuNTQ2OSwxODUuNSw2NjYuNTQ2OSIgc3R5bGU9InN0cm9rZTojMDBCRkZGO3N0cm9rZS13aWR0aDoxLjA7Ii8+PGxpbmUgc3R5bGU9InN0cm9rZTojMDBCRkZGO3N0cm9rZS13aWR0aDoxLjA7IiB4MT0iMTg1LjUiIHgyPSIxODUuNSIgeTE9IjQzNi45NjA5IiB5Mj0iNDU2Ljk2MDkiLz48cG9seWdvbiBmaWxsPSIjMDBCRkZGIiBwb2ludHM9IjE4MS41LDQ0Ni45NjA5LDE4NS41LDQ1Ni45NjA5LDE4OS41LDQ0Ni45NjA5LDE4NS41LDQ1MC45NjA5IiBzdHlsZT0ic3Ryb2tlOiMwMEJGRkY7c3Ryb2tlLXdpZHRoOjEuMDsiLz48bGluZSBzdHlsZT0ic3Ryb2tlOiMwMEJGRkY7c3Ryb2tlLXdpZHRoOjEuMDsiIHgxPSIxODUuNSIgeDI9IjE4NS41IiB5MT0iNzA1LjM5MDYiIHkyPSI3MzguMzkwNiIvPjxwb2x5Z29uIGZpbGw9IiMwMEJGRkYiIHBvaW50cz0iMTgxLjUsNzI4LjM5MDYsMTg1LjUsNzM4LjM5MDYsMTg5LjUsNzI4LjM5MDYsMTg1LjUsNzMyLjM5MDYiIHN0eWxlPSJzdHJva2U6IzAwQkZGRjtzdHJva2Utd2lkdGg6MS4wOyIvPjxsaW5lIHN0eWxlPSJzdHJva2U6IzAwQkZGRjtzdHJva2Utd2lkdGg6MS4wOyIgeDE9IjE4NS41IiB4Mj0iMTg1LjUiIHkxPSI3NzEuMjM0NCIgeTI9Ijc5MS4yMzQ0Ii8+PHBvbHlnb24gZmlsbD0iIzAwQkZGRiIgcG9pbnRzPSIxODEuNSw3ODEuMjM0NCwxODUuNSw3OTEuMjM0NCwxODkuNSw3ODEuMjM0NCwxODUuNSw3ODUuMjM0NCIgc3R5bGU9InN0cm9rZTojMDBCRkZGO3N0cm9rZS13aWR0aDoxLjA7Ii8+PGxpbmUgc3R5bGU9InN0cm9rZTojMDBCRkZGO3N0cm9rZS13aWR0aDoxLjA7IiB4MT0iNTM4IiB4Mj0iNTM4IiB5MT0iNTkzLjcwMzEiIHkyPSI2MjguNzAzMSIvPjxwb2x5Z29uIGZpbGw9IiMwMEJGRkYiIHBvaW50cz0iNTM0LDYxOC43MDMxLDUzOCw2MjguNzAzMSw1NDIsNjE4LjcwMzEsNTM4LDYyMi43MDMxIiBzdHlsZT0ic3Ryb2tlOiMwMEJGRkY7c3Ryb2tlLXdpZHRoOjEuMDsiLz48bGluZSBzdHlsZT0ic3Ryb2tlOiMwMEJGRkY7c3Ryb2tlLXdpZHRoOjEuMDsiIHgxPSI1MzgiIHgyPSI1MzgiIHkxPSI1MzYuODU5NCIgeTI9IjU2MC44NTk0Ii8+PHBvbHlnb24gZmlsbD0iIzAwQkZGRiIgcG9pbnRzPSI1MzQsNTUwLjg1OTQsNTM4LDU2MC44NTk0LDU0Miw1NTAuODU5NCw1MzgsNTU0Ljg1OTQiIHN0eWxlPSJzdHJva2U6IzAwQkZGRjtzdHJva2Utd2lkdGg6MS4wOyIvPjxsaW5lIHN0eWxlPSJzdHJva2U6IzAwQkZGRjtzdHJva2Utd2lkdGg6MS4wOyIgeDE9IjYzNyIgeDI9IjcwMyIgeTE9IjUyNC44NTk0IiB5Mj0iNTI0Ljg1OTQiLz48cG9seWdvbiBmaWxsPSIjMDBCRkZGIiBwb2ludHM9IjY5OSw2MDEuMjAzMSw3MDMsNjExLjIwMzEsNzA3LDYwMS4yMDMxLDcwMyw2MDUuMjAzMSIgc3R5bGU9InN0cm9rZTojMDBCRkZGO3N0cm9rZS13aWR0aDoxLjA7Ii8+PGxpbmUgc3R5bGU9InN0cm9rZTojMDBCRkZGO3N0cm9rZS13aWR0aDoxLjA7IiB4MT0iNzAzIiB4Mj0iNzAzIiB5MT0iNTI0Ljg1OTQiIHkyPSI2OTcuNTQ2OSIvPjxsaW5lIHN0eWxlPSJzdHJva2U6IzAwQkZGRjtzdHJva2Utd2lkdGg6MS4wOyIgeDE9IjcwMyIgeDI9IjU1MCIgeTE9IjY5Ny41NDY5IiB5Mj0iNjk3LjU0NjkiLz48cG9seWdvbiBmaWxsPSIjMDBCRkZGIiBwb2ludHM9IjU2MCw2OTMuNTQ2OSw1NTAsNjk3LjU0NjksNTYwLDcwMS41NDY5LDU1Niw2OTcuNTQ2OSIgc3R5bGU9InN0cm9rZTojMDBCRkZGO3N0cm9rZS13aWR0aDoxLjA7Ii8+PGxpbmUgc3R5bGU9InN0cm9rZTojMDBCRkZGO3N0cm9rZS13aWR0aDoxLjA7IiB4MT0iNTM4IiB4Mj0iNTM4IiB5MT0iNjYxLjU0NjkiIHkyPSI2ODUuNTQ2OSIvPjxwb2x5Z29uIGZpbGw9IiMwMEJGRkYiIHBvaW50cz0iNTM0LDY3NS41NDY5LDUzOCw2ODUuNTQ2OSw1NDIsNjc1LjU0NjksNTM4LDY3OS41NDY5IiBzdHlsZT0ic3Ryb2tlOiMwMEJGRkY7c3Ryb2tlLXdpZHRoOjEuMDsiLz48bGluZSBzdHlsZT0ic3Ryb2tlOiMwMEJGRkY7c3Ryb2tlLXdpZHRoOjEuMDsiIHgxPSI1MzgiIHgyPSI1MzgiIHkxPSI0ODAuOTYwOSIgeTI9IjUxMi44NTk0Ii8+PHBvbHlnb24gZmlsbD0iIzAwQkZGRiIgcG9pbnRzPSI1MzQsNTAyLjg1OTQsNTM4LDUxMi44NTk0LDU0Miw1MDIuODU5NCw1MzgsNTA2Ljg1OTQiIHN0eWxlPSJzdHJva2U6IzAwQkZGRjtzdHJva2Utd2lkdGg6MS4wOyIvPjxsaW5lIHN0eWxlPSJzdHJva2U6IzAwQkZGRjtzdHJva2Utd2lkdGg6MS4wOyIgeDE9IjUzOCIgeDI9IjUzOCIgeTE9IjcwOS41NDY5IiB5Mj0iNzE5LjU0NjkiLz48bGluZSBzdHlsZT0ic3Ryb2tlOiMwMEJGRkY7c3Ryb2tlLXdpZHRoOjEuMDsiIHgxPSI1MzgiIHgyPSI3MjEiIHkxPSI3MTkuNTQ2OSIgeTI9IjcxOS41NDY5Ii8+PHBvbHlnb24gZmlsbD0iIzAwQkZGRiIgcG9pbnRzPSI3MTcsNjAzLjMxNjQsNzIxLDU5My4zMTY0LDcyNSw2MDMuMzE2NCw3MjEsNTk5LjMxNjQiIHN0eWxlPSJzdHJva2U6IzAwQkZGRjtzdHJva2Utd2lkdGg6MS4wOyIvPjxsaW5lIHN0eWxlPSJzdHJva2U6IzAwQkZGRjtzdHJva2Utd2lkdGg6MS4wOyIgeDE9IjcyMSIgeDI9IjcyMSIgeTE9IjQ2OC45NjA5IiB5Mj0iNzE5LjU0NjkiLz48bGluZSBzdHlsZT0ic3Ryb2tlOiMwMEJGRkY7c3Ryb2tlLXdpZHRoOjEuMDsiIHgxPSI3MjEiIHgyPSI2NDkiIHkxPSI0NjguOTYwOSIgeTI9IjQ2OC45NjA5Ii8+PHBvbHlnb24gZmlsbD0iIzAwQkZGRiIgcG9pbnRzPSI2NTksNDY0Ljk2MDksNjQ5LDQ2OC45NjA5LDY1OSw0NzIuOTYwOSw2NTUsNDY4Ljk2MDkiIHN0eWxlPSJzdHJva2U6IzAwQkZGRjtzdHJva2Utd2lkdGg6MS4wOyIvPjxsaW5lIHN0eWxlPSJzdHJva2U6IzAwQkZGRjtzdHJva2Utd2lkdGg6MS4wOyIgeDE9IjQyNyIgeDI9IjM2MSIgeTE9IjQ2OC45NjA5IiB5Mj0iNDY4Ljk2MDkiLz48cG9seWdvbiBmaWxsPSIjMDBCRkZGIiBwb2ludHM9IjM1Nyw2MzkuNjYwMiwzNjEsNjQ5LjY2MDIsMzY1LDYzOS42NjAyLDM2MSw2NDMuNjYwMiIgc3R5bGU9InN0cm9rZTojMDBCRkZGO3N0cm9rZS13aWR0aDoxLjA7Ii8+PGxpbmUgc3R5bGU9InN0cm9rZTojMDBCRkZGO3N0cm9rZS13aWR0aDoxLjA7IiB4MT0iMzYxIiB4Mj0iMzYxIiB5MT0iNDY4Ljk2MDkiIHkyPSI4MTYuMjM0NCIvPjxsaW5lIHN0eWxlPSJzdHJva2U6IzAwQkZGRjtzdHJva2Utd2lkdGg6MS4wOyIgeDE9IjM2MSIgeDI9Ijc0MyIgeTE9IjgxNi4yMzQ0IiB5Mj0iODE2LjIzNDQiLz48bGluZSBzdHlsZT0ic3Ryb2tlOiMwMEJGRkY7c3Ryb2tlLXdpZHRoOjEuMDsiIHgxPSI3NDMiIHgyPSI3NDMiIHkxPSIyNzMuMzc1IiB5Mj0iODE2LjIzNDQiLz48bGluZSBzdHlsZT0ic3Ryb2tlOiMwMEJGRkY7c3Ryb2tlLXdpZHRoOjEuMDsiIHgxPSI3NDMiIHgyPSI0MjQuMjUiIHkxPSIyNzMuMzc1IiB5Mj0iMjczLjM3NSIvPjxwb2x5Z29uIGZpbGw9IiMwMEJGRkYiIHBvaW50cz0iNDM0LjI1LDI2OS4zNzUsNDI0LjI1LDI3My4zNzUsNDM0LjI1LDI3Ny4zNzUsNDMwLjI1LDI3My4zNzUiIHN0eWxlPSJzdHJva2U6IzAwQkZGRjtzdHJva2Utd2lkdGg6MS4wOyIvPjxsaW5lIHN0eWxlPSJzdHJva2U6IzAwQkZGRjtzdHJva2Utd2lkdGg6MS4wOyIgeDE9IjUzOCIgeDI9IjUzOCIgeTE9IjQzNi45NjA5IiB5Mj0iNDU2Ljk2MDkiLz48cG9seWdvbiBmaWxsPSIjMDBCRkZGIiBwb2ludHM9IjUzNCw0NDYuOTYwOSw1MzgsNDU2Ljk2MDksNTQyLDQ0Ni45NjA5LDUzOCw0NTAuOTYwOSIgc3R5bGU9InN0cm9rZTojMDBCRkZGO3N0cm9rZS13aWR0aDoxLjA7Ii8+PGxpbmUgc3R5bGU9InN0cm9rZTojMDBCRkZGO3N0cm9rZS13aWR0aDoxLjA7IiB4MT0iMjg3LjI1IiB4Mj0iMTg1LjUiIHkxPSIzODIuMTE3MiIgeTI9IjM4Mi4xMTcyIi8+PGxpbmUgc3R5bGU9InN0cm9rZTojMDBCRkZGO3N0cm9rZS13aWR0aDoxLjA7IiB4MT0iMTg1LjUiIHgyPSIxODUuNSIgeTE9IjM4Mi4xMTcyIiB5Mj0iNDA0LjExNzIiLz48cG9seWdvbiBmaWxsPSIjMDBCRkZGIiBwb2ludHM9IjE4MS41LDM5NC4xMTcyLDE4NS41LDQwNC4xMTcyLDE4OS41LDM5NC4xMTcyLDE4NS41LDM5OC4xMTcyIiBzdHlsZT0ic3Ryb2tlOiMwMEJGRkY7c3Ryb2tlLXdpZHRoOjEuMDsiLz48bGluZSBzdHlsZT0ic3Ryb2tlOiMwMEJGRkY7c3Ryb2tlLXdpZHRoOjEuMDsiIHgxPSI0MzYuMjUiIHgyPSI1MzgiIHkxPSIzODIuMTE3MiIgeTI9IjM4Mi4xMTcyIi8+PGxpbmUgc3R5bGU9InN0cm9rZTojMDBCRkZGO3N0cm9rZS13aWR0aDoxLjA7IiB4MT0iNTM4IiB4Mj0iNTM4IiB5MT0iMzgyLjExNzIiIHkyPSI0MDQuMTE3MiIvPjxwb2x5Z29uIGZpbGw9IiMwMEJGRkYiIHBvaW50cz0iNTM0LDM5NC4xMTcyLDUzOCw0MDQuMTE3Miw1NDIsMzk0LjExNzIsNTM4LDM5OC4xMTcyIiBzdHlsZT0ic3Ryb2tlOiMwMEJGRkY7c3Ryb2tlLXdpZHRoOjEuMDsiLz48bGluZSBzdHlsZT0ic3Ryb2tlOiMwMEJGRkY7c3Ryb2tlLXdpZHRoOjEuMDsiIHgxPSIzNjEuNzUiIHgyPSIzNjEuNzUiIHkxPSIzNTAuMTE3MiIgeTI9IjM3MC4xMTcyIi8+PHBvbHlnb24gZmlsbD0iIzAwQkZGRiIgcG9pbnRzPSIzNTcuNzUsMzYwLjExNzIsMzYxLjc1LDM3MC4xMTcyLDM2NS43NSwzNjAuMTE3MiwzNjEuNzUsMzY0LjExNzIiIHN0eWxlPSJzdHJva2U6IzAwQkZGRjtzdHJva2Utd2lkdGg6MS4wOyIvPjxsaW5lIHN0eWxlPSJzdHJva2U6IzAwQkZGRjtzdHJva2Utd2lkdGg6MS4wOyIgeDE9IjM2MS43NSIgeDI9IjM2MS43NSIgeTE9IjI4NS4zNzUiIHkyPSIzMTcuMjczNCIvPjxwb2x5Z29uIGZpbGw9IiMwMEJGRkYiIHBvaW50cz0iMzU3Ljc1LDMwNy4yNzM0LDM2MS43NSwzMTcuMjczNCwzNjUuNzUsMzA3LjI3MzQsMzYxLjc1LDMxMS4yNzM0IiBzdHlsZT0ic3Ryb2tlOiMwMEJGRkY7c3Ryb2tlLXdpZHRoOjEuMDsiLz48bGluZSBzdHlsZT0ic3Ryb2tlOiMwMEJGRkY7c3Ryb2tlLXdpZHRoOjEuMDsiIHgxPSIyOTkuMjUiIHgyPSIyNCIgeTE9IjI3My4zNzUiIHkyPSIyNzMuMzc1Ii8+PHBvbHlnb24gZmlsbD0iIzAwQkZGRiIgcG9pbnRzPSIyMCw1MzYuOTI5NywyNCw1NDYuOTI5NywyOCw1MzYuOTI5NywyNCw1NDAuOTI5NyIgc3R5bGU9InN0cm9rZTojMDBCRkZGO3N0cm9rZS13aWR0aDoxLjA7Ii8+PGxpbmUgc3R5bGU9InN0cm9rZTojMDBCRkZGO3N0cm9rZS13aWR0aDoxLjA7IiB4MT0iMjQiIHgyPSIyNCIgeTE9IjI3My4zNzUiIHkyPSI4MzMuMjM0NCIvPjxsaW5lIHN0eWxlPSJzdHJva2U6IzAwQkZGRjtzdHJva2Utd2lkdGg6MS4wOyIgeDE9IjI0IiB4Mj0iMzYxLjc1IiB5MT0iODMzLjIzNDQiIHkyPSI4MzMuMjM0NCIvPjxsaW5lIHN0eWxlPSJzdHJva2U6IzAwQkZGRjtzdHJva2Utd2lkdGg6MS4wOyIgeDE9IjM2MS43NSIgeDI9IjM2MS43NSIgeTE9IjgzMy4yMzQ0IiB5Mj0iODUzLjIzNDQiLz48cG9seWdvbiBmaWxsPSIjMDBCRkZGIiBwb2ludHM9IjM1Ny43NSw4NDMuMjM0NCwzNjEuNzUsODUzLjIzNDQsMzY1Ljc1LDg0My4yMzQ0LDM2MS43NSw4NDcuMjM0NCIgc3R5bGU9InN0cm9rZTojMDBCRkZGO3N0cm9rZS13aWR0aDoxLjA7Ii8+PGxpbmUgc3R5bGU9InN0cm9rZTojMDBCRkZGO3N0cm9rZS13aWR0aDoxLjA7IiB4MT0iMzYxLjc1IiB4Mj0iMzYxLjc1IiB5MT0iMjQxLjM3NSIgeTI9IjI2MS4zNzUiLz48cG9seWdvbiBmaWxsPSIjMDBCRkZGIiBwb2ludHM9IjM1Ny43NSwyNTEuMzc1LDM2MS43NSwyNjEuMzc1LDM2NS43NSwyNTEuMzc1LDM2MS43NSwyNTUuMzc1IiBzdHlsZT0ic3Ryb2tlOiMwMEJGRkY7c3Ryb2tlLXdpZHRoOjEuMDsiLz48bGluZSBzdHlsZT0ic3Ryb2tlOiMwMEJGRkY7c3Ryb2tlLXdpZHRoOjEuMDsiIHgxPSIzNjEuNzUiIHgyPSIzNjEuNzUiIHkxPSI4ODYuMDc4MSIgeTI9IjkwNi4wNzgxIi8+PHBvbHlnb24gZmlsbD0iIzAwQkZGRiIgcG9pbnRzPSIzNTcuNzUsODk2LjA3ODEsMzYxLjc1LDkwNi4wNzgxLDM2NS43NSw4OTYuMDc4MSwzNjEuNzUsOTAwLjA3ODEiIHN0eWxlPSJzdHJva2U6IzAwQkZGRjtzdHJva2Utd2lkdGg6MS4wOyIvPjxsaW5lIHN0eWxlPSJzdHJva2U6IzAwQkZGRjtzdHJva2Utd2lkdGg6MS4wOyIgeDE9IjM2MS43NSIgeDI9IjM2MS43NSIgeTE9IjkzOC45MjE5IiB5Mj0iOTU4LjkyMTkiLz48cG9seWdvbiBmaWxsPSIjMDBCRkZGIiBwb2ludHM9IjM1Ny43NSw5NDguOTIxOSwzNjEuNzUsOTU4LjkyMTksMzY1Ljc1LDk0OC45MjE5LDM2MS43NSw5NTIuOTIxOSIgc3R5bGU9InN0cm9rZTojMDBCRkZGO3N0cm9rZS13aWR0aDoxLjA7Ii8+PCEtLVNSQz1bUExGQllrQ200QnBoQXRoZFA0RjgxeUk0OUpEM082MDkteFdFMTJMZ25vQUVQMkd2Y1Vvb194dWJvdFF5dXVpVmdrdm9UTk5QZHhMZmY5Q055ZkxLemdSRFlLZlBVblAtSDB4b1UzdXZzbmhyT2NsaHc1UmZDQ0t0cGpiUldid1Bjcl9kLXRGVEpXbGFDVVloM2RWdzh1WVVGeDV6cXdTZzMzczBoTEZpdmNuNE1zajJFWl9LdTExX1hWMTFrWTM0d2lNbjM0cFRBLXNpdWlwUnJYcnZXSFZKTl9EMmhEd0MzYmhNLVpTSk5uZTgtajVvb3JpN1BpcUUxSGtiVVhPMzVXZ01vV1N1dy1RRjFkOE9CSG1BOFUxQnBQR0Q3U2trQUNrX3ZnR3pQU1JjNjZCTHlRdjdzZ05aWXhybzFkTDBUSGRoNTItWDBWRWlybUdqOW13VzIxS1Jva3hpOG1qdVBjOFE2SWdnak9VSU1EMkJ3VFltMUpRMWxnbXg4dGV6OG5OOHVqWWZEQXhBY1dLekxFSkhYS1hVM0ROejIxRmcxQjVIdXJUeGJKX3ZvaXhwZjF6N2VOTGNTZThzdDFjUGNwSDZISENkODY0bUVwTERQem1ZNFlvRjVNTW1LbERVZ21Lci1BbXJVQ0ltdmpxT0hpZUVybGJ6UVRxLVdIRWR5dHY1Xzg3NXp3TTNFTjRkOG5pcTFIMkV3d0ZEeGxOVHBFMTF3dG5sdE4xek44LUdocjlTSHVSYV84QTZJVkJZcUhPeklKdF92SkFYUzU2TmR6UVdPa3A1VzN0RUVwTFl6VHJmZkU5ZmJ6UEJQVm1kZHYzcFZhQ25BcU55bnNwcDNtMDBdLS0+PC9nPjwvc3ZnPg==;" parent="1" vertex="1">
            <mxGeometry x="910" y="-220" width="755" height="991" as="geometry" />
          </mxCell>
        </UserObject>
      </root>
    </mxGraphModel>
  </diagram>
  <diagram id="7W84zK9YH3ZYY-bd_K5e" name="Page-2">
    <mxGraphModel dx="1346" dy="1713" grid="1" gridSize="10" guides="1" tooltips="1" connect="1" arrows="1" fold="1" page="1" pageScale="1" pageWidth="850" pageHeight="1100" math="0" shadow="0">
      <root>
        <mxCell id="0" />
        <mxCell id="1" parent="0" />
        <UserObject label="" plantUmlData="{&quot;data&quot;:&quot;@startuml\nskinparam shadowing false\nskinparam backgroundColor white\nskinparam ArrowColor DeepSkyBlue\nskinparam activity {\n  BackgroundColor LightSkyBlue\n  BorderColor DeepSkyBlue\n  FontColor black\n}\n\nstart\n\n:Create start Node(source, None, None);\n:Initialize empty QueueFrontier;\n:Add start node to frontier;\n:Initialize empty explored set;\n:Initialize shortest_paths dictionary:\nshortest_paths[source] = 0;\n\nwhile (frontier.empty()?) is (no)\n  :node = frontier.remove();\n\n  if (node.state == target?) then (yes)\n    :Initialize empty path list;\n    while (node.parent != None?) is (yes)\n      :Add (node.action, node.state) to path;\n      :node = node.parent;\n    endwhile (no)\n    :Reverse path;\n    :Return path;\n    end\n  else (no)\n    :Add node.state to explored;\n    \n    while (For each (movie_id, person_id) in\\nneighbors_for_person(node.state)) is (next neighbor)\n      :Calculate new_path_length =\\nshortest_paths[node.state] + 1;\n\n      if (person_id not in explored AND\\n(person_id not in shortest_paths OR\\nnew_path_length &lt; shortest_paths[person_id])?) then (yes)\n        :shortest_paths[person_id] = new_path_length;\n        :Create child Node(person_id, node, movie_id);\n        :Add child to frontier;\n      endif\n    endwhile (done)\n  endif\nendwhile (yes)\n\n:Return None;\n\nstop\n\n@enduml&quot;,&quot;format&quot;:&quot;svg&quot;}" id="m8s2ONHAqKi_MUqO9ujO-1">
          <mxCell style="shape=image;noLabel=1;verticalAlign=top;aspect=fixed;imageAspect=0;image=data:image/svg+xml,PD94bWwgdmVyc2lvbj0iMS4wIiBlbmNvZGluZz0idXMtYXNjaWkiIHN0YW5kYWxvbmU9Im5vIj8+PHN2ZyB4bWxucz0iaHR0cDovL3d3dy53My5vcmcvMjAwMC9zdmciIHhtbG5zOnhsaW5rPSJodHRwOi8vd3d3LnczLm9yZy8xOTk5L3hsaW5rIiBjb250ZW50U3R5bGVUeXBlPSJ0ZXh0L2NzcyIgaGVpZ2h0PSIxMDgzcHgiIHByZXNlcnZlQXNwZWN0UmF0aW89Im5vbmUiIHN0eWxlPSJ3aWR0aDo3NTVweDtoZWlnaHQ6MTA4M3B4O2JhY2tncm91bmQ6I0ZGRkZGRjsiIHZlcnNpb249IjEuMSIgdmlld0JveD0iMCAwIDc1NSAxMDgzIiB3aWR0aD0iNzU1cHgiIHpvb21BbmRQYW49Im1hZ25pZnkiPjxkZWZzLz48Zz48ZWxsaXBzZSBjeD0iMzYxLjc1IiBjeT0iMjAiIGZpbGw9IiMyMjIyMjIiIHJ4PSIxMCIgcnk9IjEwIiBzdHlsZT0ic3Ryb2tlOiMyMjIyMjI7c3Ryb2tlLXdpZHRoOjEuMDsiLz48cmVjdCBmaWxsPSIjODdDRUZBIiBoZWlnaHQ9IjMyLjg0MzgiIHJ4PSIxMi41IiByeT0iMTIuNSIgc3R5bGU9InN0cm9rZTojMDBCRkZGO3N0cm9rZS13aWR0aDowLjU7IiB3aWR0aD0iMjY3IiB4PSIyMjguMjUiIHk9IjUwIi8+PHRleHQgZmlsbD0iIzAwMDAwMCIgZm9udC1mYW1pbHk9InNhbnMtc2VyaWYiIGZvbnQtc2l6ZT0iMTIiIGxlbmd0aEFkanVzdD0ic3BhY2luZyIgdGV4dExlbmd0aD0iMjQ3IiB4PSIyMzguMjUiIHk9IjcxLjM0MzgiPkNyZWF0ZSBzdGFydCBOb2RlKHNvdXJjZSwgTm9uZSwgTm9uZSk8L3RleHQ+PHJlY3QgZmlsbD0iIzg3Q0VGQSIgaGVpZ2h0PSIzMi44NDM4IiByeD0iMTIuNSIgcnk9IjEyLjUiIHN0eWxlPSJzdHJva2U6IzAwQkZGRjtzdHJva2Utd2lkdGg6MC41OyIgd2lkdGg9IjIxNiIgeD0iMjUzLjc1IiB5PSIxMDIuODQzOCIvPjx0ZXh0IGZpbGw9IiMwMDAwMDAiIGZvbnQtZmFtaWx5PSJzYW5zLXNlcmlmIiBmb250LXNpemU9IjEyIiBsZW5ndGhBZGp1c3Q9InNwYWNpbmciIHRleHRMZW5ndGg9IjE5NiIgeD0iMjYzLjc1IiB5PSIxMjQuMTg3NSI+SW5pdGlhbGl6ZSBlbXB0eSBRdWV1ZUZyb250aWVyPC90ZXh0PjxyZWN0IGZpbGw9IiM4N0NFRkEiIGhlaWdodD0iMzIuODQzOCIgcng9IjEyLjUiIHJ5PSIxMi41IiBzdHlsZT0ic3Ryb2tlOiMwMEJGRkY7c3Ryb2tlLXdpZHRoOjAuNTsiIHdpZHRoPSIxOTIiIHg9IjI2NS43NSIgeT0iMTU1LjY4NzUiLz48dGV4dCBmaWxsPSIjMDAwMDAwIiBmb250LWZhbWlseT0ic2Fucy1zZXJpZiIgZm9udC1zaXplPSIxMiIgbGVuZ3RoQWRqdXN0PSJzcGFjaW5nIiB0ZXh0TGVuZ3RoPSIxNzIiIHg9IjI3NS43NSIgeT0iMTc3LjAzMTMiPkFkZCBzdGFydCBub2RlIHRvIGZyb250aWVyPC90ZXh0PjxyZWN0IGZpbGw9IiM4N0NFRkEiIGhlaWdodD0iMzIuODQzOCIgcng9IjEyLjUiIHJ5PSIxMi41IiBzdHlsZT0ic3Ryb2tlOiMwMEJGRkY7c3Ryb2tlLXdpZHRoOjAuNTsiIHdpZHRoPSIyMDkiIHg9IjI1Ny4yNSIgeT0iMjA4LjUzMTMiLz48dGV4dCBmaWxsPSIjMDAwMDAwIiBmb250LWZhbWlseT0ic2Fucy1zZXJpZiIgZm9udC1zaXplPSIxMiIgbGVuZ3RoQWRqdXN0PSJzcGFjaW5nIiB0ZXh0TGVuZ3RoPSIxODkiIHg9IjI2Ny4yNSIgeT0iMjI5Ljg3NSI+SW5pdGlhbGl6ZSBlbXB0eSBleHBsb3JlZCBzZXQ8L3RleHQ+PHJlY3QgZmlsbD0iIzg3Q0VGQSIgaGVpZ2h0PSI0NS42ODc1IiByeD0iMTIuNSIgcnk9IjEyLjUiIHN0eWxlPSJzdHJva2U6IzAwQkZGRjtzdHJva2Utd2lkdGg6MC41OyIgd2lkdGg9IjI2MSIgeD0iMjMxLjI1IiB5PSIyNjEuMzc1Ii8+PHRleHQgZmlsbD0iIzAwMDAwMCIgZm9udC1mYW1pbHk9InNhbnMtc2VyaWYiIGZvbnQtc2l6ZT0iMTIiIGxlbmd0aEFkanVzdD0ic3BhY2luZyIgdGV4dExlbmd0aD0iMjQxIiB4PSIyNDEuMjUiIHk9IjI4Mi43MTg4Ij5Jbml0aWFsaXplIHNob3J0ZXN0X3BhdGhzIGRpY3Rpb25hcnk6PC90ZXh0Pjx0ZXh0IGZpbGw9IiMwMDAwMDAiIGZvbnQtZmFtaWx5PSJzYW5zLXNlcmlmIiBmb250LXNpemU9IjEyIiBsZW5ndGhBZGp1c3Q9InNwYWNpbmciIHRleHRMZW5ndGg9IjE3MSIgeD0iMjQxLjI1IiB5PSIyOTUuNTYyNSI+c2hvcnRlc3RfcGF0aHNbc291cmNlXSA9IDA8L3RleHQ+PHJlY3QgZmlsbD0iIzg3Q0VGQSIgaGVpZ2h0PSIzMi44NDM4IiByeD0iMTIuNSIgcnk9IjEyLjUiIHN0eWxlPSJzdHJva2U6IzAwQkZGRjtzdHJva2Utd2lkdGg6MC41OyIgd2lkdGg9IjE3OCIgeD0iMjcyLjc1IiB5PSIzODIuOTYwOSIvPjx0ZXh0IGZpbGw9IiMwMDAwMDAiIGZvbnQtZmFtaWx5PSJzYW5zLXNlcmlmIiBmb250LXNpemU9IjEyIiBsZW5ndGhBZGp1c3Q9InNwYWNpbmciIHRleHRMZW5ndGg9IjE1OCIgeD0iMjgyLjc1IiB5PSI0MDQuMzA0NyI+bm9kZSA9IGZyb250aWVyLnJlbW92ZSgpPC90ZXh0Pjxwb2x5Z29uIGZpbGw9IiM4N0NFRkEiIHBvaW50cz0iMjk5LjI1LDQzNS44MDQ3LDQyNC4yNSw0MzUuODA0Nyw0MzYuMjUsNDQ3LjgwNDcsNDI0LjI1LDQ1OS44MDQ3LDI5OS4yNSw0NTkuODA0NywyODcuMjUsNDQ3LjgwNDcsMjk5LjI1LDQzNS44MDQ3IiBzdHlsZT0ic3Ryb2tlOiMwMEJGRkY7c3Ryb2tlLXdpZHRoOjAuNTsiLz48dGV4dCBmaWxsPSIjMDAwMDAwIiBmb250LWZhbWlseT0ic2Fucy1zZXJpZiIgZm9udC1zaXplPSIxMSIgbGVuZ3RoQWRqdXN0PSJzcGFjaW5nIiB0ZXh0TGVuZ3RoPSIxMjUiIHg9IjI5OS4yNSIgeT0iNDUyLjMxNjQiPm5vZGUuc3RhdGUgPT0gdGFyZ2V0PzwvdGV4dD48dGV4dCBmaWxsPSIjMDAwMDAwIiBmb250LWZhbWlseT0ic2Fucy1zZXJpZiIgZm9udC1zaXplPSIxMSIgbGVuZ3RoQWRqdXN0PSJzcGFjaW5nIiB0ZXh0TGVuZ3RoPSIxOCIgeD0iMjY5LjI1IiB5PSI0NDYuNDI5NyI+eWVzPC90ZXh0Pjx0ZXh0IGZpbGw9IiMwMDAwMDAiIGZvbnQtZmFtaWx5PSJzYW5zLXNlcmlmIiBmb250LXNpemU9IjExIiBsZW5ndGhBZGp1c3Q9InNwYWNpbmciIHRleHRMZW5ndGg9IjEyIiB4PSI0MzYuMjUiIHk9IjQ0Ni40Mjk3Ij5ubzwvdGV4dD48cmVjdCBmaWxsPSIjODdDRUZBIiBoZWlnaHQ9IjMyLjg0MzgiIHJ4PSIxMi41IiByeT0iMTIuNSIgc3R5bGU9InN0cm9rZTojMDBCRkZGO3N0cm9rZS13aWR0aDowLjU7IiB3aWR0aD0iMTg2IiB4PSI5Mi41IiB5PSI0NjkuODA0NyIvPjx0ZXh0IGZpbGw9IiMwMDAwMDAiIGZvbnQtZmFtaWx5PSJzYW5zLXNlcmlmIiBmb250LXNpemU9IjEyIiBsZW5ndGhBZGp1c3Q9InNwYWNpbmciIHRleHRMZW5ndGg9IjE2NiIgeD0iMTAyLjUiIHk9IjQ5MS4xNDg0Ij5Jbml0aWFsaXplIGVtcHR5IHBhdGggbGlzdDwvdGV4dD48cmVjdCBmaWxsPSIjODdDRUZBIiBoZWlnaHQ9IjMyLjg0MzgiIHJ4PSIxMi41IiByeT0iMTIuNSIgc3R5bGU9InN0cm9rZTojMDBCRkZGO3N0cm9rZS13aWR0aDowLjU7IiB3aWR0aD0iMjYzIiB4PSI1NCIgeT0iNTc4LjU0NjkiLz48dGV4dCBmaWxsPSIjMDAwMDAwIiBmb250LWZhbWlseT0ic2Fucy1zZXJpZiIgZm9udC1zaXplPSIxMiIgbGVuZ3RoQWRqdXN0PSJzcGFjaW5nIiB0ZXh0TGVuZ3RoPSIyNDMiIHg9IjY0IiB5PSI1OTkuODkwNiI+QWRkIChub2RlLmFjdGlvbiwgbm9kZS5zdGF0ZSkgdG8gcGF0aDwvdGV4dD48cmVjdCBmaWxsPSIjODdDRUZBIiBoZWlnaHQ9IjMyLjg0MzgiIHJ4PSIxMi41IiByeT0iMTIuNSIgc3R5bGU9InN0cm9rZTojMDBCRkZGO3N0cm9rZS13aWR0aDowLjU7IiB3aWR0aD0iMTQxIiB4PSIxMTUiIHk9IjY0NS40MjU4Ii8+PHRleHQgZmlsbD0iIzAwMDAwMCIgZm9udC1mYW1pbHk9InNhbnMtc2VyaWYiIGZvbnQtc2l6ZT0iMTIiIGxlbmd0aEFkanVzdD0ic3BhY2luZyIgdGV4dExlbmd0aD0iMTIxIiB4PSIxMjUiIHk9IjY2Ni43Njk1Ij5ub2RlID0gbm9kZS5wYXJlbnQ8L3RleHQ+PHBvbHlnb24gZmlsbD0iIzg3Q0VGQSIgcG9pbnRzPSIxMjYsNTIyLjY0ODQsMjQ1LDUyMi42NDg0LDI1Nyw1MzQuNjQ4NCwyNDUsNTQ2LjY0ODQsMTI2LDU0Ni42NDg0LDExNCw1MzQuNjQ4NCwxMjYsNTIyLjY0ODQiIHN0eWxlPSJzdHJva2U6IzAwQkZGRjtzdHJva2Utd2lkdGg6MC41OyIvPjx0ZXh0IGZpbGw9IiMwMDAwMDAiIGZvbnQtZmFtaWx5PSJzYW5zLXNlcmlmIiBmb250LXNpemU9IjExIiBsZW5ndGhBZGp1c3Q9InNwYWNpbmciIHRleHRMZW5ndGg9IjE4IiB4PSIxODkuNSIgeT0iNTU3LjA0NjkiPnllczwvdGV4dD48dGV4dCBmaWxsPSIjMDAwMDAwIiBmb250LWZhbWlseT0ic2Fucy1zZXJpZiIgZm9udC1zaXplPSIxMSIgbGVuZ3RoQWRqdXN0PSJzcGFjaW5nIiB0ZXh0TGVuZ3RoPSIxMTkiIHg9IjEyNiIgeT0iNTM5LjE2MDIiPm5vZGUucGFyZW50ICE9IE5vbmU/PC90ZXh0Pjx0ZXh0IGZpbGw9IiMwMDAwMDAiIGZvbnQtZmFtaWx5PSJzYW5zLXNlcmlmIiBmb250LXNpemU9IjExIiBsZW5ndGhBZGp1c3Q9InNwYWNpbmciIHRleHRMZW5ndGg9IjEyIiB4PSIxMDIiIHk9IjUzMy4yNzM0Ij5ubzwvdGV4dD48cmVjdCBmaWxsPSIjODdDRUZBIiBoZWlnaHQ9IjMyLjg0MzgiIHJ4PSIxMi41IiByeT0iMTIuNSIgc3R5bGU9InN0cm9rZTojMDBCRkZGO3N0cm9rZS13aWR0aDowLjU7IiB3aWR0aD0iMTAyIiB4PSIxMzQuNSIgeT0iNzM3LjI2OTUiLz48dGV4dCBmaWxsPSIjMDAwMDAwIiBmb250LWZhbWlseT0ic2Fucy1zZXJpZiIgZm9udC1zaXplPSIxMiIgbGVuZ3RoQWRqdXN0PSJzcGFjaW5nIiB0ZXh0TGVuZ3RoPSI4MiIgeD0iMTQ0LjUiIHk9Ijc1OC42MTMzIj5SZXZlcnNlIHBhdGg8L3RleHQ+PHJlY3QgZmlsbD0iIzg3Q0VGQSIgaGVpZ2h0PSIzMi44NDM4IiByeD0iMTIuNSIgcnk9IjEyLjUiIHN0eWxlPSJzdHJva2U6IzAwQkZGRjtzdHJva2Utd2lkdGg6MC41OyIgd2lkdGg9Ijk0IiB4PSIxMzguNSIgeT0iODA1LjExMzMiLz48dGV4dCBmaWxsPSIjMDAwMDAwIiBmb250LWZhbWlseT0ic2Fucy1zZXJpZiIgZm9udC1zaXplPSIxMiIgbGVuZ3RoQWRqdXN0PSJzcGFjaW5nIiB0ZXh0TGVuZ3RoPSI3NCIgeD0iMTQ4LjUiIHk9IjgyNi40NTciPlJldHVybiBwYXRoPC90ZXh0PjxlbGxpcHNlIGN4PSIxODUuNSIgY3k9Ijg4Mi45NTciIGZpbGw9Im5vbmUiIHJ4PSIxMCIgcnk9IjEwIiBzdHlsZT0ic3Ryb2tlOiMyMjIyMjI7c3Ryb2tlLXdpZHRoOjEuNTsiLz48bGluZSBzdHlsZT0ic3Ryb2tlOiMyMjIyMjI7c3Ryb2tlLXdpZHRoOjIuNTsiIHgxPSIxNzkuMzEyOCIgeDI9IjE5MS42ODcyIiB5MT0iODc2Ljc2OTgiIHkyPSI4ODkuMTQ0MiIvPjxsaW5lIHN0eWxlPSJzdHJva2U6IzIyMjIyMjtzdHJva2Utd2lkdGg6Mi41OyIgeDE9IjE5MS42ODcyIiB4Mj0iMTc5LjMxMjgiIHkxPSI4NzYuNzY5OCIgeTI9Ijg4OS4xNDQyIi8+PHJlY3QgZmlsbD0iIzg3Q0VGQSIgaGVpZ2h0PSIzMi44NDM4IiByeD0iMTIuNSIgcnk9IjEyLjUiIHN0eWxlPSJzdHJva2U6IzAwQkZGRjtzdHJva2Utd2lkdGg6MC41OyIgd2lkdGg9IjE5NCIgeD0iNDQxIiB5PSI0NjkuODA0NyIvPjx0ZXh0IGZpbGw9IiMwMDAwMDAiIGZvbnQtZmFtaWx5PSJzYW5zLXNlcmlmIiBmb250LXNpemU9IjEyIiBsZW5ndGhBZGp1c3Q9InNwYWNpbmciIHRleHRMZW5ndGg9IjE3NCIgeD0iNDUxIiB5PSI0OTEuMTQ4NCI+QWRkIG5vZGUuc3RhdGUgdG8gZXhwbG9yZWQ8L3RleHQ+PHJlY3QgZmlsbD0iIzg3Q0VGQSIgaGVpZ2h0PSI0NS42ODc1IiByeD0iMTIuNSIgcnk9IjEyLjUiIHN0eWxlPSJzdHJva2U6IzAwQkZGRjtzdHJva2Utd2lkdGg6MC41OyIgd2lkdGg9IjIxNyIgeD0iNDI5LjUiIHk9IjU3OC41NDY5Ii8+PHRleHQgZmlsbD0iIzAwMDAwMCIgZm9udC1mYW1pbHk9InNhbnMtc2VyaWYiIGZvbnQtc2l6ZT0iMTIiIGxlbmd0aEFkanVzdD0ic3BhY2luZyIgdGV4dExlbmd0aD0iMTc2IiB4PSI0MzkuNSIgeT0iNTk5Ljg5MDYiPkNhbGN1bGF0ZSBuZXdfcGF0aF9sZW5ndGggPTwvdGV4dD48dGV4dCBmaWxsPSIjMDAwMDAwIiBmb250LWZhbWlseT0ic2Fucy1zZXJpZiIgZm9udC1zaXplPSIxMiIgbGVuZ3RoQWRqdXN0PSJzcGFjaW5nIiB0ZXh0TGVuZ3RoPSIxOTciIHg9IjQzOS41IiB5PSI2MTIuNzM0NCI+c2hvcnRlc3RfcGF0aHNbbm9kZS5zdGF0ZV0gKyAxPC90ZXh0PjxyZWN0IGZpbGw9IiM4N0NFRkEiIGhlaWdodD0iMzIuODQzOCIgcng9IjEyLjUiIHJ5PSIxMi41IiBzdHlsZT0ic3Ryb2tlOiMwMEJGRkY7c3Ryb2tlLXdpZHRoOjAuNTsiIHdpZHRoPSIzMDQiIHg9IjM4NiIgeT0iNzE3LjU4OTgiLz48dGV4dCBmaWxsPSIjMDAwMDAwIiBmb250LWZhbWlseT0ic2Fucy1zZXJpZiIgZm9udC1zaXplPSIxMiIgbGVuZ3RoQWRqdXN0PSJzcGFjaW5nIiB0ZXh0TGVuZ3RoPSIyODQiIHg9IjM5NiIgeT0iNzM4LjkzMzYiPnNob3J0ZXN0X3BhdGhzW3BlcnNvbl9pZF0gPSBuZXdfcGF0aF9sZW5ndGg8L3RleHQ+PHJlY3QgZmlsbD0iIzg3Q0VGQSIgaGVpZ2h0PSIzMi44NDM4IiByeD0iMTIuNSIgcnk9IjEyLjUiIHN0eWxlPSJzdHJva2U6IzAwQkZGRjtzdHJva2Utd2lkdGg6MC41OyIgd2lkdGg9IjMxMCIgeD0iMzgzIiB5PSI3ODUuNDMzNiIvPjx0ZXh0IGZpbGw9IiMwMDAwMDAiIGZvbnQtZmFtaWx5PSJzYW5zLXNlcmlmIiBmb250LXNpemU9IjEyIiBsZW5ndGhBZGp1c3Q9InNwYWNpbmciIHRleHRMZW5ndGg9IjI5MCIgeD0iMzkzIiB5PSI4MDYuNzc3MyI+Q3JlYXRlIGNoaWxkIE5vZGUocGVyc29uX2lkLCBub2RlLCBtb3ZpZV9pZCk8L3RleHQ+PHJlY3QgZmlsbD0iIzg3Q0VGQSIgaGVpZ2h0PSIzMi44NDM4IiByeD0iMTIuNSIgcnk9IjEyLjUiIHN0eWxlPSJzdHJva2U6IzAwQkZGRjtzdHJva2Utd2lkdGg6MC41OyIgd2lkdGg9IjE1NyIgeD0iNDU5LjUiIHk9Ijg1My4yNzczIi8+PHRleHQgZmlsbD0iIzAwMDAwMCIgZm9udC1mYW1pbHk9InNhbnMtc2VyaWYiIGZvbnQtc2l6ZT0iMTIiIGxlbmd0aEFkanVzdD0ic3BhY2luZyIgdGV4dExlbmd0aD0iMTM3IiB4PSI0NjkuNSIgeT0iODc0LjYyMTEiPkFkZCBjaGlsZCB0byBmcm9udGllcjwvdGV4dD48cG9seWdvbiBmaWxsPSIjODdDRUZBIiBwb2ludHM9IjQwMyw2NTguMjY5NSw2NzMsNjU4LjI2OTUsNjg1LDY3NS45Mjk3LDY3Myw2OTMuNTg5OCw0MDMsNjkzLjU4OTgsMzkxLDY3NS45Mjk3LDQwMyw2NTguMjY5NSIgc3R5bGU9InN0cm9rZTojMDBCRkZGO3N0cm9rZS13aWR0aDowLjU7Ii8+PHRleHQgZmlsbD0iIzAwMDAwMCIgZm9udC1mYW1pbHk9InNhbnMtc2VyaWYiIGZvbnQtc2l6ZT0iMTEiIGxlbmd0aEFkanVzdD0ic3BhY2luZyIgdGV4dExlbmd0aD0iMTgiIHg9IjU0MiIgeT0iNzAzLjk4ODMiPnllczwvdGV4dD48dGV4dCBmaWxsPSIjMDAwMDAwIiBmb250LWZhbWlseT0ic2Fucy1zZXJpZiIgZm9udC1zaXplPSIxMSIgbGVuZ3RoQWRqdXN0PSJzcGFjaW5nIiB0ZXh0TGVuZ3RoPSIxNzQiIHg9IjQwMyIgeT0iNjY4LjY2OCI+cGVyc29uX2lkIG5vdCBpbiBleHBsb3JlZCBBTkQ8L3RleHQ+PHRleHQgZmlsbD0iIzAwMDAwMCIgZm9udC1mYW1pbHk9InNhbnMtc2VyaWYiIGZvbnQtc2l6ZT0iMTEiIGxlbmd0aEFkanVzdD0ic3BhY2luZyIgdGV4dExlbmd0aD0iMjEwIiB4PSI0MDMiIHk9IjY4MC40NDE0Ij4ocGVyc29uX2lkIG5vdCBpbiBzaG9ydGVzdF9wYXRocyBPUjwvdGV4dD48dGV4dCBmaWxsPSIjMDAwMDAwIiBmb250LWZhbWlseT0ic2Fucy1zZXJpZiIgZm9udC1zaXplPSIxMSIgbGVuZ3RoQWRqdXN0PSJzcGFjaW5nIiB0ZXh0TGVuZ3RoPSIyNzAiIHg9IjQwMyIgeT0iNjkyLjIxNDgiPm5ld19wYXRoX2xlbmd0aCAmbHQ7IHNob3J0ZXN0X3BhdGhzW3BlcnNvbl9pZF0pPzwvdGV4dD48cG9seWdvbiBmaWxsPSIjODdDRUZBIiBwb2ludHM9IjUzOCw5MTAuMTIxMSw1NTAsOTIyLjEyMTEsNTM4LDkzNC4xMjExLDUyNiw5MjIuMTIxMSw1MzgsOTEwLjEyMTEiIHN0eWxlPSJzdHJva2U6IzAwQkZGRjtzdHJva2Utd2lkdGg6MC41OyIvPjxwb2x5Z29uIGZpbGw9IiM4N0NFRkEiIHBvaW50cz0iNDM5LDUyMi42NDg0LDYzNyw1MjIuNjQ4NCw2NDksNTM0LjY0ODQsNjM3LDU0Ni42NDg0LDQzOSw1NDYuNjQ4NCw0MjcsNTM0LjY0ODQsNDM5LDUyMi42NDg0IiBzdHlsZT0ic3Ryb2tlOiMwMEJGRkY7c3Ryb2tlLXdpZHRoOjAuNTsiLz48dGV4dCBmaWxsPSIjMDAwMDAwIiBmb250LWZhbWlseT0ic2Fucy1zZXJpZiIgZm9udC1zaXplPSIxMSIgbGVuZ3RoQWRqdXN0PSJzcGFjaW5nIiB0ZXh0TGVuZ3RoPSI3OCIgeD0iNTQyIiB5PSI1NTcuMDQ2OSI+bmV4dCBuZWlnaGJvcjwvdGV4dD48dGV4dCBmaWxsPSIjMDAwMDAwIiBmb250LWZhbWlseT0ic2Fucy1zZXJpZiIgZm9udC1zaXplPSIxMSIgbGVuZ3RoQWRqdXN0PSJzcGFjaW5nIiB0ZXh0TGVuZ3RoPSIxOTgiIHg9IjQzOSIgeT0iNTMzLjI3MzQiPkZvciBlYWNoIChtb3ZpZV9pZCwgcGVyc29uX2lkKSBpbjwvdGV4dD48dGV4dCBmaWxsPSIjMDAwMDAwIiBmb250LWZhbWlseT0ic2Fucy1zZXJpZiIgZm9udC1zaXplPSIxMSIgbGVuZ3RoQWRqdXN0PSJzcGFjaW5nIiB0ZXh0TGVuZ3RoPSIxOTEiIHg9IjQzOSIgeT0iNTQ1LjA0NjkiPm5laWdoYm9yc19mb3JfcGVyc29uKG5vZGUuc3RhdGUpPC90ZXh0Pjx0ZXh0IGZpbGw9IiMwMDAwMDAiIGZvbnQtZmFtaWx5PSJzYW5zLXNlcmlmIiBmb250LXNpemU9IjExIiBsZW5ndGhBZGp1c3Q9InNwYWNpbmciIHRleHRMZW5ndGg9IjI0IiB4PSI0MDMiIHk9IjUzMy4yNzM0Ij5kb25lPC90ZXh0Pjxwb2x5Z29uIGZpbGw9IiM4N0NFRkEiIHBvaW50cz0iMzExLjI1LDMyNy4wNjI1LDQxMi4yNSwzMjcuMDYyNSw0MjQuMjUsMzM5LjA2MjUsNDEyLjI1LDM1MS4wNjI1LDMxMS4yNSwzNTEuMDYyNSwyOTkuMjUsMzM5LjA2MjUsMzExLjI1LDMyNy4wNjI1IiBzdHlsZT0ic3Ryb2tlOiMwMEJGRkY7c3Ryb2tlLXdpZHRoOjAuNTsiLz48dGV4dCBmaWxsPSIjMDAwMDAwIiBmb250LWZhbWlseT0ic2Fucy1zZXJpZiIgZm9udC1zaXplPSIxMSIgbGVuZ3RoQWRqdXN0PSJzcGFjaW5nIiB0ZXh0TGVuZ3RoPSIxMiIgeD0iMzY1Ljc1IiB5PSIzNjEuNDYwOSI+bm88L3RleHQ+PHRleHQgZmlsbD0iIzAwMDAwMCIgZm9udC1mYW1pbHk9InNhbnMtc2VyaWYiIGZvbnQtc2l6ZT0iMTEiIGxlbmd0aEFkanVzdD0ic3BhY2luZyIgdGV4dExlbmd0aD0iMTAxIiB4PSIzMTEuMjUiIHk9IjM0My41NzQyIj5mcm9udGllci5lbXB0eSgpPzwvdGV4dD48dGV4dCBmaWxsPSIjMDAwMDAwIiBmb250LWZhbWlseT0ic2Fucy1zZXJpZiIgZm9udC1zaXplPSIxMSIgbGVuZ3RoQWRqdXN0PSJzcGFjaW5nIiB0ZXh0TGVuZ3RoPSIxOCIgeD0iMjgxLjI1IiB5PSIzMzcuNjg3NSI+eWVzPC90ZXh0PjxyZWN0IGZpbGw9IiM4N0NFRkEiIGhlaWdodD0iMzIuODQzOCIgcng9IjEyLjUiIHJ5PSIxMi41IiBzdHlsZT0ic3Ryb2tlOiMwMEJGRkY7c3Ryb2tlLXdpZHRoOjAuNTsiIHdpZHRoPSI5NSIgeD0iMzE0LjI1IiB5PSI5OTguMTIxMSIvPjx0ZXh0IGZpbGw9IiMwMDAwMDAiIGZvbnQtZmFtaWx5PSJzYW5zLXNlcmlmIiBmb250LXNpemU9IjEyIiBsZW5ndGhBZGp1c3Q9InNwYWNpbmciIHRleHRMZW5ndGg9Ijc1IiB4PSIzMjQuMjUiIHk9IjEwMTkuNDY0OCI+UmV0dXJuIE5vbmU8L3RleHQ+PGVsbGlwc2UgY3g9IjM2MS43NSIgY3k9IjEwNjEuOTY0OCIgZmlsbD0ibm9uZSIgcng9IjExIiByeT0iMTEiIHN0eWxlPSJzdHJva2U6IzIyMjIyMjtzdHJva2Utd2lkdGg6MS4wOyIvPjxlbGxpcHNlIGN4PSIzNjEuNzUiIGN5PSIxMDYxLjk2NDgiIGZpbGw9IiMyMjIyMjIiIHJ4PSI2IiByeT0iNiIgc3R5bGU9InN0cm9rZTojMjIyMjIyO3N0cm9rZS13aWR0aDoxLjA7Ii8+PGxpbmUgc3R5bGU9InN0cm9rZTojMDBCRkZGO3N0cm9rZS13aWR0aDoxLjA7IiB4MT0iMzYxLjc1IiB4Mj0iMzYxLjc1IiB5MT0iMzAiIHkyPSI1MCIvPjxwb2x5Z29uIGZpbGw9IiMwMEJGRkYiIHBvaW50cz0iMzU3Ljc1LDQwLDM2MS43NSw1MCwzNjUuNzUsNDAsMzYxLjc1LDQ0IiBzdHlsZT0ic3Ryb2tlOiMwMEJGRkY7c3Ryb2tlLXdpZHRoOjEuMDsiLz48bGluZSBzdHlsZT0ic3Ryb2tlOiMwMEJGRkY7c3Ryb2tlLXdpZHRoOjEuMDsiIHgxPSIzNjEuNzUiIHgyPSIzNjEuNzUiIHkxPSI4Mi44NDM4IiB5Mj0iMTAyLjg0MzgiLz48cG9seWdvbiBmaWxsPSIjMDBCRkZGIiBwb2ludHM9IjM1Ny43NSw5Mi44NDM4LDM2MS43NSwxMDIuODQzOCwzNjUuNzUsOTIuODQzOCwzNjEuNzUsOTYuODQzOCIgc3R5bGU9InN0cm9rZTojMDBCRkZGO3N0cm9rZS13aWR0aDoxLjA7Ii8+PGxpbmUgc3R5bGU9InN0cm9rZTojMDBCRkZGO3N0cm9rZS13aWR0aDoxLjA7IiB4MT0iMzYxLjc1IiB4Mj0iMzYxLjc1IiB5MT0iMTM1LjY4NzUiIHkyPSIxNTUuNjg3NSIvPjxwb2x5Z29uIGZpbGw9IiMwMEJGRkYiIHBvaW50cz0iMzU3Ljc1LDE0NS42ODc1LDM2MS43NSwxNTUuNjg3NSwzNjUuNzUsMTQ1LjY4NzUsMzYxLjc1LDE0OS42ODc1IiBzdHlsZT0ic3Ryb2tlOiMwMEJGRkY7c3Ryb2tlLXdpZHRoOjEuMDsiLz48bGluZSBzdHlsZT0ic3Ryb2tlOiMwMEJGRkY7c3Ryb2tlLXdpZHRoOjEuMDsiIHgxPSIzNjEuNzUiIHgyPSIzNjEuNzUiIHkxPSIxODguNTMxMyIgeTI9IjIwOC41MzEzIi8+PHBvbHlnb24gZmlsbD0iIzAwQkZGRiIgcG9pbnRzPSIzNTcuNzUsMTk4LjUzMTMsMzYxLjc1LDIwOC41MzEzLDM2NS43NSwxOTguNTMxMywzNjEuNzUsMjAyLjUzMTMiIHN0eWxlPSJzdHJva2U6IzAwQkZGRjtzdHJva2Utd2lkdGg6MS4wOyIvPjxsaW5lIHN0eWxlPSJzdHJva2U6IzAwQkZGRjtzdHJva2Utd2lkdGg6MS4wOyIgeDE9IjM2MS43NSIgeDI9IjM2MS43NSIgeTE9IjI0MS4zNzUiIHkyPSIyNjEuMzc1Ii8+PHBvbHlnb24gZmlsbD0iIzAwQkZGRiIgcG9pbnRzPSIzNTcuNzUsMjUxLjM3NSwzNjEuNzUsMjYxLjM3NSwzNjUuNzUsMjUxLjM3NSwzNjEuNzUsMjU1LjM3NSIgc3R5bGU9InN0cm9rZTojMDBCRkZGO3N0cm9rZS13aWR0aDoxLjA7Ii8+PGxpbmUgc3R5bGU9InN0cm9rZTojMDBCRkZGO3N0cm9rZS13aWR0aDoxLjA7IiB4MT0iMTg1LjUiIHgyPSIxODUuNSIgeTE9IjYxMS4zOTA2IiB5Mj0iNjQ1LjQyNTgiLz48cG9seWdvbiBmaWxsPSIjMDBCRkZGIiBwb2ludHM9IjE4MS41LDYzNS40MjU4LDE4NS41LDY0NS40MjU4LDE4OS41LDYzNS40MjU4LDE4NS41LDYzOS40MjU4IiBzdHlsZT0ic3Ryb2tlOiMwMEJGRkY7c3Ryb2tlLXdpZHRoOjEuMDsiLz48bGluZSBzdHlsZT0ic3Ryb2tlOiMwMEJGRkY7c3Ryb2tlLXdpZHRoOjEuMDsiIHgxPSIxODUuNSIgeDI9IjE4NS41IiB5MT0iNTQ2LjY0ODQiIHkyPSI1NzguNTQ2OSIvPjxwb2x5Z29uIGZpbGw9IiMwMEJGRkYiIHBvaW50cz0iMTgxLjUsNTY4LjU0NjksMTg1LjUsNTc4LjU0NjksMTg5LjUsNTY4LjU0NjksMTg1LjUsNTcyLjU0NjkiIHN0eWxlPSJzdHJva2U6IzAwQkZGRjtzdHJva2Utd2lkdGg6MS4wOyIvPjxsaW5lIHN0eWxlPSJzdHJva2U6IzAwQkZGRjtzdHJva2Utd2lkdGg6MS4wOyIgeDE9IjE4NS41IiB4Mj0iMTg1LjUiIHkxPSI2NzguMjY5NSIgeTI9IjY5MC4yNjk1Ii8+PGxpbmUgc3R5bGU9InN0cm9rZTojMDBCRkZGO3N0cm9rZS13aWR0aDoxLjA7IiB4MT0iMTg1LjUiIHgyPSIzMjkiIHkxPSI2OTAuMjY5NSIgeTI9IjY5MC4yNjk1Ii8+PHBvbHlnb24gZmlsbD0iIzAwQkZGRiIgcG9pbnRzPSIzMjUsNjIxLjAwMzksMzI5LDYxMS4wMDM5LDMzMyw2MjEuMDAzOSwzMjksNjE3LjAwMzkiIHN0eWxlPSJzdHJva2U6IzAwQkZGRjtzdHJva2Utd2lkdGg6MS4wOyIvPjxsaW5lIHN0eWxlPSJzdHJva2U6IzAwQkZGRjtzdHJva2Utd2lkdGg6MS4wOyIgeDE9IjMyOSIgeDI9IjMyOSIgeTE9IjUzNC42NDg0IiB5Mj0iNjkwLjI2OTUiLz48bGluZSBzdHlsZT0ic3Ryb2tlOiMwMEJGRkY7c3Ryb2tlLXdpZHRoOjEuMDsiIHgxPSIzMjkiIHgyPSIyNTciIHkxPSI1MzQuNjQ4NCIgeTI9IjUzNC42NDg0Ii8+PHBvbHlnb24gZmlsbD0iIzAwQkZGRiIgcG9pbnRzPSIyNjcsNTMwLjY0ODQsMjU3LDUzNC42NDg0LDI2Nyw1MzguNjQ4NCwyNjMsNTM0LjY0ODQiIHN0eWxlPSJzdHJva2U6IzAwQkZGRjtzdHJva2Utd2lkdGg6MS4wOyIvPjxsaW5lIHN0eWxlPSJzdHJva2U6IzAwQkZGRjtzdHJva2Utd2lkdGg6MS4wOyIgeDE9IjExNCIgeDI9IjQyIiB5MT0iNTM0LjY0ODQiIHkyPSI1MzQuNjQ4NCIvPjxwb2x5Z29uIGZpbGw9IiMwMEJGRkYiIHBvaW50cz0iMzgsNjA3LjAwMzksNDIsNjE3LjAwMzksNDYsNjA3LjAwMzksNDIsNjExLjAwMzkiIHN0eWxlPSJzdHJva2U6IzAwQkZGRjtzdHJva2Utd2lkdGg6MS4wOyIvPjxsaW5lIHN0eWxlPSJzdHJva2U6IzAwQkZGRjtzdHJva2Utd2lkdGg6MS4wOyIgeDE9IjQyIiB4Mj0iNDIiIHkxPSI1MzQuNjQ4NCIgeTI9IjcwMi4yNjk1Ii8+PGxpbmUgc3R5bGU9InN0cm9rZTojMDBCRkZGO3N0cm9rZS13aWR0aDoxLjA7IiB4MT0iNDIiIHgyPSIxODUuNSIgeTE9IjcwMi4yNjk1IiB5Mj0iNzAyLjI2OTUiLz48bGluZSBzdHlsZT0ic3Ryb2tlOiMwMEJGRkY7c3Ryb2tlLXdpZHRoOjEuMDsiIHgxPSIxODUuNSIgeDI9IjE4NS41IiB5MT0iNzAyLjI2OTUiIHkyPSI3MzcuMjY5NSIvPjxwb2x5Z29uIGZpbGw9IiMwMEJGRkYiIHBvaW50cz0iMTgxLjUsNzI3LjI2OTUsMTg1LjUsNzM3LjI2OTUsMTg5LjUsNzI3LjI2OTUsMTg1LjUsNzMxLjI2OTUiIHN0eWxlPSJzdHJva2U6IzAwQkZGRjtzdHJva2Utd2lkdGg6MS4wOyIvPjxsaW5lIHN0eWxlPSJzdHJva2U6IzAwQkZGRjtzdHJva2Utd2lkdGg6MS4wOyIgeDE9IjE4NS41IiB4Mj0iMTg1LjUiIHkxPSI1MDIuNjQ4NCIgeTI9IjUyMi42NDg0Ii8+PHBvbHlnb24gZmlsbD0iIzAwQkZGRiIgcG9pbnRzPSIxODEuNSw1MTIuNjQ4NCwxODUuNSw1MjIuNjQ4NCwxODkuNSw1MTIuNjQ4NCwxODUuNSw1MTYuNjQ4NCIgc3R5bGU9InN0cm9rZTojMDBCRkZGO3N0cm9rZS13aWR0aDoxLjA7Ii8+PGxpbmUgc3R5bGU9InN0cm9rZTojMDBCRkZGO3N0cm9rZS13aWR0aDoxLjA7IiB4MT0iMTg1LjUiIHgyPSIxODUuNSIgeTE9Ijc3MC4xMTMzIiB5Mj0iODA1LjExMzMiLz48cG9seWdvbiBmaWxsPSIjMDBCRkZGIiBwb2ludHM9IjE4MS41LDc5NS4xMTMzLDE4NS41LDgwNS4xMTMzLDE4OS41LDc5NS4xMTMzLDE4NS41LDc5OS4xMTMzIiBzdHlsZT0ic3Ryb2tlOiMwMEJGRkY7c3Ryb2tlLXdpZHRoOjEuMDsiLz48bGluZSBzdHlsZT0ic3Ryb2tlOiMwMEJGRkY7c3Ryb2tlLXdpZHRoOjEuMDsiIHgxPSIxODUuNSIgeDI9IjE4NS41IiB5MT0iODM3Ljk1NyIgeTI9Ijg3Mi45NTciLz48cG9seWdvbiBmaWxsPSIjMDBCRkZGIiBwb2ludHM9IjE4MS41LDg2Mi45NTcsMTg1LjUsODcyLjk1NywxODkuNSw4NjIuOTU3LDE4NS41LDg2Ni45NTciIHN0eWxlPSJzdHJva2U6IzAwQkZGRjtzdHJva2Utd2lkdGg6MS4wOyIvPjxsaW5lIHN0eWxlPSJzdHJva2U6IzAwQkZGRjtzdHJva2Utd2lkdGg6MS4wOyIgeDE9IjUzOCIgeDI9IjUzOCIgeTE9Ijc1MC40MzM2IiB5Mj0iNzg1LjQzMzYiLz48cG9seWdvbiBmaWxsPSIjMDBCRkZGIiBwb2ludHM9IjUzNCw3NzUuNDMzNiw1MzgsNzg1LjQzMzYsNTQyLDc3NS40MzM2LDUzOCw3NzkuNDMzNiIgc3R5bGU9InN0cm9rZTojMDBCRkZGO3N0cm9rZS13aWR0aDoxLjA7Ii8+PGxpbmUgc3R5bGU9InN0cm9rZTojMDBCRkZGO3N0cm9rZS13aWR0aDoxLjA7IiB4MT0iNTM4IiB4Mj0iNTM4IiB5MT0iODE4LjI3NzMiIHkyPSI4NTMuMjc3MyIvPjxwb2x5Z29uIGZpbGw9IiMwMEJGRkYiIHBvaW50cz0iNTM0LDg0My4yNzczLDUzOCw4NTMuMjc3Myw1NDIsODQzLjI3NzMsNTM4LDg0Ny4yNzczIiBzdHlsZT0ic3Ryb2tlOiMwMEJGRkY7c3Ryb2tlLXdpZHRoOjEuMDsiLz48bGluZSBzdHlsZT0ic3Ryb2tlOiMwMEJGRkY7c3Ryb2tlLXdpZHRoOjEuMDsiIHgxPSI1MzgiIHgyPSI1MzgiIHkxPSI2OTMuNTg5OCIgeTI9IjcxNy41ODk4Ii8+PHBvbHlnb24gZmlsbD0iIzAwQkZGRiIgcG9pbnRzPSI1MzQsNzA3LjU4OTgsNTM4LDcxNy41ODk4LDU0Miw3MDcuNTg5OCw1MzgsNzExLjU4OTgiIHN0eWxlPSJzdHJva2U6IzAwQkZGRjtzdHJva2Utd2lkdGg6MS4wOyIvPjxsaW5lIHN0eWxlPSJzdHJva2U6IzAwQkZGRjtzdHJva2Utd2lkdGg6MS4wOyIgeDE9IjY4NSIgeDI9IjcwMyIgeTE9IjY3NS45Mjk3IiB5Mj0iNjc1LjkyOTciLz48cG9seWdvbiBmaWxsPSIjMDBCRkZGIiBwb2ludHM9IjY5OSw3ODkuMDI1NCw3MDMsNzk5LjAyNTQsNzA3LDc4OS4wMjU0LDcwMyw3OTMuMDI1NCIgc3R5bGU9InN0cm9rZTojMDBCRkZGO3N0cm9rZS13aWR0aDoxLjA7Ii8+PGxpbmUgc3R5bGU9InN0cm9rZTojMDBCRkZGO3N0cm9rZS13aWR0aDoxLjA7IiB4MT0iNzAzIiB4Mj0iNzAzIiB5MT0iNjc1LjkyOTciIHkyPSI5MjIuMTIxMSIvPjxsaW5lIHN0eWxlPSJzdHJva2U6IzAwQkZGRjtzdHJva2Utd2lkdGg6MS4wOyIgeDE9IjcwMyIgeDI9IjU1MCIgeTE9IjkyMi4xMjExIiB5Mj0iOTIyLjEyMTEiLz48cG9seWdvbiBmaWxsPSIjMDBCRkZGIiBwb2ludHM9IjU2MCw5MTguMTIxMSw1NTAsOTIyLjEyMTEsNTYwLDkyNi4xMjExLDU1Niw5MjIuMTIxMSIgc3R5bGU9InN0cm9rZTojMDBCRkZGO3N0cm9rZS13aWR0aDoxLjA7Ii8+PGxpbmUgc3R5bGU9InN0cm9rZTojMDBCRkZGO3N0cm9rZS13aWR0aDoxLjA7IiB4MT0iNTM4IiB4Mj0iNTM4IiB5MT0iODg2LjEyMTEiIHkyPSI5MTAuMTIxMSIvPjxwb2x5Z29uIGZpbGw9IiMwMEJGRkYiIHBvaW50cz0iNTM0LDkwMC4xMjExLDUzOCw5MTAuMTIxMSw1NDIsOTAwLjEyMTEsNTM4LDkwNC4xMjExIiBzdHlsZT0ic3Ryb2tlOiMwMEJGRkY7c3Ryb2tlLXdpZHRoOjEuMDsiLz48bGluZSBzdHlsZT0ic3Ryb2tlOiMwMEJGRkY7c3Ryb2tlLXdpZHRoOjEuMDsiIHgxPSI1MzgiIHgyPSI1MzgiIHkxPSI2MjQuMjM0NCIgeTI9IjY1OC4yNjk1Ii8+PHBvbHlnb24gZmlsbD0iIzAwQkZGRiIgcG9pbnRzPSI1MzQsNjQ4LjI2OTUsNTM4LDY1OC4yNjk1LDU0Miw2NDguMjY5NSw1MzgsNjUyLjI2OTUiIHN0eWxlPSJzdHJva2U6IzAwQkZGRjtzdHJva2Utd2lkdGg6MS4wOyIvPjxsaW5lIHN0eWxlPSJzdHJva2U6IzAwQkZGRjtzdHJva2Utd2lkdGg6MS4wOyIgeDE9IjUzOCIgeDI9IjUzOCIgeTE9IjU0Ni42NDg0IiB5Mj0iNTc4LjU0NjkiLz48cG9seWdvbiBmaWxsPSIjMDBCRkZGIiBwb2ludHM9IjUzNCw1NjguNTQ2OSw1MzgsNTc4LjU0NjksNTQyLDU2OC41NDY5LDUzOCw1NzIuNTQ2OSIgc3R5bGU9InN0cm9rZTojMDBCRkZGO3N0cm9rZS13aWR0aDoxLjA7Ii8+PGxpbmUgc3R5bGU9InN0cm9rZTojMDBCRkZGO3N0cm9rZS13aWR0aDoxLjA7IiB4MT0iNTM4IiB4Mj0iNTM4IiB5MT0iOTM0LjEyMTEiIHkyPSI5NDQuMTIxMSIvPjxsaW5lIHN0eWxlPSJzdHJva2U6IzAwQkZGRjtzdHJva2Utd2lkdGg6MS4wOyIgeDE9IjUzOCIgeDI9IjcyMSIgeTE9Ijk0NC4xMjExIiB5Mj0iOTQ0LjEyMTEiLz48cG9seWdvbiBmaWxsPSIjMDBCRkZGIiBwb2ludHM9IjcxNyw3NDcuOTY0OCw3MjEsNzM3Ljk2NDgsNzI1LDc0Ny45NjQ4LDcyMSw3NDMuOTY0OCIgc3R5bGU9InN0cm9rZTojMDBCRkZGO3N0cm9rZS13aWR0aDoxLjA7Ii8+PGxpbmUgc3R5bGU9InN0cm9rZTojMDBCRkZGO3N0cm9rZS13aWR0aDoxLjA7IiB4MT0iNzIxIiB4Mj0iNzIxIiB5MT0iNTM0LjY0ODQiIHkyPSI5NDQuMTIxMSIvPjxsaW5lIHN0eWxlPSJzdHJva2U6IzAwQkZGRjtzdHJva2Utd2lkdGg6MS4wOyIgeDE9IjcyMSIgeDI9IjY0OSIgeTE9IjUzNC42NDg0IiB5Mj0iNTM0LjY0ODQiLz48cG9seWdvbiBmaWxsPSIjMDBCRkZGIiBwb2ludHM9IjY1OSw1MzAuNjQ4NCw2NDksNTM0LjY0ODQsNjU5LDUzOC42NDg0LDY1NSw1MzQuNjQ4NCIgc3R5bGU9InN0cm9rZTojMDBCRkZGO3N0cm9rZS13aWR0aDoxLjA7Ii8+PGxpbmUgc3R5bGU9InN0cm9rZTojMDBCRkZGO3N0cm9rZS13aWR0aDoxLjA7IiB4MT0iNDI3IiB4Mj0iMzYxIiB5MT0iNTM0LjY0ODQiIHkyPSI1MzQuNjQ4NCIvPjxwb2x5Z29uIGZpbGw9IiMwMEJGRkYiIHBvaW50cz0iMzU3LDczNi45NjQ4LDM2MSw3NDYuOTY0OCwzNjUsNzM2Ljk2NDgsMzYxLDc0MC45NjQ4IiBzdHlsZT0ic3Ryb2tlOiMwMEJGRkY7c3Ryb2tlLXdpZHRoOjEuMDsiLz48bGluZSBzdHlsZT0ic3Ryb2tlOiMwMEJGRkY7c3Ryb2tlLXdpZHRoOjEuMDsiIHgxPSIzNjEiIHgyPSIzNjEiIHkxPSI1MzQuNjQ4NCIgeTI9Ijk2MS4xMjExIi8+PGxpbmUgc3R5bGU9InN0cm9rZTojMDBCRkZGO3N0cm9rZS13aWR0aDoxLjA7IiB4MT0iMzYxIiB4Mj0iNzQzIiB5MT0iOTYxLjEyMTEiIHkyPSI5NjEuMTIxMSIvPjxsaW5lIHN0eWxlPSJzdHJva2U6IzAwQkZGRjtzdHJva2Utd2lkdGg6MS4wOyIgeDE9Ijc0MyIgeDI9Ijc0MyIgeTE9IjMzOS4wNjI1IiB5Mj0iOTYxLjEyMTEiLz48bGluZSBzdHlsZT0ic3Ryb2tlOiMwMEJGRkY7c3Ryb2tlLXdpZHRoOjEuMDsiIHgxPSI3NDMiIHgyPSI0MjQuMjUiIHkxPSIzMzkuMDYyNSIgeTI9IjMzOS4wNjI1Ii8+PHBvbHlnb24gZmlsbD0iIzAwQkZGRiIgcG9pbnRzPSI0MzQuMjUsMzM1LjA2MjUsNDI0LjI1LDMzOS4wNjI1LDQzNC4yNSwzNDMuMDYyNSw0MzAuMjUsMzM5LjA2MjUiIHN0eWxlPSJzdHJva2U6IzAwQkZGRjtzdHJva2Utd2lkdGg6MS4wOyIvPjxsaW5lIHN0eWxlPSJzdHJva2U6IzAwQkZGRjtzdHJva2Utd2lkdGg6MS4wOyIgeDE9IjUzOCIgeDI9IjUzOCIgeTE9IjUwMi42NDg0IiB5Mj0iNTIyLjY0ODQiLz48cG9seWdvbiBmaWxsPSIjMDBCRkZGIiBwb2ludHM9IjUzNCw1MTIuNjQ4NCw1MzgsNTIyLjY0ODQsNTQyLDUxMi42NDg0LDUzOCw1MTYuNjQ4NCIgc3R5bGU9InN0cm9rZTojMDBCRkZGO3N0cm9rZS13aWR0aDoxLjA7Ii8+PGxpbmUgc3R5bGU9InN0cm9rZTojMDBCRkZGO3N0cm9rZS13aWR0aDoxLjA7IiB4MT0iMjg3LjI1IiB4Mj0iMTg1LjUiIHkxPSI0NDcuODA0NyIgeTI9IjQ0Ny44MDQ3Ii8+PGxpbmUgc3R5bGU9InN0cm9rZTojMDBCRkZGO3N0cm9rZS13aWR0aDoxLjA7IiB4MT0iMTg1LjUiIHgyPSIxODUuNSIgeTE9IjQ0Ny44MDQ3IiB5Mj0iNDY5LjgwNDciLz48cG9seWdvbiBmaWxsPSIjMDBCRkZGIiBwb2ludHM9IjE4MS41LDQ1OS44MDQ3LDE4NS41LDQ2OS44MDQ3LDE4OS41LDQ1OS44MDQ3LDE4NS41LDQ2My44MDQ3IiBzdHlsZT0ic3Ryb2tlOiMwMEJGRkY7c3Ryb2tlLXdpZHRoOjEuMDsiLz48bGluZSBzdHlsZT0ic3Ryb2tlOiMwMEJGRkY7c3Ryb2tlLXdpZHRoOjEuMDsiIHgxPSI0MzYuMjUiIHgyPSI1MzgiIHkxPSI0NDcuODA0NyIgeTI9IjQ0Ny44MDQ3Ii8+PGxpbmUgc3R5bGU9InN0cm9rZTojMDBCRkZGO3N0cm9rZS13aWR0aDoxLjA7IiB4MT0iNTM4IiB4Mj0iNTM4IiB5MT0iNDQ3LjgwNDciIHkyPSI0NjkuODA0NyIvPjxwb2x5Z29uIGZpbGw9IiMwMEJGRkYiIHBvaW50cz0iNTM0LDQ1OS44MDQ3LDUzOCw0NjkuODA0Nyw1NDIsNDU5LjgwNDcsNTM4LDQ2My44MDQ3IiBzdHlsZT0ic3Ryb2tlOiMwMEJGRkY7c3Ryb2tlLXdpZHRoOjEuMDsiLz48bGluZSBzdHlsZT0ic3Ryb2tlOiMwMEJGRkY7c3Ryb2tlLXdpZHRoOjEuMDsiIHgxPSIzNjEuNzUiIHgyPSIzNjEuNzUiIHkxPSI0MTUuODA0NyIgeTI9IjQzNS44MDQ3Ii8+PHBvbHlnb24gZmlsbD0iIzAwQkZGRiIgcG9pbnRzPSIzNTcuNzUsNDI1LjgwNDcsMzYxLjc1LDQzNS44MDQ3LDM2NS43NSw0MjUuODA0NywzNjEuNzUsNDI5LjgwNDciIHN0eWxlPSJzdHJva2U6IzAwQkZGRjtzdHJva2Utd2lkdGg6MS4wOyIvPjxsaW5lIHN0eWxlPSJzdHJva2U6IzAwQkZGRjtzdHJva2Utd2lkdGg6MS4wOyIgeDE9IjM2MS43NSIgeDI9IjM2MS43NSIgeTE9IjM1MS4wNjI1IiB5Mj0iMzgyLjk2MDkiLz48cG9seWdvbiBmaWxsPSIjMDBCRkZGIiBwb2ludHM9IjM1Ny43NSwzNzIuOTYwOSwzNjEuNzUsMzgyLjk2MDksMzY1Ljc1LDM3Mi45NjA5LDM2MS43NSwzNzYuOTYwOSIgc3R5bGU9InN0cm9rZTojMDBCRkZGO3N0cm9rZS13aWR0aDoxLjA7Ii8+PGxpbmUgc3R5bGU9InN0cm9rZTojMDBCRkZGO3N0cm9rZS13aWR0aDoxLjA7IiB4MT0iMjk5LjI1IiB4Mj0iMjQiIHkxPSIzMzkuMDYyNSIgeTI9IjMzOS4wNjI1Ii8+PHBvbHlnb24gZmlsbD0iIzAwQkZGRiIgcG9pbnRzPSIyMCw2MzQuMjM0NCwyNCw2NDQuMjM0NCwyOCw2MzQuMjM0NCwyNCw2MzguMjM0NCIgc3R5bGU9InN0cm9rZTojMDBCRkZGO3N0cm9rZS13aWR0aDoxLjA7Ii8+PGxpbmUgc3R5bGU9InN0cm9rZTojMDBCRkZGO3N0cm9rZS13aWR0aDoxLjA7IiB4MT0iMjQiIHgyPSIyNCIgeTE9IjMzOS4wNjI1IiB5Mj0iOTc4LjEyMTEiLz48bGluZSBzdHlsZT0ic3Ryb2tlOiMwMEJGRkY7c3Ryb2tlLXdpZHRoOjEuMDsiIHgxPSIyNCIgeDI9IjM2MS43NSIgeTE9Ijk3OC4xMjExIiB5Mj0iOTc4LjEyMTEiLz48bGluZSBzdHlsZT0ic3Ryb2tlOiMwMEJGRkY7c3Ryb2tlLXdpZHRoOjEuMDsiIHgxPSIzNjEuNzUiIHgyPSIzNjEuNzUiIHkxPSI5NzguMTIxMSIgeTI9Ijk5OC4xMjExIi8+PHBvbHlnb24gZmlsbD0iIzAwQkZGRiIgcG9pbnRzPSIzNTcuNzUsOTg4LjEyMTEsMzYxLjc1LDk5OC4xMjExLDM2NS43NSw5ODguMTIxMSwzNjEuNzUsOTkyLjEyMTEiIHN0eWxlPSJzdHJva2U6IzAwQkZGRjtzdHJva2Utd2lkdGg6MS4wOyIvPjxsaW5lIHN0eWxlPSJzdHJva2U6IzAwQkZGRjtzdHJva2Utd2lkdGg6MS4wOyIgeDE9IjM2MS43NSIgeDI9IjM2MS43NSIgeTE9IjMwNy4wNjI1IiB5Mj0iMzI3LjA2MjUiLz48cG9seWdvbiBmaWxsPSIjMDBCRkZGIiBwb2ludHM9IjM1Ny43NSwzMTcuMDYyNSwzNjEuNzUsMzI3LjA2MjUsMzY1Ljc1LDMxNy4wNjI1LDM2MS43NSwzMjEuMDYyNSIgc3R5bGU9InN0cm9rZTojMDBCRkZGO3N0cm9rZS13aWR0aDoxLjA7Ii8+PGxpbmUgc3R5bGU9InN0cm9rZTojMDBCRkZGO3N0cm9rZS13aWR0aDoxLjA7IiB4MT0iMzYxLjc1IiB4Mj0iMzYxLjc1IiB5MT0iMTAzMC45NjQ4IiB5Mj0iMTA1MC45NjQ4Ii8+PHBvbHlnb24gZmlsbD0iIzAwQkZGRiIgcG9pbnRzPSIzNTcuNzUsMTA0MC45NjQ4LDM2MS43NSwxMDUwLjk2NDgsMzY1Ljc1LDEwNDAuOTY0OCwzNjEuNzUsMTA0NC45NjQ4IiBzdHlsZT0ic3Ryb2tlOiMwMEJGRkY7c3Ryb2tlLXdpZHRoOjEuMDsiLz48IS0tU1JDPVtUTEhEWnplbTRCdHhMcW5sWU9mR1V1TDY1U2lBZ0xBckxSVjcxSTRKM3lHWVoyRlJXUUxMX3RsN1NSdTBiR0NWVUpGRnh4cVB1dXdRQWNkYjJMbVhiUmJlRWkxVWJXdzV3djZUcDh5N1FzZklJckNRMnZUMi1wNi1pRFBTOGxJQ01GcXdOZl9BVWJtV1N3X0ZzYl9YWm0xdWtjRnhoVy01eHRlT0RiUVhWTUczTTFkb3lWY2tQMHhuTG1aZGZWTDJwOU9NZktUZVZpQUJLUFd1S3ppUzlfbzNzbFRxQmNSVkk3aWpJX3FSMEt5TDJfZlBPdXFob3ltUUJIU2liNmZQWTVkMDZ6V0Z1NEN0bGJTaTF4YTVfSXRrMmNDekVoLWpmMnlTQUNxOTY5QnNFWEV0cTVpS2tlNENGaXM1dTZYQlhBR3hURGdTYXdIVkt6MEU0WjhmdnAxaGY2TXppZ2Q1YXBiWm1XT1ByVmpHZnQzQURaWUlCMEVzU3EzRjVCdjBXa0lBQmgwbXB1RVZlMFhBeFRYQ0E2WjVENm15STJHRjd4OGNvclBGSnlMYThSYk9BWGtsNG5YS2YyNzhHM3hsZ2JpQjgtZTg4UWQtcjVSYkF2eEhFWHByeW9EVk1uZXp1SlItSDV4UktNREdENGcyOU5KcFlhclpab2xVQWZIdjBHYjdnTjZockdHZ0ZqT0dWc01wajJQMk5qSVRpTXd4RHRPUm1MN0lRSmlZVkVWVFFLbHhTOVFvcEVpb2cyMnlEOEZWYmFXN0paalJxenIyMzlHUi0wWVZjdzY2TG5YaUJ1Y0RVTE9yUkUzWXZOYkRaX1pUN2x2dTNKdms1Tm92QXRoaElKUmZ1ejhxVGx4UjQ0UHdJcHlWa2pmQmNkRllBYnhJbFo0a29tSXd5RERITW5YWnhCY3ZaSDdibVVsenRVUWVTRGI1WG10RjZtLVlNdndtbmxGbTNzQWdWbTAwXS0tPjwvZz48L3N2Zz4=;" parent="1" vertex="1">
            <mxGeometry x="50" y="-220" width="755" height="1083" as="geometry" />
          </mxCell>
        </UserObject>
      </root>
    </mxGraphModel>
  </diagram>
  <diagram name="Copy of Page-2" id="fRhYx8n1IpFF-YUYwm0j">
    <mxGraphModel dx="1106" dy="1713" grid="1" gridSize="10" guides="1" tooltips="1" connect="1" arrows="1" fold="1" page="1" pageScale="1" pageWidth="850" pageHeight="1100" math="0" shadow="0">
      <root>
        <mxCell id="KHU4US2tGuuYrZfUwwJg-0" />
        <mxCell id="KHU4US2tGuuYrZfUwwJg-1" parent="KHU4US2tGuuYrZfUwwJg-0" />
        <UserObject label="" plantUmlData="{&quot;data&quot;:&quot;@startuml\nskinparam shadowing false\nskinparam backgroundColor white\nskinparam ArrowColor DeepSkyBlue\nskinparam activity {\n  BackgroundColor LightSkyBlue\n  BorderColor DeepSkyBlue\n  FontColor black\n}\n\nstart\n\npartition \&quot;Initialize\&quot; {\n  :&#39;initialize_frontiers&#39;:\n  Create start_frontier &amp; goal_frontier\n  Add source node to start_frontier\n  Add target node to goal_frontier;\n\n  :&#39;initialize_explored_dicts&#39;:\n  Create start_explored with source:None\n  Create goal_explored with target:None;\n}\n\nwhile (start_frontier and goal_frontier\\nnot empty?) is (yes)\n  partition \&quot;Forward Search\&quot; {\n    :result = search_step(\n      start_frontier,\n      start_explored,\n      goal_explored,\n      \&quot;forward\&quot;);\n    \n    if (result found?) then (yes)\n      :Return path;\n      end\n    endif\n  }\n\n  partition \&quot;Backward Search\&quot; {\n    :result = search_step(\n      goal_frontier,\n      goal_explored,\n      start_explored,\n      \&quot;backward\&quot;);\n      \n    if (result found?) then (yes)\n      :Return path;\n      end\n    endif\n  }\nendwhile (no)\n\n:Return None;\nstop\n\npartition \&quot;search_step\&quot; {\n  start\n  if (frontier empty?) then (yes)\n    :Return None;\n    end\n  endif\n  \n  :node = frontier.remove();\n  :explored[node.state] = node;\n  \n  if (node.state in other_explored?) then (yes)\n    :Build bidirectional path;\n    :Return path;\n    end\n  else (no)\n    while (For each neighbor) is (next)\n      if (neighbor not in explored AND\\nnot in frontier?) then (yes)\n        :Create child node;\n        :Add to frontier;\n      endif\n    endwhile (done)\n  endif\n  :Return None;\n  end\n}\n\npartition \&quot;build_path\&quot; {\n  start\n  :Initialize path_forward[];\n  while (node_forward.parent exists?) is (yes)\n    :Add (action, state) to path_forward;\n    :Move to parent;\n  endwhile (no)\n  :Reverse path_forward;\n\n  :Initialize path_backward[];\n  while (node_backward.parent exists?) is (yes)\n    :Add (action, state) to path_backward;\n    :Move to parent;\n  endwhile (no)\n\n  if (direction == \&quot;forward\&quot;?) then (yes)\n    :Return path_forward + path_backward;\n  else (no)\n    :Return path_backward + path_forward;\n  endif\n  end\n}\n\n@enduml&quot;,&quot;format&quot;:&quot;svg&quot;}" id="KHU4US2tGuuYrZfUwwJg-2">
          <mxCell style="shape=image;noLabel=1;verticalAlign=top;aspect=fixed;imageAspect=0;image=data:image/svg+xml,PD94bWwgdmVyc2lvbj0iMS4wIiBlbmNvZGluZz0idXMtYXNjaWkiIHN0YW5kYWxvbmU9Im5vIj8+PHN2ZyB4bWxucz0iaHR0cDovL3d3dy53My5vcmcvMjAwMC9zdmciIHhtbG5zOnhsaW5rPSJodHRwOi8vd3d3LnczLm9yZy8xOTk5L3hsaW5rIiBjb250ZW50U3R5bGVUeXBlPSJ0ZXh0L2NzcyIgaGVpZ2h0PSIyNTgwcHgiIHByZXNlcnZlQXNwZWN0UmF0aW89Im5vbmUiIHN0eWxlPSJ3aWR0aDo1NjhweDtoZWlnaHQ6MjU4MHB4O2JhY2tncm91bmQ6I0ZGRkZGRjsiIHZlcnNpb249IjEuMSIgdmlld0JveD0iMCAwIDU2OCAyNTgwIiB3aWR0aD0iNTY4cHgiIHpvb21BbmRQYW49Im1hZ25pZnkiPjxkZWZzLz48Zz48ZWxsaXBzZSBjeD0iMjg0IiBjeT0iMjAiIGZpbGw9IiMyMjIyMjIiIHJ4PSIxMCIgcnk9IjEwIiBzdHlsZT0ic3Ryb2tlOiMyMjIyMjI7c3Ryb2tlLXdpZHRoOjEuMDsiLz48cmVjdCBmaWxsPSJub25lIiBoZWlnaHQ9IjE5Ni44OTA2IiBzdHlsZT0ic3Ryb2tlOiMwMDAwMDA7c3Ryb2tlLXdpZHRoOjEuNTsiIHdpZHRoPSIyOTMiIHg9IjEzNy41IiB5PSI0MCIvPjxwYXRoIGQ9Ik0yMTcuNSw0MCBMMjE3LjUsNDcuOTg0NCBMMjA3LjUsNTcuOTg0NCBMMTM3LjUsNTcuOTg0NCAiIGZpbGw9Im5vbmUiIHN0eWxlPSJzdHJva2U6IzAwMDAwMDtzdHJva2Utd2lkdGg6MS41OyIvPjx0ZXh0IGZpbGw9IiMwMDAwMDAiIGZvbnQtZmFtaWx5PSJzYW5zLXNlcmlmIiBmb250LXNpemU9IjE0IiBsZW5ndGhBZGp1c3Q9InNwYWNpbmciIHRleHRMZW5ndGg9IjcwIiB4PSIxNDAuNSIgeT0iNTQuMjM0NCI+SW5pdGlhbGl6ZTwvdGV4dD48cmVjdCBmaWxsPSIjODdDRUZBIiBoZWlnaHQ9IjcxLjM3NSIgcng9IjEyLjUiIHJ5PSIxMi41IiBzdHlsZT0ic3Ryb2tlOiMwMEJGRkY7c3Ryb2tlLXdpZHRoOjAuNTsiIHdpZHRoPSIyNjQiIHg9IjE1MiIgeT0iNzQuOTg0NCIvPjx0ZXh0IGZpbGw9IiMwMDAwMDAiIGZvbnQtZmFtaWx5PSJzYW5zLXNlcmlmIiBmb250LXNpemU9IjEyIiBsZW5ndGhBZGp1c3Q9InNwYWNpbmciIHRleHRMZW5ndGg9IjE0NyIgeD0iMTYyIiB5PSI5Ni4zMjgxIj4naW5pdGlhbGl6ZV9mcm9udGllcnMnOjwvdGV4dD48dGV4dCBmaWxsPSIjMDAwMDAwIiBmb250LWZhbWlseT0ic2Fucy1zZXJpZiIgZm9udC1zaXplPSIxMiIgbGVuZ3RoQWRqdXN0PSJzcGFjaW5nIiB0ZXh0TGVuZ3RoPSIyNDQiIHg9IjE2MiIgeT0iMTA5LjE3MTkiPkNyZWF0ZSBzdGFydF9mcm9udGllciAmYW1wOyBnb2FsX2Zyb250aWVyPC90ZXh0Pjx0ZXh0IGZpbGw9IiMwMDAwMDAiIGZvbnQtZmFtaWx5PSJzYW5zLXNlcmlmIiBmb250LXNpemU9IjEyIiBsZW5ndGhBZGp1c3Q9InNwYWNpbmciIHRleHRMZW5ndGg9IjIxOSIgeD0iMTYyIiB5PSIxMjIuMDE1NiI+QWRkIHNvdXJjZSBub2RlIHRvIHN0YXJ0X2Zyb250aWVyPC90ZXh0Pjx0ZXh0IGZpbGw9IiMwMDAwMDAiIGZvbnQtZmFtaWx5PSJzYW5zLXNlcmlmIiBmb250LXNpemU9IjEyIiBsZW5ndGhBZGp1c3Q9InNwYWNpbmciIHRleHRMZW5ndGg9IjIxMiIgeD0iMTYyIiB5PSIxMzQuODU5NCI+QWRkIHRhcmdldCBub2RlIHRvIGdvYWxfZnJvbnRpZXI8L3RleHQ+PHJlY3QgZmlsbD0iIzg3Q0VGQSIgaGVpZ2h0PSI1OC41MzEzIiByeD0iMTIuNSIgcnk9IjEyLjUiIHN0eWxlPSJzdHJva2U6IzAwQkZGRjtzdHJva2Utd2lkdGg6MC41OyIgd2lkdGg9IjI3MyIgeD0iMTQ3LjUiIHk9IjE2Ni4zNTk0Ii8+PHRleHQgZmlsbD0iIzAwMDAwMCIgZm9udC1mYW1pbHk9InNhbnMtc2VyaWYiIGZvbnQtc2l6ZT0iMTIiIGxlbmd0aEFkanVzdD0ic3BhY2luZyIgdGV4dExlbmd0aD0iMTgwIiB4PSIxNTcuNSIgeT0iMTg3LjcwMzEiPidpbml0aWFsaXplX2V4cGxvcmVkX2RpY3RzJzo8L3RleHQ+PHRleHQgZmlsbD0iIzAwMDAwMCIgZm9udC1mYW1pbHk9InNhbnMtc2VyaWYiIGZvbnQtc2l6ZT0iMTIiIGxlbmd0aEFkanVzdD0ic3BhY2luZyIgdGV4dExlbmd0aD0iMjUzIiB4PSIxNTcuNSIgeT0iMjAwLjU0NjkiPkNyZWF0ZSBzdGFydF9leHBsb3JlZCB3aXRoIHNvdXJjZTpOb25lPC90ZXh0Pjx0ZXh0IGZpbGw9IiMwMDAwMDAiIGZvbnQtZmFtaWx5PSJzYW5zLXNlcmlmIiBmb250LXNpemU9IjEyIiBsZW5ndGhBZGp1c3Q9InNwYWNpbmciIHRleHRMZW5ndGg9IjI0NiIgeD0iMTU3LjUiIHk9IjIxMy4zOTA2Ij5DcmVhdGUgZ29hbF9leHBsb3JlZCB3aXRoIHRhcmdldDpOb25lPC90ZXh0PjxyZWN0IGZpbGw9Im5vbmUiIGhlaWdodD0iMzA0LjUxMTciIHN0eWxlPSJzdHJva2U6IzAwMDAwMDtzdHJva2Utd2lkdGg6MS41OyIgd2lkdGg9IjE3OCIgeD0iMTk1IiB5PSIzMDIuNzg5MSIvPjxwYXRoIGQ9Ik0zMDQsMzAyLjc4OTEgTDMwNCwzMTAuNzczNCBMMjk0LDMyMC43NzM0IEwxOTUsMzIwLjc3MzQgIiBmaWxsPSJub25lIiBzdHlsZT0ic3Ryb2tlOiMwMDAwMDA7c3Ryb2tlLXdpZHRoOjEuNTsiLz48dGV4dCBmaWxsPSIjMDAwMDAwIiBmb250LWZhbWlseT0ic2Fucy1zZXJpZiIgZm9udC1zaXplPSIxNCIgbGVuZ3RoQWRqdXN0PSJzcGFjaW5nIiB0ZXh0TGVuZ3RoPSI5OSIgeD0iMTk4IiB5PSIzMTcuMDIzNCI+Rm9yd2FyZCBTZWFyY2g8L3RleHQ+PHJlY3QgZmlsbD0iIzg3Q0VGQSIgaGVpZ2h0PSI4NC4yMTg4IiByeD0iMTIuNSIgcnk9IjEyLjUiIHN0eWxlPSJzdHJva2U6IzAwQkZGRjtzdHJva2Utd2lkdGg6MC41OyIgd2lkdGg9IjE1OCIgeD0iMjA1IiB5PSIzMzcuNzczNCIvPjx0ZXh0IGZpbGw9IiMwMDAwMDAiIGZvbnQtZmFtaWx5PSJzYW5zLXNlcmlmIiBmb250LXNpemU9IjEyIiBsZW5ndGhBZGp1c3Q9InNwYWNpbmciIHRleHRMZW5ndGg9IjEzOCIgeD0iMjE1IiB5PSIzNTkuMTE3MiI+cmVzdWx0ID0gc2VhcmNoX3N0ZXAoPC90ZXh0Pjx0ZXh0IGZpbGw9IiMwMDAwMDAiIGZvbnQtZmFtaWx5PSJzYW5zLXNlcmlmIiBmb250LXNpemU9IjEyIiBsZW5ndGhBZGp1c3Q9InNwYWNpbmciIHRleHRMZW5ndGg9Ijk4IiB4PSIyMjciIHk9IjM3MS45NjA5Ij5zdGFydF9mcm9udGllciw8L3RleHQ+PHRleHQgZmlsbD0iIzAwMDAwMCIgZm9udC1mYW1pbHk9InNhbnMtc2VyaWYiIGZvbnQtc2l6ZT0iMTIiIGxlbmd0aEFkanVzdD0ic3BhY2luZyIgdGV4dExlbmd0aD0iMTAwIiB4PSIyMjciIHk9IjM4NC44MDQ3Ij5zdGFydF9leHBsb3JlZCw8L3RleHQ+PHRleHQgZmlsbD0iIzAwMDAwMCIgZm9udC1mYW1pbHk9InNhbnMtc2VyaWYiIGZvbnQtc2l6ZT0iMTIiIGxlbmd0aEFkanVzdD0ic3BhY2luZyIgdGV4dExlbmd0aD0iOTQiIHg9IjIyNyIgeT0iMzk3LjY0ODQiPmdvYWxfZXhwbG9yZWQsPC90ZXh0Pjx0ZXh0IGZpbGw9IiMwMDAwMDAiIGZvbnQtZmFtaWx5PSJzYW5zLXNlcmlmIiBmb250LXNpemU9IjEyIiBsZW5ndGhBZGp1c3Q9InNwYWNpbmciIHRleHRMZW5ndGg9IjY1IiB4PSIyMjciIHk9IjQxMC40OTIyIj4iZm9yd2FyZCIpPC90ZXh0PjxyZWN0IGZpbGw9IiM4N0NFRkEiIGhlaWdodD0iMzIuODQzOCIgcng9IjEyLjUiIHJ5PSIxMi41IiBzdHlsZT0ic3Ryb2tlOiMwMEJGRkY7c3Ryb2tlLXdpZHRoOjAuNTsiIHdpZHRoPSI5NCIgeD0iMjM3IiB5PSI0ODkuOTkyMiIvPjx0ZXh0IGZpbGw9IiMwMDAwMDAiIGZvbnQtZmFtaWx5PSJzYW5zLXNlcmlmIiBmb250LXNpemU9IjEyIiBsZW5ndGhBZGp1c3Q9InNwYWNpbmciIHRleHRMZW5ndGg9Ijc0IiB4PSIyNDciIHk9IjUxMS4zMzU5Ij5SZXR1cm4gcGF0aDwvdGV4dD48ZWxsaXBzZSBjeD0iMjg0IiBjeT0iNTYwLjkxNDEiIGZpbGw9Im5vbmUiIHJ4PSIxMCIgcnk9IjEwIiBzdHlsZT0ic3Ryb2tlOiMyMjIyMjI7c3Ryb2tlLXdpZHRoOjEuNTsiLz48bGluZSBzdHlsZT0ic3Ryb2tlOiMyMjIyMjI7c3Ryb2tlLXdpZHRoOjIuNTsiIHgxPSIyNzcuODEyOCIgeDI9IjI5MC4xODcyIiB5MT0iNTU0LjcyNjkiIHkyPSI1NjcuMTAxMiIvPjxsaW5lIHN0eWxlPSJzdHJva2U6IzIyMjIyMjtzdHJva2Utd2lkdGg6Mi41OyIgeDE9IjI5MC4xODcyIiB4Mj0iMjc3LjgxMjgiIHkxPSI1NTQuNzI2OSIgeTI9IjU2Ny4xMDEyIi8+PHBvbHlnb24gZmlsbD0iIzg3Q0VGQSIgcG9pbnRzPSIyNDUsNDQxLjk5MjIsMzIzLDQ0MS45OTIyLDMzNSw0NTMuOTkyMiwzMjMsNDY1Ljk5MjIsMjQ1LDQ2NS45OTIyLDIzMyw0NTMuOTkyMiwyNDUsNDQxLjk5MjIiIHN0eWxlPSJzdHJva2U6IzAwQkZGRjtzdHJva2Utd2lkdGg6MC41OyIvPjx0ZXh0IGZpbGw9IiMwMDAwMDAiIGZvbnQtZmFtaWx5PSJzYW5zLXNlcmlmIiBmb250LXNpemU9IjExIiBsZW5ndGhBZGp1c3Q9InNwYWNpbmciIHRleHRMZW5ndGg9IjE4IiB4PSIyODgiIHk9IjQ3Ni4zOTA2Ij55ZXM8L3RleHQ+PHRleHQgZmlsbD0iIzAwMDAwMCIgZm9udC1mYW1pbHk9InNhbnMtc2VyaWYiIGZvbnQtc2l6ZT0iMTEiIGxlbmd0aEFkanVzdD0ic3BhY2luZyIgdGV4dExlbmd0aD0iNzgiIHg9IjI0NSIgeT0iNDU4LjUwMzkiPnJlc3VsdCBmb3VuZD88L3RleHQ+PHJlY3QgZmlsbD0ibm9uZSIgaGVpZ2h0PSIyOTQuMDQ2OSIgc3R5bGU9InN0cm9rZTojMDAwMDAwO3N0cm9rZS13aWR0aDoxLjU7IiB3aWR0aD0iMTc4IiB4PSIxOTUiIHk9IjYyMi45MTQxIi8+PHBhdGggZD0iTTMxMSw2MjIuOTE0MSBMMzExLDYzMC44OTg0IEwzMDEsNjQwLjg5ODQgTDE5NSw2NDAuODk4NCAiIGZpbGw9Im5vbmUiIHN0eWxlPSJzdHJva2U6IzAwMDAwMDtzdHJva2Utd2lkdGg6MS41OyIvPjx0ZXh0IGZpbGw9IiMwMDAwMDAiIGZvbnQtZmFtaWx5PSJzYW5zLXNlcmlmIiBmb250LXNpemU9IjE0IiBsZW5ndGhBZGp1c3Q9InNwYWNpbmciIHRleHRMZW5ndGg9IjEwNiIgeD0iMTk4IiB5PSI2MzcuMTQ4NCI+QmFja3dhcmQgU2VhcmNoPC90ZXh0PjxyZWN0IGZpbGw9IiM4N0NFRkEiIGhlaWdodD0iODQuMjE4OCIgcng9IjEyLjUiIHJ5PSIxMi41IiBzdHlsZT0ic3Ryb2tlOiMwMEJGRkY7c3Ryb2tlLXdpZHRoOjAuNTsiIHdpZHRoPSIxNTgiIHg9IjIwNSIgeT0iNjU3Ljg5ODQiLz48dGV4dCBmaWxsPSIjMDAwMDAwIiBmb250LWZhbWlseT0ic2Fucy1zZXJpZiIgZm9udC1zaXplPSIxMiIgbGVuZ3RoQWRqdXN0PSJzcGFjaW5nIiB0ZXh0TGVuZ3RoPSIxMzgiIHg9IjIxNSIgeT0iNjc5LjI0MjIiPnJlc3VsdCA9IHNlYXJjaF9zdGVwKDwvdGV4dD48dGV4dCBmaWxsPSIjMDAwMDAwIiBmb250LWZhbWlseT0ic2Fucy1zZXJpZiIgZm9udC1zaXplPSIxMiIgbGVuZ3RoQWRqdXN0PSJzcGFjaW5nIiB0ZXh0TGVuZ3RoPSI5MiIgeD0iMjI3IiB5PSI2OTIuMDg1OSI+Z29hbF9mcm9udGllciw8L3RleHQ+PHRleHQgZmlsbD0iIzAwMDAwMCIgZm9udC1mYW1pbHk9InNhbnMtc2VyaWYiIGZvbnQtc2l6ZT0iMTIiIGxlbmd0aEFkanVzdD0ic3BhY2luZyIgdGV4dExlbmd0aD0iOTQiIHg9IjIyNyIgeT0iNzA0LjkyOTciPmdvYWxfZXhwbG9yZWQsPC90ZXh0Pjx0ZXh0IGZpbGw9IiMwMDAwMDAiIGZvbnQtZmFtaWx5PSJzYW5zLXNlcmlmIiBmb250LXNpemU9IjEyIiBsZW5ndGhBZGp1c3Q9InNwYWNpbmciIHRleHRMZW5ndGg9IjEwMCIgeD0iMjI3IiB5PSI3MTcuNzczNCI+c3RhcnRfZXhwbG9yZWQsPC90ZXh0Pjx0ZXh0IGZpbGw9IiMwMDAwMDAiIGZvbnQtZmFtaWx5PSJzYW5zLXNlcmlmIiBmb250LXNpemU9IjEyIiBsZW5ndGhBZGp1c3Q9InNwYWNpbmciIHRleHRMZW5ndGg9IjcxIiB4PSIyMjciIHk9IjczMC42MTcyIj4iYmFja3dhcmQiKTwvdGV4dD48cmVjdCBmaWxsPSIjODdDRUZBIiBoZWlnaHQ9IjMyLjg0MzgiIHJ4PSIxMi41IiByeT0iMTIuNSIgc3R5bGU9InN0cm9rZTojMDBCRkZGO3N0cm9rZS13aWR0aDowLjU7IiB3aWR0aD0iOTQiIHg9IjIzNyIgeT0iODEwLjExNzIiLz48dGV4dCBmaWxsPSIjMDAwMDAwIiBmb250LWZhbWlseT0ic2Fucy1zZXJpZiIgZm9udC1zaXplPSIxMiIgbGVuZ3RoQWRqdXN0PSJzcGFjaW5nIiB0ZXh0TGVuZ3RoPSI3NCIgeD0iMjQ3IiB5PSI4MzEuNDYwOSI+UmV0dXJuIHBhdGg8L3RleHQ+PGVsbGlwc2UgY3g9IjI4NCIgY3k9Ijg3Mi45NjA5IiBmaWxsPSJub25lIiByeD0iMTAiIHJ5PSIxMCIgc3R5bGU9InN0cm9rZTojMjIyMjIyO3N0cm9rZS13aWR0aDoxLjU7Ii8+PGxpbmUgc3R5bGU9InN0cm9rZTojMjIyMjIyO3N0cm9rZS13aWR0aDoyLjU7IiB4MT0iMjc3LjgxMjgiIHgyPSIyOTAuMTg3MiIgeTE9Ijg2Ni43NzM4IiB5Mj0iODc5LjE0ODEiLz48bGluZSBzdHlsZT0ic3Ryb2tlOiMyMjIyMjI7c3Ryb2tlLXdpZHRoOjIuNTsiIHgxPSIyOTAuMTg3MiIgeDI9IjI3Ny44MTI4IiB5MT0iODY2Ljc3MzgiIHkyPSI4NzkuMTQ4MSIvPjxwb2x5Z29uIGZpbGw9IiM4N0NFRkEiIHBvaW50cz0iMjQ1LDc2Mi4xMTcyLDMyMyw3NjIuMTE3MiwzMzUsNzc0LjExNzIsMzIzLDc4Ni4xMTcyLDI0NSw3ODYuMTE3MiwyMzMsNzc0LjExNzIsMjQ1LDc2Mi4xMTcyIiBzdHlsZT0ic3Ryb2tlOiMwMEJGRkY7c3Ryb2tlLXdpZHRoOjAuNTsiLz48dGV4dCBmaWxsPSIjMDAwMDAwIiBmb250LWZhbWlseT0ic2Fucy1zZXJpZiIgZm9udC1zaXplPSIxMSIgbGVuZ3RoQWRqdXN0PSJzcGFjaW5nIiB0ZXh0TGVuZ3RoPSIxOCIgeD0iMjg4IiB5PSI3OTYuNTE1NiI+eWVzPC90ZXh0Pjx0ZXh0IGZpbGw9IiMwMDAwMDAiIGZvbnQtZmFtaWx5PSJzYW5zLXNlcmlmIiBmb250LXNpemU9IjExIiBsZW5ndGhBZGp1c3Q9InNwYWNpbmciIHRleHRMZW5ndGg9Ijc4IiB4PSIyNDUiIHk9Ijc3OC42Mjg5Ij5yZXN1bHQgZm91bmQ/PC90ZXh0Pjxwb2x5Z29uIGZpbGw9IiM4N0NFRkEiIHBvaW50cz0iMTg4LDI1Ni44OTA2LDM4MCwyNTYuODkwNiwzOTIsMjY4Ljg5MDYsMzgwLDI4MC44OTA2LDE4OCwyODAuODkwNiwxNzYsMjY4Ljg5MDYsMTg4LDI1Ni44OTA2IiBzdHlsZT0ic3Ryb2tlOiMwMEJGRkY7c3Ryb2tlLXdpZHRoOjAuNTsiLz48dGV4dCBmaWxsPSIjMDAwMDAwIiBmb250LWZhbWlseT0ic2Fucy1zZXJpZiIgZm9udC1zaXplPSIxMSIgbGVuZ3RoQWRqdXN0PSJzcGFjaW5nIiB0ZXh0TGVuZ3RoPSIxOCIgeD0iMjg4IiB5PSIyOTEuMjg5MSI+eWVzPC90ZXh0Pjx0ZXh0IGZpbGw9IiMwMDAwMDAiIGZvbnQtZmFtaWx5PSJzYW5zLXNlcmlmIiBmb250LXNpemU9IjExIiBsZW5ndGhBZGp1c3Q9InNwYWNpbmciIHRleHRMZW5ndGg9IjE5MiIgeD0iMTg4IiB5PSIyNjcuNTE1NiI+c3RhcnRfZnJvbnRpZXIgYW5kIGdvYWxfZnJvbnRpZXI8L3RleHQ+PHRleHQgZmlsbD0iIzAwMDAwMCIgZm9udC1mYW1pbHk9InNhbnMtc2VyaWYiIGZvbnQtc2l6ZT0iMTEiIGxlbmd0aEFkanVzdD0ic3BhY2luZyIgdGV4dExlbmd0aD0iNjAiIHg9IjE4OCIgeT0iMjc5LjI4OTEiPm5vdCBlbXB0eT88L3RleHQ+PHRleHQgZmlsbD0iIzAwMDAwMCIgZm9udC1mYW1pbHk9InNhbnMtc2VyaWYiIGZvbnQtc2l6ZT0iMTEiIGxlbmd0aEFkanVzdD0ic3BhY2luZyIgdGV4dExlbmd0aD0iMTIiIHg9IjE2NCIgeT0iMjY3LjUxNTYiPm5vPC90ZXh0PjxyZWN0IGZpbGw9IiM4N0NFRkEiIGhlaWdodD0iMzIuODQzOCIgcng9IjEyLjUiIHJ5PSIxMi41IiBzdHlsZT0ic3Ryb2tlOiMwMEJGRkY7c3Ryb2tlLXdpZHRoOjAuNTsiIHdpZHRoPSI5NSIgeD0iMjM2LjUiIHk9Ijk1OC45NjA5Ii8+PHRleHQgZmlsbD0iIzAwMDAwMCIgZm9udC1mYW1pbHk9InNhbnMtc2VyaWYiIGZvbnQtc2l6ZT0iMTIiIGxlbmd0aEFkanVzdD0ic3BhY2luZyIgdGV4dExlbmd0aD0iNzUiIHg9IjI0Ni41IiB5PSI5ODAuMzA0NyI+UmV0dXJuIE5vbmU8L3RleHQ+PGVsbGlwc2UgY3g9IjI4NCIgY3k9IjEwMjIuODA0NyIgZmlsbD0ibm9uZSIgcng9IjExIiByeT0iMTEiIHN0eWxlPSJzdHJva2U6IzIyMjIyMjtzdHJva2Utd2lkdGg6MS4wOyIvPjxlbGxpcHNlIGN4PSIyODQiIGN5PSIxMDIyLjgwNDciIGZpbGw9IiMyMjIyMjIiIHJ4PSI2IiByeT0iNiIgc3R5bGU9InN0cm9rZTojMjIyMjIyO3N0cm9rZS13aWR0aDoxLjA7Ii8+PHJlY3QgZmlsbD0ibm9uZSIgaGVpZ2h0PSI3NTQuMDIzNCIgc3R5bGU9InN0cm9rZTojMDAwMDAwO3N0cm9rZS13aWR0aDoxLjU7IiB3aWR0aD0iNDc3IiB4PSI2MS4yNSIgeT0iMTA0My44MDQ3Ii8+PHBhdGggZD0iTTE0OC4yNSwxMDQzLjgwNDcgTDE0OC4yNSwxMDUxLjc4OTEgTDEzOC4yNSwxMDYxLjc4OTEgTDYxLjI1LDEwNjEuNzg5MSAiIGZpbGw9Im5vbmUiIHN0eWxlPSJzdHJva2U6IzAwMDAwMDtzdHJva2Utd2lkdGg6MS41OyIvPjx0ZXh0IGZpbGw9IiMwMDAwMDAiIGZvbnQtZmFtaWx5PSJzYW5zLXNlcmlmIiBmb250LXNpemU9IjE0IiBsZW5ndGhBZGp1c3Q9InNwYWNpbmciIHRleHRMZW5ndGg9Ijc3IiB4PSI2NC4yNSIgeT0iMTA1OC4wMzkxIj5zZWFyY2hfc3RlcDwvdGV4dD48ZWxsaXBzZSBjeD0iMjg0IiBjeT0iMTA4MS43ODkxIiBmaWxsPSIjMjIyMjIyIiByeD0iMTAiIHJ5PSIxMCIgc3R5bGU9InN0cm9rZTojMjIyMjIyO3N0cm9rZS13aWR0aDoxLjA7Ii8+PHJlY3QgZmlsbD0iIzg3Q0VGQSIgaGVpZ2h0PSIzMi44NDM4IiByeD0iMTIuNSIgcnk9IjEyLjUiIHN0eWxlPSJzdHJva2U6IzAwQkZGRjtzdHJva2Utd2lkdGg6MC41OyIgd2lkdGg9Ijk1IiB4PSIyMzYuNSIgeT0iMTE1OS43ODkxIi8+PHRleHQgZmlsbD0iIzAwMDAwMCIgZm9udC1mYW1pbHk9InNhbnMtc2VyaWYiIGZvbnQtc2l6ZT0iMTIiIGxlbmd0aEFkanVzdD0ic3BhY2luZyIgdGV4dExlbmd0aD0iNzUiIHg9IjI0Ni41IiB5PSIxMTgxLjEzMjgiPlJldHVybiBOb25lPC90ZXh0PjxlbGxpcHNlIGN4PSIyODQiIGN5PSIxMjMwLjcxMDkiIGZpbGw9Im5vbmUiIHJ4PSIxMCIgcnk9IjEwIiBzdHlsZT0ic3Ryb2tlOiMyMjIyMjI7c3Ryb2tlLXdpZHRoOjEuNTsiLz48bGluZSBzdHlsZT0ic3Ryb2tlOiMyMjIyMjI7c3Ryb2tlLXdpZHRoOjIuNTsiIHgxPSIyNzcuODEyOCIgeDI9IjI5MC4xODcyIiB5MT0iMTIyNC41MjM4IiB5Mj0iMTIzNi44OTgxIi8+PGxpbmUgc3R5bGU9InN0cm9rZTojMjIyMjIyO3N0cm9rZS13aWR0aDoyLjU7IiB4MT0iMjkwLjE4NzIiIHgyPSIyNzcuODEyOCIgeTE9IjEyMjQuNTIzOCIgeTI9IjEyMzYuODk4MSIvPjxwb2x5Z29uIGZpbGw9IiM4N0NFRkEiIHBvaW50cz0iMjM5LDExMTEuNzg5MSwzMjksMTExMS43ODkxLDM0MSwxMTIzLjc4OTEsMzI5LDExMzUuNzg5MSwyMzksMTEzNS43ODkxLDIyNywxMTIzLjc4OTEsMjM5LDExMTEuNzg5MSIgc3R5bGU9InN0cm9rZTojMDBCRkZGO3N0cm9rZS13aWR0aDowLjU7Ii8+PHRleHQgZmlsbD0iIzAwMDAwMCIgZm9udC1mYW1pbHk9InNhbnMtc2VyaWYiIGZvbnQtc2l6ZT0iMTEiIGxlbmd0aEFkanVzdD0ic3BhY2luZyIgdGV4dExlbmd0aD0iMTgiIHg9IjI4OCIgeT0iMTE0Ni4xODc1Ij55ZXM8L3RleHQ+PHRleHQgZmlsbD0iIzAwMDAwMCIgZm9udC1mYW1pbHk9InNhbnMtc2VyaWYiIGZvbnQtc2l6ZT0iMTEiIGxlbmd0aEFkanVzdD0ic3BhY2luZyIgdGV4dExlbmd0aD0iOTAiIHg9IjIzOSIgeT0iMTEyOC4zMDA4Ij5mcm9udGllciBlbXB0eT88L3RleHQ+PHJlY3QgZmlsbD0iIzg3Q0VGQSIgaGVpZ2h0PSIzMi44NDM4IiByeD0iMTIuNSIgcnk9IjEyLjUiIHN0eWxlPSJzdHJva2U6IzAwQkZGRjtzdHJva2Utd2lkdGg6MC41OyIgd2lkdGg9IjE3OCIgeD0iMTk1IiB5PSIxMjgyLjcxMDkiLz48dGV4dCBmaWxsPSIjMDAwMDAwIiBmb250LWZhbWlseT0ic2Fucy1zZXJpZiIgZm9udC1zaXplPSIxMiIgbGVuZ3RoQWRqdXN0PSJzcGFjaW5nIiB0ZXh0TGVuZ3RoPSIxNTgiIHg9IjIwNSIgeT0iMTMwNC4wNTQ3Ij5ub2RlID0gZnJvbnRpZXIucmVtb3ZlKCk8L3RleHQ+PHJlY3QgZmlsbD0iIzg3Q0VGQSIgaGVpZ2h0PSIzMi44NDM4IiByeD0iMTIuNSIgcnk9IjEyLjUiIHN0eWxlPSJzdHJva2U6IzAwQkZGRjtzdHJva2Utd2lkdGg6MC41OyIgd2lkdGg9IjIwMCIgeD0iMTg0IiB5PSIxMzM1LjU1NDciLz48dGV4dCBmaWxsPSIjMDAwMDAwIiBmb250LWZhbWlseT0ic2Fucy1zZXJpZiIgZm9udC1zaXplPSIxMiIgbGVuZ3RoQWRqdXN0PSJzcGFjaW5nIiB0ZXh0TGVuZ3RoPSIxODAiIHg9IjE5NCIgeT0iMTM1Ni44OTg0Ij5leHBsb3JlZFtub2RlLnN0YXRlXSA9IG5vZGU8L3RleHQ+PHBvbHlnb24gZmlsbD0iIzg3Q0VGQSIgcG9pbnRzPSIxOTcuNSwxMzg4LjM5ODQsMzcwLjUsMTM4OC4zOTg0LDM4Mi41LDE0MDAuMzk4NCwzNzAuNSwxNDEyLjM5ODQsMTk3LjUsMTQxMi4zOTg0LDE4NS41LDE0MDAuMzk4NCwxOTcuNSwxMzg4LjM5ODQiIHN0eWxlPSJzdHJva2U6IzAwQkZGRjtzdHJva2Utd2lkdGg6MC41OyIvPjx0ZXh0IGZpbGw9IiMwMDAwMDAiIGZvbnQtZmFtaWx5PSJzYW5zLXNlcmlmIiBmb250LXNpemU9IjExIiBsZW5ndGhBZGp1c3Q9InNwYWNpbmciIHRleHRMZW5ndGg9IjE3MyIgeD0iMTk3LjUiIHk9IjE0MDQuOTEwMiI+bm9kZS5zdGF0ZSBpbiBvdGhlcl9leHBsb3JlZD88L3RleHQ+PHRleHQgZmlsbD0iIzAwMDAwMCIgZm9udC1mYW1pbHk9InNhbnMtc2VyaWYiIGZvbnQtc2l6ZT0iMTEiIGxlbmd0aEFkanVzdD0ic3BhY2luZyIgdGV4dExlbmd0aD0iMTgiIHg9IjE2Ny41IiB5PSIxMzk5LjAyMzQiPnllczwvdGV4dD48dGV4dCBmaWxsPSIjMDAwMDAwIiBmb250LWZhbWlseT0ic2Fucy1zZXJpZiIgZm9udC1zaXplPSIxMSIgbGVuZ3RoQWRqdXN0PSJzcGFjaW5nIiB0ZXh0TGVuZ3RoPSIxMiIgeD0iMzgyLjUiIHk9IjEzOTkuMDIzNCI+bm88L3RleHQ+PHJlY3QgZmlsbD0iIzg3Q0VGQSIgaGVpZ2h0PSIzMi44NDM4IiByeD0iMTIuNSIgcnk9IjEyLjUiIHN0eWxlPSJzdHJva2U6IzAwQkZGRjtzdHJva2Utd2lkdGg6MC41OyIgd2lkdGg9IjE3NyIgeD0iODEuMjUiIHk9IjE0MjIuMzk4NCIvPjx0ZXh0IGZpbGw9IiMwMDAwMDAiIGZvbnQtZmFtaWx5PSJzYW5zLXNlcmlmIiBmb250LXNpemU9IjEyIiBsZW5ndGhBZGp1c3Q9InNwYWNpbmciIHRleHRMZW5ndGg9IjE1NyIgeD0iOTEuMjUiIHk9IjE0NDMuNzQyMiI+QnVpbGQgYmlkaXJlY3Rpb25hbCBwYXRoPC90ZXh0PjxyZWN0IGZpbGw9IiM4N0NFRkEiIGhlaWdodD0iMzIuODQzOCIgcng9IjEyLjUiIHJ5PSIxMi41IiBzdHlsZT0ic3Ryb2tlOiMwMEJGRkY7c3Ryb2tlLXdpZHRoOjAuNTsiIHdpZHRoPSI5NCIgeD0iMTIyLjc1IiB5PSIxNDg2LjM2NzIiLz48dGV4dCBmaWxsPSIjMDAwMDAwIiBmb250LWZhbWlseT0ic2Fucy1zZXJpZiIgZm9udC1zaXplPSIxMiIgbGVuZ3RoQWRqdXN0PSJzcGFjaW5nIiB0ZXh0TGVuZ3RoPSI3NCIgeD0iMTMyLjc1IiB5PSIxNTA3LjcxMDkiPlJldHVybiBwYXRoPC90ZXh0PjxlbGxpcHNlIGN4PSIxNjkuNzUiIGN5PSIxNTY0LjIxMDkiIGZpbGw9Im5vbmUiIHJ4PSIxMCIgcnk9IjEwIiBzdHlsZT0ic3Ryb2tlOiMyMjIyMjI7c3Ryb2tlLXdpZHRoOjEuNTsiLz48bGluZSBzdHlsZT0ic3Ryb2tlOiMyMjIyMjI7c3Ryb2tlLXdpZHRoOjIuNTsiIHgxPSIxNjMuNTYyOCIgeDI9IjE3NS45MzcyIiB5MT0iMTU1OC4wMjM4IiB5Mj0iMTU3MC4zOTgxIi8+PGxpbmUgc3R5bGU9InN0cm9rZTojMjIyMjIyO3N0cm9rZS13aWR0aDoyLjU7IiB4MT0iMTc1LjkzNzIiIHgyPSIxNjMuNTYyOCIgeTE9IjE1NTguMDIzOCIgeTI9IjE1NzAuMzk4MSIvPjxyZWN0IGZpbGw9IiM4N0NFRkEiIGhlaWdodD0iMzIuODQzOCIgcng9IjEyLjUiIHJ5PSIxMi41IiBzdHlsZT0ic3Ryb2tlOiMwMEJGRkY7c3Ryb2tlLXdpZHRoOjAuNTsiIHdpZHRoPSIxMzMiIHg9IjMzMS43NSIgeT0iMTUyNi4yOTY5Ii8+PHRleHQgZmlsbD0iIzAwMDAwMCIgZm9udC1mYW1pbHk9InNhbnMtc2VyaWYiIGZvbnQtc2l6ZT0iMTIiIGxlbmd0aEFkanVzdD0ic3BhY2luZyIgdGV4dExlbmd0aD0iMTEzIiB4PSIzNDEuNzUiIHk9IjE1NDcuNjQwNiI+Q3JlYXRlIGNoaWxkIG5vZGU8L3RleHQ+PHJlY3QgZmlsbD0iIzg3Q0VGQSIgaGVpZ2h0PSIzMi44NDM4IiByeD0iMTIuNSIgcnk9IjEyLjUiIHN0eWxlPSJzdHJva2U6IzAwQkZGRjtzdHJva2Utd2lkdGg6MC41OyIgd2lkdGg9IjExOSIgeD0iMzM4Ljc1IiB5PSIxNTk0LjE0MDYiLz48dGV4dCBmaWxsPSIjMDAwMDAwIiBmb250LWZhbWlseT0ic2Fucy1zZXJpZiIgZm9udC1zaXplPSIxMiIgbGVuZ3RoQWRqdXN0PSJzcGFjaW5nIiB0ZXh0TGVuZ3RoPSI5OSIgeD0iMzQ4Ljc1IiB5PSIxNjE1LjQ4NDQiPkFkZCB0byBmcm9udGllcjwvdGV4dD48cG9seWdvbiBmaWxsPSIjODdDRUZBIiBwb2ludHM9IjMxNC4yNSwxNDc4LjI5NjksNDgyLjI1LDE0NzguMjk2OSw0OTQuMjUsMTQ5MC4yOTY5LDQ4Mi4yNSwxNTAyLjI5NjksMzE0LjI1LDE1MDIuMjk2OSwzMDIuMjUsMTQ5MC4yOTY5LDMxNC4yNSwxNDc4LjI5NjkiIHN0eWxlPSJzdHJva2U6IzAwQkZGRjtzdHJva2Utd2lkdGg6MC41OyIvPjx0ZXh0IGZpbGw9IiMwMDAwMDAiIGZvbnQtZmFtaWx5PSJzYW5zLXNlcmlmIiBmb250LXNpemU9IjExIiBsZW5ndGhBZGp1c3Q9InNwYWNpbmciIHRleHRMZW5ndGg9IjE4IiB4PSI0MDIuMjUiIHk9IjE1MTIuNjk1MyI+eWVzPC90ZXh0Pjx0ZXh0IGZpbGw9IiMwMDAwMDAiIGZvbnQtZmFtaWx5PSJzYW5zLXNlcmlmIiBmb250LXNpemU9IjExIiBsZW5ndGhBZGp1c3Q9InNwYWNpbmciIHRleHRMZW5ndGg9IjE2OCIgeD0iMzE0LjI1IiB5PSIxNDg4LjkyMTkiPm5laWdoYm9yIG5vdCBpbiBleHBsb3JlZCBBTkQ8L3RleHQ+PHRleHQgZmlsbD0iIzAwMDAwMCIgZm9udC1mYW1pbHk9InNhbnMtc2VyaWYiIGZvbnQtc2l6ZT0iMTEiIGxlbmd0aEFkanVzdD0ic3BhY2luZyIgdGV4dExlbmd0aD0iOTYiIHg9IjMxNC4yNSIgeT0iMTUwMC42OTUzIj5ub3QgaW4gZnJvbnRpZXI/PC90ZXh0Pjxwb2x5Z29uIGZpbGw9IiM4N0NFRkEiIHBvaW50cz0iMzk4LjI1LDE2NDYuOTg0NCw0MTAuMjUsMTY1OC45ODQ0LDM5OC4yNSwxNjcwLjk4NDQsMzg2LjI1LDE2NTguOTg0NCwzOTguMjUsMTY0Ni45ODQ0IiBzdHlsZT0ic3Ryb2tlOiMwMEJGRkY7c3Ryb2tlLXdpZHRoOjAuNTsiLz48cG9seWdvbiBmaWxsPSIjODdDRUZBIiBwb2ludHM9IjM0Ny4yNSwxNDIyLjM5ODQsNDQ5LjI1LDE0MjIuMzk4NCw0NjEuMjUsMTQzNC4zOTg0LDQ0OS4yNSwxNDQ2LjM5ODQsMzQ3LjI1LDE0NDYuMzk4NCwzMzUuMjUsMTQzNC4zOTg0LDM0Ny4yNSwxNDIyLjM5ODQiIHN0eWxlPSJzdHJva2U6IzAwQkZGRjtzdHJva2Utd2lkdGg6MC41OyIvPjx0ZXh0IGZpbGw9IiMwMDAwMDAiIGZvbnQtZmFtaWx5PSJzYW5zLXNlcmlmIiBmb250LXNpemU9IjExIiBsZW5ndGhBZGp1c3Q9InNwYWNpbmciIHRleHRMZW5ndGg9IjI0IiB4PSI0MDIuMjUiIHk9IjE0NTYuNzk2OSI+bmV4dDwvdGV4dD48dGV4dCBmaWxsPSIjMDAwMDAwIiBmb250LWZhbWlseT0ic2Fucy1zZXJpZiIgZm9udC1zaXplPSIxMSIgbGVuZ3RoQWRqdXN0PSJzcGFjaW5nIiB0ZXh0TGVuZ3RoPSIxMDIiIHg9IjM0Ny4yNSIgeT0iMTQzOC45MTAyIj5Gb3IgZWFjaCBuZWlnaGJvcjwvdGV4dD48dGV4dCBmaWxsPSIjMDAwMDAwIiBmb250LWZhbWlseT0ic2Fucy1zZXJpZiIgZm9udC1zaXplPSIxMSIgbGVuZ3RoQWRqdXN0PSJzcGFjaW5nIiB0ZXh0TGVuZ3RoPSIyNCIgeD0iMzExLjI1IiB5PSIxNDMzLjAyMzQiPmRvbmU8L3RleHQ+PHJlY3QgZmlsbD0iIzg3Q0VGQSIgaGVpZ2h0PSIzMi44NDM4IiByeD0iMTIuNSIgcnk9IjEyLjUiIHN0eWxlPSJzdHJva2U6IzAwQkZGRjtzdHJva2Utd2lkdGg6MC41OyIgd2lkdGg9Ijk1IiB4PSIyMzYuNSIgeT0iMTcxMi45ODQ0Ii8+PHRleHQgZmlsbD0iIzAwMDAwMCIgZm9udC1mYW1pbHk9InNhbnMtc2VyaWYiIGZvbnQtc2l6ZT0iMTIiIGxlbmd0aEFkanVzdD0ic3BhY2luZyIgdGV4dExlbmd0aD0iNzUiIHg9IjI0Ni41IiB5PSIxNzM0LjMyODEiPlJldHVybiBOb25lPC90ZXh0PjxlbGxpcHNlIGN4PSIyODQiIGN5PSIxNzc1LjgyODEiIGZpbGw9Im5vbmUiIHJ4PSIxMCIgcnk9IjEwIiBzdHlsZT0ic3Ryb2tlOiMyMjIyMjI7c3Ryb2tlLXdpZHRoOjEuNTsiLz48bGluZSBzdHlsZT0ic3Ryb2tlOiMyMjIyMjI7c3Ryb2tlLXdpZHRoOjIuNTsiIHgxPSIyNzcuODEyOCIgeDI9IjI5MC4xODcyIiB5MT0iMTc2OS42NDA5IiB5Mj0iMTc4Mi4wMTUzIi8+PGxpbmUgc3R5bGU9InN0cm9rZTojMjIyMjIyO3N0cm9rZS13aWR0aDoyLjU7IiB4MT0iMjkwLjE4NzIiIHgyPSIyNzcuODEyOCIgeTE9IjE3NjkuNjQwOSIgeTI9IjE3ODIuMDE1MyIvPjxyZWN0IGZpbGw9Im5vbmUiIGhlaWdodD0iNzYxLjc1NzgiIHN0eWxlPSJzdHJva2U6IzAwMDAwMDtzdHJva2Utd2lkdGg6MS41OyIgd2lkdGg9IjU0NiIgeD0iMTEiIHk9IjE4MDcuODI4MSIvPjxwYXRoIGQ9Ik05MSwxODA3LjgyODEgTDkxLDE4MTUuODEyNSBMODEsMTgyNS44MTI1IEwxMSwxODI1LjgxMjUgIiBmaWxsPSJub25lIiBzdHlsZT0ic3Ryb2tlOiMwMDAwMDA7c3Ryb2tlLXdpZHRoOjEuNTsiLz48dGV4dCBmaWxsPSIjMDAwMDAwIiBmb250LWZhbWlseT0ic2Fucy1zZXJpZiIgZm9udC1zaXplPSIxNCIgbGVuZ3RoQWRqdXN0PSJzcGFjaW5nIiB0ZXh0TGVuZ3RoPSI3MCIgeD0iMTQiIHk9IjE4MjIuMDYyNSI+YnVpbGRfcGF0aDwvdGV4dD48ZWxsaXBzZSBjeD0iMjg0IiBjeT0iMTg0NS44MTI1IiBmaWxsPSIjMjIyMjIyIiByeD0iMTAiIHJ5PSIxMCIgc3R5bGU9InN0cm9rZTojMjIyMjIyO3N0cm9rZS13aWR0aDoxLjA7Ii8+PHJlY3QgZmlsbD0iIzg3Q0VGQSIgaGVpZ2h0PSIzMi44NDM4IiByeD0iMTIuNSIgcnk9IjEyLjUiIHN0eWxlPSJzdHJva2U6IzAwQkZGRjtzdHJva2Utd2lkdGg6MC41OyIgd2lkdGg9IjE4MSIgeD0iMTkzLjUiIHk9IjE4NzUuODEyNSIvPjx0ZXh0IGZpbGw9IiMwMDAwMDAiIGZvbnQtZmFtaWx5PSJzYW5zLXNlcmlmIiBmb250LXNpemU9IjEyIiBsZW5ndGhBZGp1c3Q9InNwYWNpbmciIHRleHRMZW5ndGg9IjE2MSIgeD0iMjAzLjUiIHk9IjE4OTcuMTU2MyI+SW5pdGlhbGl6ZSBwYXRoX2ZvcndhcmRbXTwvdGV4dD48cmVjdCBmaWxsPSIjODdDRUZBIiBoZWlnaHQ9IjMyLjg0MzgiIHJ4PSIxMi41IiByeT0iMTIuNSIgc3R5bGU9InN0cm9rZTojMDBCRkZGO3N0cm9rZS13aWR0aDowLjU7IiB3aWR0aD0iMjQ4IiB4PSIxNjAiIHk9IjE5ODQuNTU0NyIvPjx0ZXh0IGZpbGw9IiMwMDAwMDAiIGZvbnQtZmFtaWx5PSJzYW5zLXNlcmlmIiBmb250LXNpemU9IjEyIiBsZW5ndGhBZGp1c3Q9InNwYWNpbmciIHRleHRMZW5ndGg9IjIyOCIgeD0iMTcwIiB5PSIyMDA1Ljg5ODQiPkFkZCAoYWN0aW9uLCBzdGF0ZSkgdG8gcGF0aF9mb3J3YXJkPC90ZXh0PjxyZWN0IGZpbGw9IiM4N0NFRkEiIGhlaWdodD0iMzIuODQzOCIgcng9IjEyLjUiIHJ5PSIxMi41IiBzdHlsZT0ic3Ryb2tlOiMwMEJGRkY7c3Ryb2tlLXdpZHRoOjAuNTsiIHdpZHRoPSIxMTQiIHg9IjIyNyIgeT0iMjA0Ny4wMTE3Ii8+PHRleHQgZmlsbD0iIzAwMDAwMCIgZm9udC1mYW1pbHk9InNhbnMtc2VyaWYiIGZvbnQtc2l6ZT0iMTIiIGxlbmd0aEFkanVzdD0ic3BhY2luZyIgdGV4dExlbmd0aD0iOTQiIHg9IjIzNyIgeT0iMjA2OC4zNTU1Ij5Nb3ZlIHRvIHBhcmVudDwvdGV4dD48cG9seWdvbiBmaWxsPSIjODdDRUZBIiBwb2ludHM9IjIwMy41LDE5MjguNjU2MywzNjQuNSwxOTI4LjY1NjMsMzc2LjUsMTk0MC42NTYzLDM2NC41LDE5NTIuNjU2MywyMDMuNSwxOTUyLjY1NjMsMTkxLjUsMTk0MC42NTYzLDIwMy41LDE5MjguNjU2MyIgc3R5bGU9InN0cm9rZTojMDBCRkZGO3N0cm9rZS13aWR0aDowLjU7Ii8+PHRleHQgZmlsbD0iIzAwMDAwMCIgZm9udC1mYW1pbHk9InNhbnMtc2VyaWYiIGZvbnQtc2l6ZT0iMTEiIGxlbmd0aEFkanVzdD0ic3BhY2luZyIgdGV4dExlbmd0aD0iMTgiIHg9IjI4OCIgeT0iMTk2My4wNTQ3Ij55ZXM8L3RleHQ+PHRleHQgZmlsbD0iIzAwMDAwMCIgZm9udC1mYW1pbHk9InNhbnMtc2VyaWYiIGZvbnQtc2l6ZT0iMTEiIGxlbmd0aEFkanVzdD0ic3BhY2luZyIgdGV4dExlbmd0aD0iMTYxIiB4PSIyMDMuNSIgeT0iMTk0NS4xNjgiPm5vZGVfZm9yd2FyZC5wYXJlbnQgZXhpc3RzPzwvdGV4dD48dGV4dCBmaWxsPSIjMDAwMDAwIiBmb250LWZhbWlseT0ic2Fucy1zZXJpZiIgZm9udC1zaXplPSIxMSIgbGVuZ3RoQWRqdXN0PSJzcGFjaW5nIiB0ZXh0TGVuZ3RoPSIxMiIgeD0iMTc5LjUiIHk9IjE5MzkuMjgxMyI+bm88L3RleHQ+PHJlY3QgZmlsbD0iIzg3Q0VGQSIgaGVpZ2h0PSIzMi44NDM4IiByeD0iMTIuNSIgcnk9IjEyLjUiIHN0eWxlPSJzdHJva2U6IzAwQkZGRjtzdHJva2Utd2lkdGg6MC41OyIgd2lkdGg9IjE1NSIgeD0iMjA2LjUiIHk9IjIxMjEuODU1NSIvPjx0ZXh0IGZpbGw9IiMwMDAwMDAiIGZvbnQtZmFtaWx5PSJzYW5zLXNlcmlmIiBmb250LXNpemU9IjEyIiBsZW5ndGhBZGp1c3Q9InNwYWNpbmciIHRleHRMZW5ndGg9IjEzNSIgeD0iMjE2LjUiIHk9IjIxNDMuMTk5MiI+UmV2ZXJzZSBwYXRoX2ZvcndhcmQ8L3RleHQ+PHJlY3QgZmlsbD0iIzg3Q0VGQSIgaGVpZ2h0PSIzMi44NDM4IiByeD0iMTIuNSIgcnk9IjEyLjUiIHN0eWxlPSJzdHJva2U6IzAwQkZGRjtzdHJva2Utd2lkdGg6MC41OyIgd2lkdGg9IjE4NyIgeD0iMTkwLjUiIHk9IjIxNzQuNjk5MiIvPjx0ZXh0IGZpbGw9IiMwMDAwMDAiIGZvbnQtZmFtaWx5PSJzYW5zLXNlcmlmIiBmb250LXNpemU9IjEyIiBsZW5ndGhBZGp1c3Q9InNwYWNpbmciIHRleHRMZW5ndGg9IjE2NyIgeD0iMjAwLjUiIHk9IjIxOTYuMDQzIj5Jbml0aWFsaXplIHBhdGhfYmFja3dhcmRbXTwvdGV4dD48cmVjdCBmaWxsPSIjODdDRUZBIiBoZWlnaHQ9IjMyLjg0MzgiIHJ4PSIxMi41IiByeT0iMTIuNSIgc3R5bGU9InN0cm9rZTojMDBCRkZGO3N0cm9rZS13aWR0aDowLjU7IiB3aWR0aD0iMjU0IiB4PSIxNTciIHk9IjIyODMuNDQxNCIvPjx0ZXh0IGZpbGw9IiMwMDAwMDAiIGZvbnQtZmFtaWx5PSJzYW5zLXNlcmlmIiBmb250LXNpemU9IjEyIiBsZW5ndGhBZGp1c3Q9InNwYWNpbmciIHRleHRMZW5ndGg9IjIzNCIgeD0iMTY3IiB5PSIyMzA0Ljc4NTIiPkFkZCAoYWN0aW9uLCBzdGF0ZSkgdG8gcGF0aF9iYWNrd2FyZDwvdGV4dD48cmVjdCBmaWxsPSIjODdDRUZBIiBoZWlnaHQ9IjMyLjg0MzgiIHJ4PSIxMi41IiByeT0iMTIuNSIgc3R5bGU9InN0cm9rZTojMDBCRkZGO3N0cm9rZS13aWR0aDowLjU7IiB3aWR0aD0iMTE0IiB4PSIyMjciIHk9IjIzNDUuODk4NCIvPjx0ZXh0IGZpbGw9IiMwMDAwMDAiIGZvbnQtZmFtaWx5PSJzYW5zLXNlcmlmIiBmb250LXNpemU9IjEyIiBsZW5ndGhBZGp1c3Q9InNwYWNpbmciIHRleHRMZW5ndGg9Ijk0IiB4PSIyMzciIHk9IjIzNjcuMjQyMiI+TW92ZSB0byBwYXJlbnQ8L3RleHQ+PHBvbHlnb24gZmlsbD0iIzg3Q0VGQSIgcG9pbnRzPSIyMDAuNSwyMjI3LjU0MywzNjcuNSwyMjI3LjU0MywzNzkuNSwyMjM5LjU0MywzNjcuNSwyMjUxLjU0MywyMDAuNSwyMjUxLjU0MywxODguNSwyMjM5LjU0MywyMDAuNSwyMjI3LjU0MyIgc3R5bGU9InN0cm9rZTojMDBCRkZGO3N0cm9rZS13aWR0aDowLjU7Ii8+PHRleHQgZmlsbD0iIzAwMDAwMCIgZm9udC1mYW1pbHk9InNhbnMtc2VyaWYiIGZvbnQtc2l6ZT0iMTEiIGxlbmd0aEFkanVzdD0ic3BhY2luZyIgdGV4dExlbmd0aD0iMTgiIHg9IjI4OCIgeT0iMjI2MS45NDE0Ij55ZXM8L3RleHQ+PHRleHQgZmlsbD0iIzAwMDAwMCIgZm9udC1mYW1pbHk9InNhbnMtc2VyaWYiIGZvbnQtc2l6ZT0iMTEiIGxlbmd0aEFkanVzdD0ic3BhY2luZyIgdGV4dExlbmd0aD0iMTY3IiB4PSIyMDAuNSIgeT0iMjI0NC4wNTQ3Ij5ub2RlX2JhY2t3YXJkLnBhcmVudCBleGlzdHM/PC90ZXh0Pjx0ZXh0IGZpbGw9IiMwMDAwMDAiIGZvbnQtZmFtaWx5PSJzYW5zLXNlcmlmIiBmb250LXNpemU9IjExIiBsZW5ndGhBZGp1c3Q9InNwYWNpbmciIHRleHRMZW5ndGg9IjEyIiB4PSIxNzYuNSIgeT0iMjIzOC4xNjgiPm5vPC90ZXh0Pjxwb2x5Z29uIGZpbGw9IiM4N0NFRkEiIHBvaW50cz0iMjE1LDI0MjAuNzQyMiwzNTMsMjQyMC43NDIyLDM2NSwyNDMyLjc0MjIsMzUzLDI0NDQuNzQyMiwyMTUsMjQ0NC43NDIyLDIwMywyNDMyLjc0MjIsMjE1LDI0MjAuNzQyMiIgc3R5bGU9InN0cm9rZTojMDBCRkZGO3N0cm9rZS13aWR0aDowLjU7Ii8+PHRleHQgZmlsbD0iIzAwMDAwMCIgZm9udC1mYW1pbHk9InNhbnMtc2VyaWYiIGZvbnQtc2l6ZT0iMTEiIGxlbmd0aEFkanVzdD0ic3BhY2luZyIgdGV4dExlbmd0aD0iMTM4IiB4PSIyMTUiIHk9IjI0MzcuMjUzOSI+ZGlyZWN0aW9uID09ICJmb3J3YXJkIj88L3RleHQ+PHRleHQgZmlsbD0iIzAwMDAwMCIgZm9udC1mYW1pbHk9InNhbnMtc2VyaWYiIGZvbnQtc2l6ZT0iMTEiIGxlbmd0aEFkanVzdD0ic3BhY2luZyIgdGV4dExlbmd0aD0iMTgiIHg9IjE4NSIgeT0iMjQzMS4zNjcyIj55ZXM8L3RleHQ+PHRleHQgZmlsbD0iIzAwMDAwMCIgZm9udC1mYW1pbHk9InNhbnMtc2VyaWYiIGZvbnQtc2l6ZT0iMTEiIGxlbmd0aEFkanVzdD0ic3BhY2luZyIgdGV4dExlbmd0aD0iMTIiIHg9IjM2NSIgeT0iMjQzMS4zNjcyIj5ubzwvdGV4dD48cmVjdCBmaWxsPSIjODdDRUZBIiBoZWlnaHQ9IjMyLjg0MzgiIHJ4PSIxMi41IiByeT0iMTIuNSIgc3R5bGU9InN0cm9rZTojMDBCRkZGO3N0cm9rZS13aWR0aDowLjU7IiB3aWR0aD0iMjUxIiB4PSIyMyIgeT0iMjQ1NC43NDIyIi8+PHRleHQgZmlsbD0iIzAwMDAwMCIgZm9udC1mYW1pbHk9InNhbnMtc2VyaWYiIGZvbnQtc2l6ZT0iMTIiIGxlbmd0aEFkanVzdD0ic3BhY2luZyIgdGV4dExlbmd0aD0iMjMxIiB4PSIzMyIgeT0iMjQ3Ni4wODU5Ij5SZXR1cm4gcGF0aF9mb3J3YXJkICsgcGF0aF9iYWNrd2FyZDwvdGV4dD48cmVjdCBmaWxsPSIjODdDRUZBIiBoZWlnaHQ9IjMyLjg0MzgiIHJ4PSIxMi41IiByeT0iMTIuNSIgc3R5bGU9InN0cm9rZTojMDBCRkZGO3N0cm9rZS13aWR0aDowLjU7IiB3aWR0aD0iMjUxIiB4PSIyOTQiIHk9IjI0NTQuNzQyMiIvPjx0ZXh0IGZpbGw9IiMwMDAwMDAiIGZvbnQtZmFtaWx5PSJzYW5zLXNlcmlmIiBmb250LXNpemU9IjEyIiBsZW5ndGhBZGp1c3Q9InNwYWNpbmciIHRleHRMZW5ndGg9IjIzMSIgeD0iMzA0IiB5PSIyNDc2LjA4NTkiPlJldHVybiBwYXRoX2JhY2t3YXJkICsgcGF0aF9mb3J3YXJkPC90ZXh0Pjxwb2x5Z29uIGZpbGw9IiM4N0NFRkEiIHBvaW50cz0iMjg0LDI0OTMuNTg1OSwyOTYsMjUwNS41ODU5LDI4NCwyNTE3LjU4NTksMjcyLDI1MDUuNTg1OSwyODQsMjQ5My41ODU5IiBzdHlsZT0ic3Ryb2tlOiMwMEJGRkY7c3Ryb2tlLXdpZHRoOjAuNTsiLz48ZWxsaXBzZSBjeD0iMjg0IiBjeT0iMjU0Ny41ODU5IiBmaWxsPSJub25lIiByeD0iMTAiIHJ5PSIxMCIgc3R5bGU9InN0cm9rZTojMjIyMjIyO3N0cm9rZS13aWR0aDoxLjU7Ii8+PGxpbmUgc3R5bGU9InN0cm9rZTojMjIyMjIyO3N0cm9rZS13aWR0aDoyLjU7IiB4MT0iMjc3LjgxMjgiIHgyPSIyOTAuMTg3MiIgeTE9IjI1NDEuMzk4OCIgeTI9IjI1NTMuNzczMSIvPjxsaW5lIHN0eWxlPSJzdHJva2U6IzIyMjIyMjtzdHJva2Utd2lkdGg6Mi41OyIgeDE9IjI5MC4xODcyIiB4Mj0iMjc3LjgxMjgiIHkxPSIyNTQxLjM5ODgiIHkyPSIyNTUzLjc3MzEiLz48bGluZSBzdHlsZT0ic3Ryb2tlOiMwMEJGRkY7c3Ryb2tlLXdpZHRoOjEuMDsiIHgxPSIyODQiIHgyPSIyODQiIHkxPSIxNDYuMzU5NCIgeTI9IjE2Ni4zNTk0Ii8+PHBvbHlnb24gZmlsbD0iIzAwQkZGRiIgcG9pbnRzPSIyODAsMTU2LjM1OTQsMjg0LDE2Ni4zNTk0LDI4OCwxNTYuMzU5NCwyODQsMTYwLjM1OTQiIHN0eWxlPSJzdHJva2U6IzAwQkZGRjtzdHJva2Utd2lkdGg6MS4wOyIvPjxsaW5lIHN0eWxlPSJzdHJva2U6IzAwQkZGRjtzdHJva2Utd2lkdGg6MS4wOyIgeDE9IjI4NCIgeDI9IjI4NCIgeTE9IjMwIiB5Mj0iNzQuOTg0NCIvPjxwb2x5Z29uIGZpbGw9IiMwMEJGRkYiIHBvaW50cz0iMjgwLDY0Ljk4NDQsMjg0LDc0Ljk4NDQsMjg4LDY0Ljk4NDQsMjg0LDY4Ljk4NDQiIHN0eWxlPSJzdHJva2U6IzAwQkZGRjtzdHJva2Utd2lkdGg6MS4wOyIvPjxsaW5lIHN0eWxlPSJzdHJva2U6IzAwQkZGRjtzdHJva2Utd2lkdGg6MS4wOyIgeDE9IjI4NCIgeDI9IjI4NCIgeTE9IjUyMi44MzU5IiB5Mj0iNTUwLjkxNDEiLz48cG9seWdvbiBmaWxsPSIjMDBCRkZGIiBwb2ludHM9IjI4MCw1NDAuOTE0MSwyODQsNTUwLjkxNDEsMjg4LDU0MC45MTQxLDI4NCw1NDQuOTE0MSIgc3R5bGU9InN0cm9rZTojMDBCRkZGO3N0cm9rZS13aWR0aDoxLjA7Ii8+PGxpbmUgc3R5bGU9InN0cm9rZTojMDBCRkZGO3N0cm9rZS13aWR0aDoxLjA7IiB4MT0iMjg0IiB4Mj0iMjg0IiB5MT0iNDY1Ljk5MjIiIHkyPSI0ODkuOTkyMiIvPjxwb2x5Z29uIGZpbGw9IiMwMEJGRkYiIHBvaW50cz0iMjgwLDQ3OS45OTIyLDI4NCw0ODkuOTkyMiwyODgsNDc5Ljk5MjIsMjg0LDQ4My45OTIyIiBzdHlsZT0ic3Ryb2tlOiMwMEJGRkY7c3Ryb2tlLXdpZHRoOjEuMDsiLz48bGluZSBzdHlsZT0ic3Ryb2tlOiMwMEJGRkY7c3Ryb2tlLXdpZHRoOjEuMDsiIHgxPSIzMzUiIHgyPSIzNDciIHkxPSI0NTMuOTkyMiIgeTI9IjQ1My45OTIyIi8+PHBvbHlnb24gZmlsbD0iIzAwQkZGRiIgcG9pbnRzPSIzNDMsNTIwLjkxNDEsMzQ3LDUzMC45MTQxLDM1MSw1MjAuOTE0MSwzNDcsNTI0LjkxNDEiIHN0eWxlPSJzdHJva2U6IzAwQkZGRjtzdHJva2Utd2lkdGg6MS4wOyIvPjxsaW5lIHN0eWxlPSJzdHJva2U6IzAwQkZGRjtzdHJva2Utd2lkdGg6MS4wOyIgeDE9IjM0NyIgeDI9IjM0NyIgeTE9IjQ1My45OTIyIiB5Mj0iNTkyLjkxNDEiLz48bGluZSBzdHlsZT0ic3Ryb2tlOiMwMEJGRkY7c3Ryb2tlLXdpZHRoOjEuMDsiIHgxPSIzNDciIHgyPSIyODQiIHkxPSI1OTIuOTE0MSIgeTI9IjU5Mi45MTQxIi8+PGxpbmUgc3R5bGU9InN0cm9rZTojMDBCRkZGO3N0cm9rZS13aWR0aDoxLjA7IiB4MT0iMjg0IiB4Mj0iMjg0IiB5MT0iNTkyLjkxNDEiIHkyPSI2NTcuODk4NCIvPjxwb2x5Z29uIGZpbGw9IiMwMEJGRkYiIHBvaW50cz0iMjgwLDY0Ny44OTg0LDI4NCw2NTcuODk4NCwyODgsNjQ3Ljg5ODQsMjg0LDY1MS44OTg0IiBzdHlsZT0ic3Ryb2tlOiMwMEJGRkY7c3Ryb2tlLXdpZHRoOjEuMDsiLz48bGluZSBzdHlsZT0ic3Ryb2tlOiMwMEJGRkY7c3Ryb2tlLXdpZHRoOjEuMDsiIHgxPSIyODQiIHgyPSIyODQiIHkxPSI0MjEuOTkyMiIgeTI9IjQ0MS45OTIyIi8+PHBvbHlnb24gZmlsbD0iIzAwQkZGRiIgcG9pbnRzPSIyODAsNDMxLjk5MjIsMjg0LDQ0MS45OTIyLDI4OCw0MzEuOTkyMiwyODQsNDM1Ljk5MjIiIHN0eWxlPSJzdHJva2U6IzAwQkZGRjtzdHJva2Utd2lkdGg6MS4wOyIvPjxsaW5lIHN0eWxlPSJzdHJva2U6IzAwQkZGRjtzdHJva2Utd2lkdGg6MS4wOyIgeDE9IjI4NCIgeDI9IjI4NCIgeTE9Ijg0Mi45NjA5IiB5Mj0iODYyLjk2MDkiLz48cG9seWdvbiBmaWxsPSIjMDBCRkZGIiBwb2ludHM9IjI4MCw4NTIuOTYwOSwyODQsODYyLjk2MDksMjg4LDg1Mi45NjA5LDI4NCw4NTYuOTYwOSIgc3R5bGU9InN0cm9rZTojMDBCRkZGO3N0cm9rZS13aWR0aDoxLjA7Ii8+PGxpbmUgc3R5bGU9InN0cm9rZTojMDBCRkZGO3N0cm9rZS13aWR0aDoxLjA7IiB4MT0iMjg0IiB4Mj0iMjg0IiB5MT0iNzg2LjExNzIiIHkyPSI4MTAuMTE3MiIvPjxwb2x5Z29uIGZpbGw9IiMwMEJGRkYiIHBvaW50cz0iMjgwLDgwMC4xMTcyLDI4NCw4MTAuMTE3MiwyODgsODAwLjExNzIsMjg0LDgwNC4xMTcyIiBzdHlsZT0ic3Ryb2tlOiMwMEJGRkY7c3Ryb2tlLXdpZHRoOjEuMDsiLz48bGluZSBzdHlsZT0ic3Ryb2tlOiMwMEJGRkY7c3Ryb2tlLXdpZHRoOjEuMDsiIHgxPSIzMzUiIHgyPSI0MDQiIHkxPSI3NzQuMTE3MiIgeTI9Ijc3NC4xMTcyIi8+PGxpbmUgc3R5bGU9InN0cm9rZTojMDBCRkZGO3N0cm9rZS13aWR0aDoxLjA7IiB4MT0iNDA0IiB4Mj0iNDA0IiB5MT0iMjY4Ljg5MDYiIHkyPSI3NzQuMTE3MiIvPjxsaW5lIHN0eWxlPSJzdHJva2U6IzAwQkZGRjtzdHJva2Utd2lkdGg6MS4wOyIgeDE9IjQwNCIgeDI9IjM5MiIgeTE9IjI2OC44OTA2IiB5Mj0iMjY4Ljg5MDYiLz48cG9seWdvbiBmaWxsPSIjMDBCRkZGIiBwb2ludHM9IjQwMiwyNjQuODkwNiwzOTIsMjY4Ljg5MDYsNDAyLDI3Mi44OTA2LDM5OCwyNjguODkwNiIgc3R5bGU9InN0cm9rZTojMDBCRkZGO3N0cm9rZS13aWR0aDoxLjA7Ii8+PGxpbmUgc3R5bGU9InN0cm9rZTojMDBCRkZGO3N0cm9rZS13aWR0aDoxLjA7IiB4MT0iMjg0IiB4Mj0iMjg0IiB5MT0iNzQyLjExNzIiIHkyPSI3NjIuMTE3MiIvPjxwb2x5Z29uIGZpbGw9IiMwMEJGRkYiIHBvaW50cz0iMjgwLDc1Mi4xMTcyLDI4NCw3NjIuMTE3MiwyODgsNzUyLjExNzIsMjg0LDc1Ni4xMTcyIiBzdHlsZT0ic3Ryb2tlOiMwMEJGRkY7c3Ryb2tlLXdpZHRoOjEuMDsiLz48bGluZSBzdHlsZT0ic3Ryb2tlOiMwMEJGRkY7c3Ryb2tlLXdpZHRoOjEuMDsiIHgxPSIyODQiIHgyPSIyODQiIHkxPSIyODAuODkwNiIgeTI9IjMzNy43NzM0Ii8+PHBvbHlnb24gZmlsbD0iIzAwQkZGRiIgcG9pbnRzPSIyODAsMzI3Ljc3MzQsMjg0LDMzNy43NzM0LDI4OCwzMjcuNzczNCwyODQsMzMxLjc3MzQiIHN0eWxlPSJzdHJva2U6IzAwQkZGRjtzdHJva2Utd2lkdGg6MS4wOyIvPjxsaW5lIHN0eWxlPSJzdHJva2U6IzAwQkZGRjtzdHJva2Utd2lkdGg6MS4wOyIgeDE9IjE3NiIgeDI9IjE2NCIgeTE9IjI2OC44OTA2IiB5Mj0iMjY4Ljg5MDYiLz48cG9seWdvbiBmaWxsPSIjMDBCRkZGIiBwb2ludHM9IjE2MCw2MDIuOTE0MSwxNjQsNjEyLjkxNDEsMTY4LDYwMi45MTQxLDE2NCw2MDYuOTE0MSIgc3R5bGU9InN0cm9rZTojMDBCRkZGO3N0cm9rZS13aWR0aDoxLjA7Ii8+PGxpbmUgc3R5bGU9InN0cm9rZTojMDBCRkZGO3N0cm9rZS13aWR0aDoxLjA7IiB4MT0iMTY0IiB4Mj0iMTY0IiB5MT0iMjY4Ljg5MDYiIHkyPSI5MzguOTYwOSIvPjxsaW5lIHN0eWxlPSJzdHJva2U6IzAwQkZGRjtzdHJva2Utd2lkdGg6MS4wOyIgeDE9IjE2NCIgeDI9IjI4NCIgeTE9IjkzOC45NjA5IiB5Mj0iOTM4Ljk2MDkiLz48bGluZSBzdHlsZT0ic3Ryb2tlOiMwMEJGRkY7c3Ryb2tlLXdpZHRoOjEuMDsiIHgxPSIyODQiIHgyPSIyODQiIHkxPSI5MzguOTYwOSIgeTI9Ijk1OC45NjA5Ii8+PHBvbHlnb24gZmlsbD0iIzAwQkZGRiIgcG9pbnRzPSIyODAsOTQ4Ljk2MDksMjg0LDk1OC45NjA5LDI4OCw5NDguOTYwOSwyODQsOTUyLjk2MDkiIHN0eWxlPSJzdHJva2U6IzAwQkZGRjtzdHJva2Utd2lkdGg6MS4wOyIvPjxsaW5lIHN0eWxlPSJzdHJva2U6IzAwQkZGRjtzdHJva2Utd2lkdGg6MS4wOyIgeDE9IjI4NCIgeDI9IjI4NCIgeTE9IjIyNC44OTA2IiB5Mj0iMjU2Ljg5MDYiLz48cG9seWdvbiBmaWxsPSIjMDBCRkZGIiBwb2ludHM9IjI4MCwyNDYuODkwNiwyODQsMjU2Ljg5MDYsMjg4LDI0Ni44OTA2LDI4NCwyNTAuODkwNiIgc3R5bGU9InN0cm9rZTojMDBCRkZGO3N0cm9rZS13aWR0aDoxLjA7Ii8+PGxpbmUgc3R5bGU9InN0cm9rZTojMDBCRkZGO3N0cm9rZS13aWR0aDoxLjA7IiB4MT0iMjg0IiB4Mj0iMjg0IiB5MT0iOTkxLjgwNDciIHkyPSIxMDExLjgwNDciLz48cG9seWdvbiBmaWxsPSIjMDBCRkZGIiBwb2ludHM9IjI4MCwxMDAxLjgwNDcsMjg0LDEwMTEuODA0NywyODgsMTAwMS44MDQ3LDI4NCwxMDA1LjgwNDciIHN0eWxlPSJzdHJva2U6IzAwQkZGRjtzdHJva2Utd2lkdGg6MS4wOyIvPjxsaW5lIHN0eWxlPSJzdHJva2U6IzAwQkZGRjtzdHJva2Utd2lkdGg6MS4wOyIgeDE9IjI4NCIgeDI9IjI4NCIgeTE9IjExOTIuNjMyOCIgeTI9IjEyMjAuNzEwOSIvPjxwb2x5Z29uIGZpbGw9IiMwMEJGRkYiIHBvaW50cz0iMjgwLDEyMTAuNzEwOSwyODQsMTIyMC43MTA5LDI4OCwxMjEwLjcxMDksMjg0LDEyMTQuNzEwOSIgc3R5bGU9InN0cm9rZTojMDBCRkZGO3N0cm9rZS13aWR0aDoxLjA7Ii8+PGxpbmUgc3R5bGU9InN0cm9rZTojMDBCRkZGO3N0cm9rZS13aWR0aDoxLjA7IiB4MT0iMjg0IiB4Mj0iMjg0IiB5MT0iMTEzNS43ODkxIiB5Mj0iMTE1OS43ODkxIi8+PHBvbHlnb24gZmlsbD0iIzAwQkZGRiIgcG9pbnRzPSIyODAsMTE0OS43ODkxLDI4NCwxMTU5Ljc4OTEsMjg4LDExNDkuNzg5MSwyODQsMTE1My43ODkxIiBzdHlsZT0ic3Ryb2tlOiMwMEJGRkY7c3Ryb2tlLXdpZHRoOjEuMDsiLz48bGluZSBzdHlsZT0ic3Ryb2tlOiMwMEJGRkY7c3Ryb2tlLXdpZHRoOjEuMDsiIHgxPSIzNDEiIHgyPSIzNTMiIHkxPSIxMTIzLjc4OTEiIHkyPSIxMTIzLjc4OTEiLz48cG9seWdvbiBmaWxsPSIjMDBCRkZGIiBwb2ludHM9IjM0OSwxMTkwLjcxMDksMzUzLDEyMDAuNzEwOSwzNTcsMTE5MC43MTA5LDM1MywxMTk0LjcxMDkiIHN0eWxlPSJzdHJva2U6IzAwQkZGRjtzdHJva2Utd2lkdGg6MS4wOyIvPjxsaW5lIHN0eWxlPSJzdHJva2U6IzAwQkZGRjtzdHJva2Utd2lkdGg6MS4wOyIgeDE9IjM1MyIgeDI9IjM1MyIgeTE9IjExMjMuNzg5MSIgeTI9IjEyNjIuNzEwOSIvPjxsaW5lIHN0eWxlPSJzdHJva2U6IzAwQkZGRjtzdHJva2Utd2lkdGg6MS4wOyIgeDE9IjM1MyIgeDI9IjI4NCIgeTE9IjEyNjIuNzEwOSIgeTI9IjEyNjIuNzEwOSIvPjxsaW5lIHN0eWxlPSJzdHJva2U6IzAwQkZGRjtzdHJva2Utd2lkdGg6MS4wOyIgeDE9IjI4NCIgeDI9IjI4NCIgeTE9IjEyNjIuNzEwOSIgeTI9IjEyODIuNzEwOSIvPjxwb2x5Z29uIGZpbGw9IiMwMEJGRkYiIHBvaW50cz0iMjgwLDEyNzIuNzEwOSwyODQsMTI4Mi43MTA5LDI4OCwxMjcyLjcxMDksMjg0LDEyNzYuNzEwOSIgc3R5bGU9InN0cm9rZTojMDBCRkZGO3N0cm9rZS13aWR0aDoxLjA7Ii8+PGxpbmUgc3R5bGU9InN0cm9rZTojMDBCRkZGO3N0cm9rZS13aWR0aDoxLjA7IiB4MT0iMjg0IiB4Mj0iMjg0IiB5MT0iMTA5MS43ODkxIiB5Mj0iMTExMS43ODkxIi8+PHBvbHlnb24gZmlsbD0iIzAwQkZGRiIgcG9pbnRzPSIyODAsMTEwMS43ODkxLDI4NCwxMTExLjc4OTEsMjg4LDExMDEuNzg5MSwyODQsMTEwNS43ODkxIiBzdHlsZT0ic3Ryb2tlOiMwMEJGRkY7c3Ryb2tlLXdpZHRoOjEuMDsiLz48bGluZSBzdHlsZT0ic3Ryb2tlOiMwMEJGRkY7c3Ryb2tlLXdpZHRoOjEuMDsiIHgxPSIyODQiIHgyPSIyODQiIHkxPSIxMzE1LjU1NDciIHkyPSIxMzM1LjU1NDciLz48cG9seWdvbiBmaWxsPSIjMDBCRkZGIiBwb2ludHM9IjI4MCwxMzI1LjU1NDcsMjg0LDEzMzUuNTU0NywyODgsMTMyNS41NTQ3LDI4NCwxMzI5LjU1NDciIHN0eWxlPSJzdHJva2U6IzAwQkZGRjtzdHJva2Utd2lkdGg6MS4wOyIvPjxsaW5lIHN0eWxlPSJzdHJva2U6IzAwQkZGRjtzdHJva2Utd2lkdGg6MS4wOyIgeDE9IjE2OS43NSIgeDI9IjE2OS43NSIgeTE9IjE0NTUuMjQyMiIgeTI9IjE0ODYuMzY3MiIvPjxwb2x5Z29uIGZpbGw9IiMwMEJGRkYiIHBvaW50cz0iMTY1Ljc1LDE0NzYuMzY3MiwxNjkuNzUsMTQ4Ni4zNjcyLDE3My43NSwxNDc2LjM2NzIsMTY5Ljc1LDE0ODAuMzY3MiIgc3R5bGU9InN0cm9rZTojMDBCRkZGO3N0cm9rZS13aWR0aDoxLjA7Ii8+PGxpbmUgc3R5bGU9InN0cm9rZTojMDBCRkZGO3N0cm9rZS13aWR0aDoxLjA7IiB4MT0iMTY5Ljc1IiB4Mj0iMTY5Ljc1IiB5MT0iMTUxOS4yMTA5IiB5Mj0iMTU1NC4yMTA5Ii8+PHBvbHlnb24gZmlsbD0iIzAwQkZGRiIgcG9pbnRzPSIxNjUuNzUsMTU0NC4yMTA5LDE2OS43NSwxNTU0LjIxMDksMTczLjc1LDE1NDQuMjEwOSwxNjkuNzUsMTU0OC4yMTA5IiBzdHlsZT0ic3Ryb2tlOiMwMEJGRkY7c3Ryb2tlLXdpZHRoOjEuMDsiLz48bGluZSBzdHlsZT0ic3Ryb2tlOiMwMEJGRkY7c3Ryb2tlLXdpZHRoOjEuMDsiIHgxPSIzOTguMjUiIHgyPSIzOTguMjUiIHkxPSIxNTU5LjE0MDYiIHkyPSIxNTk0LjE0MDYiLz48cG9seWdvbiBmaWxsPSIjMDBCRkZGIiBwb2ludHM9IjM5NC4yNSwxNTg0LjE0MDYsMzk4LjI1LDE1OTQuMTQwNiw0MDIuMjUsMTU4NC4xNDA2LDM5OC4yNSwxNTg4LjE0MDYiIHN0eWxlPSJzdHJva2U6IzAwQkZGRjtzdHJva2Utd2lkdGg6MS4wOyIvPjxsaW5lIHN0eWxlPSJzdHJva2U6IzAwQkZGRjtzdHJva2Utd2lkdGg6MS4wOyIgeDE9IjM5OC4yNSIgeDI9IjM5OC4yNSIgeTE9IjE1MDIuMjk2OSIgeTI9IjE1MjYuMjk2OSIvPjxwb2x5Z29uIGZpbGw9IiMwMEJGRkYiIHBvaW50cz0iMzk0LjI1LDE1MTYuMjk2OSwzOTguMjUsMTUyNi4yOTY5LDQwMi4yNSwxNTE2LjI5NjksMzk4LjI1LDE1MjAuMjk2OSIgc3R5bGU9InN0cm9rZTojMDBCRkZGO3N0cm9rZS13aWR0aDoxLjA7Ii8+PGxpbmUgc3R5bGU9InN0cm9rZTojMDBCRkZGO3N0cm9rZS13aWR0aDoxLjA7IiB4MT0iNDk0LjI1IiB4Mj0iNTA2LjI1IiB5MT0iMTQ5MC4yOTY5IiB5Mj0iMTQ5MC4yOTY5Ii8+PHBvbHlnb24gZmlsbD0iIzAwQkZGRiIgcG9pbnRzPSI1MDIuMjUsMTU2Ni42NDA2LDUwNi4yNSwxNTc2LjY0MDYsNTEwLjI1LDE1NjYuNjQwNiw1MDYuMjUsMTU3MC42NDA2IiBzdHlsZT0ic3Ryb2tlOiMwMEJGRkY7c3Ryb2tlLXdpZHRoOjEuMDsiLz48bGluZSBzdHlsZT0ic3Ryb2tlOiMwMEJGRkY7c3Ryb2tlLXdpZHRoOjEuMDsiIHgxPSI1MDYuMjUiIHgyPSI1MDYuMjUiIHkxPSIxNDkwLjI5NjkiIHkyPSIxNjU4Ljk4NDQiLz48bGluZSBzdHlsZT0ic3Ryb2tlOiMwMEJGRkY7c3Ryb2tlLXdpZHRoOjEuMDsiIHgxPSI1MDYuMjUiIHgyPSI0MTAuMjUiIHkxPSIxNjU4Ljk4NDQiIHkyPSIxNjU4Ljk4NDQiLz48cG9seWdvbiBmaWxsPSIjMDBCRkZGIiBwb2ludHM9IjQyMC4yNSwxNjU0Ljk4NDQsNDEwLjI1LDE2NTguOTg0NCw0MjAuMjUsMTY2Mi45ODQ0LDQxNi4yNSwxNjU4Ljk4NDQiIHN0eWxlPSJzdHJva2U6IzAwQkZGRjtzdHJva2Utd2lkdGg6MS4wOyIvPjxsaW5lIHN0eWxlPSJzdHJva2U6IzAwQkZGRjtzdHJva2Utd2lkdGg6MS4wOyIgeDE9IjM5OC4yNSIgeDI9IjM5OC4yNSIgeTE9IjE2MjYuOTg0NCIgeTI9IjE2NDYuOTg0NCIvPjxwb2x5Z29uIGZpbGw9IiMwMEJGRkYiIHBvaW50cz0iMzk0LjI1LDE2MzYuOTg0NCwzOTguMjUsMTY0Ni45ODQ0LDQwMi4yNSwxNjM2Ljk4NDQsMzk4LjI1LDE2NDAuOTg0NCIgc3R5bGU9InN0cm9rZTojMDBCRkZGO3N0cm9rZS13aWR0aDoxLjA7Ii8+PGxpbmUgc3R5bGU9InN0cm9rZTojMDBCRkZGO3N0cm9rZS13aWR0aDoxLjA7IiB4MT0iMzk4LjI1IiB4Mj0iMzk4LjI1IiB5MT0iMTQ0Ni4zOTg0IiB5Mj0iMTQ3OC4yOTY5Ii8+PHBvbHlnb24gZmlsbD0iIzAwQkZGRiIgcG9pbnRzPSIzOTQuMjUsMTQ2OC4yOTY5LDM5OC4yNSwxNDc4LjI5NjksNDAyLjI1LDE0NjguMjk2OSwzOTguMjUsMTQ3Mi4yOTY5IiBzdHlsZT0ic3Ryb2tlOiMwMEJGRkY7c3Ryb2tlLXdpZHRoOjEuMDsiLz48bGluZSBzdHlsZT0ic3Ryb2tlOiMwMEJGRkY7c3Ryb2tlLXdpZHRoOjEuMDsiIHgxPSIzOTguMjUiIHgyPSIzOTguMjUiIHkxPSIxNjcwLjk4NDQiIHkyPSIxNjgwLjk4NDQiLz48bGluZSBzdHlsZT0ic3Ryb2tlOiMwMEJGRkY7c3Ryb2tlLXdpZHRoOjEuMDsiIHgxPSIzOTguMjUiIHgyPSI1MTguMjUiIHkxPSIxNjgwLjk4NDQiIHkyPSIxNjgwLjk4NDQiLz48cG9seWdvbiBmaWxsPSIjMDBCRkZGIiBwb2ludHM9IjUxNC4yNSwxNTY4Ljc1MzksNTE4LjI1LDE1NTguNzUzOSw1MjIuMjUsMTU2OC43NTM5LDUxOC4yNSwxNTY0Ljc1MzkiIHN0eWxlPSJzdHJva2U6IzAwQkZGRjtzdHJva2Utd2lkdGg6MS4wOyIvPjxsaW5lIHN0eWxlPSJzdHJva2U6IzAwQkZGRjtzdHJva2Utd2lkdGg6MS4wOyIgeDE9IjUxOC4yNSIgeDI9IjUxOC4yNSIgeTE9IjE0MzQuMzk4NCIgeTI9IjE2ODAuOTg0NCIvPjxsaW5lIHN0eWxlPSJzdHJva2U6IzAwQkZGRjtzdHJva2Utd2lkdGg6MS4wOyIgeDE9IjUxOC4yNSIgeDI9IjQ2MS4yNSIgeTE9IjE0MzQuMzk4NCIgeTI9IjE0MzQuMzk4NCIvPjxwb2x5Z29uIGZpbGw9IiMwMEJGRkYiIHBvaW50cz0iNDcxLjI1LDE0MzAuMzk4NCw0NjEuMjUsMTQzNC4zOTg0LDQ3MS4yNSwxNDM4LjM5ODQsNDY3LjI1LDE0MzQuMzk4NCIgc3R5bGU9InN0cm9rZTojMDBCRkZGO3N0cm9rZS13aWR0aDoxLjA7Ii8+PGxpbmUgc3R5bGU9InN0cm9rZTojMDBCRkZGO3N0cm9rZS13aWR0aDoxLjA7IiB4MT0iMzM1LjI1IiB4Mj0iMjkwLjI1IiB5MT0iMTQzNC4zOTg0IiB5Mj0iMTQzNC4zOTg0Ii8+PHBvbHlnb24gZmlsbD0iIzAwQkZGRiIgcG9pbnRzPSIyODYuMjUsMTU1Ny43NTM5LDI5MC4yNSwxNTY3Ljc1MzksMjk0LjI1LDE1NTcuNzUzOSwyOTAuMjUsMTU2MS43NTM5IiBzdHlsZT0ic3Ryb2tlOiMwMEJGRkY7c3Ryb2tlLXdpZHRoOjEuMDsiLz48bGluZSBzdHlsZT0ic3Ryb2tlOiMwMEJGRkY7c3Ryb2tlLXdpZHRoOjEuMDsiIHgxPSIyOTAuMjUiIHgyPSIyOTAuMjUiIHkxPSIxNDM0LjM5ODQiIHkyPSIxNjk3Ljk4NDQiLz48bGluZSBzdHlsZT0ic3Ryb2tlOiMwMEJGRkY7c3Ryb2tlLXdpZHRoOjEuMDsiIHgxPSIyOTAuMjUiIHgyPSIyODQiIHkxPSIxNjk3Ljk4NDQiIHkyPSIxNjk3Ljk4NDQiLz48bGluZSBzdHlsZT0ic3Ryb2tlOiMwMEJGRkY7c3Ryb2tlLXdpZHRoOjEuMDsiIHgxPSIyODQiIHgyPSIyODQiIHkxPSIxNjk3Ljk4NDQiIHkyPSIxNzEyLjk4NDQiLz48cG9seWdvbiBmaWxsPSIjMDBCRkZGIiBwb2ludHM9IjI4MCwxNzAyLjk4NDQsMjg0LDE3MTIuOTg0NCwyODgsMTcwMi45ODQ0LDI4NCwxNzA2Ljk4NDQiIHN0eWxlPSJzdHJva2U6IzAwQkZGRjtzdHJva2Utd2lkdGg6MS4wOyIvPjxsaW5lIHN0eWxlPSJzdHJva2U6IzAwQkZGRjtzdHJva2Utd2lkdGg6MS4wOyIgeDE9IjE4NS41IiB4Mj0iMTY5Ljc1IiB5MT0iMTQwMC4zOTg0IiB5Mj0iMTQwMC4zOTg0Ii8+PGxpbmUgc3R5bGU9InN0cm9rZTojMDBCRkZGO3N0cm9rZS13aWR0aDoxLjA7IiB4MT0iMTY5Ljc1IiB4Mj0iMTY5Ljc1IiB5MT0iMTQwMC4zOTg0IiB5Mj0iMTQyMi4zOTg0Ii8+PHBvbHlnb24gZmlsbD0iIzAwQkZGRiIgcG9pbnRzPSIxNjUuNzUsMTQxMi4zOTg0LDE2OS43NSwxNDIyLjM5ODQsMTczLjc1LDE0MTIuMzk4NCwxNjkuNzUsMTQxNi4zOTg0IiBzdHlsZT0ic3Ryb2tlOiMwMEJGRkY7c3Ryb2tlLXdpZHRoOjEuMDsiLz48bGluZSBzdHlsZT0ic3Ryb2tlOiMwMEJGRkY7c3Ryb2tlLXdpZHRoOjEuMDsiIHgxPSIzODIuNSIgeDI9IjM5OC4yNSIgeTE9IjE0MDAuMzk4NCIgeTI9IjE0MDAuMzk4NCIvPjxsaW5lIHN0eWxlPSJzdHJva2U6IzAwQkZGRjtzdHJva2Utd2lkdGg6MS4wOyIgeDE9IjM5OC4yNSIgeDI9IjM5OC4yNSIgeTE9IjE0MDAuMzk4NCIgeTI9IjE0MjIuMzk4NCIvPjxwb2x5Z29uIGZpbGw9IiMwMEJGRkYiIHBvaW50cz0iMzk0LjI1LDE0MTIuMzk4NCwzOTguMjUsMTQyMi4zOTg0LDQwMi4yNSwxNDEyLjM5ODQsMzk4LjI1LDE0MTYuMzk4NCIgc3R5bGU9InN0cm9rZTojMDBCRkZGO3N0cm9rZS13aWR0aDoxLjA7Ii8+PGxpbmUgc3R5bGU9InN0cm9rZTojMDBCRkZGO3N0cm9rZS13aWR0aDoxLjA7IiB4MT0iMjg0IiB4Mj0iMjg0IiB5MT0iMTM2OC4zOTg0IiB5Mj0iMTM4OC4zOTg0Ii8+PHBvbHlnb24gZmlsbD0iIzAwQkZGRiIgcG9pbnRzPSIyODAsMTM3OC4zOTg0LDI4NCwxMzg4LjM5ODQsMjg4LDEzNzguMzk4NCwyODQsMTM4Mi4zOTg0IiBzdHlsZT0ic3Ryb2tlOiMwMEJGRkY7c3Ryb2tlLXdpZHRoOjEuMDsiLz48bGluZSBzdHlsZT0ic3Ryb2tlOiMwMEJGRkY7c3Ryb2tlLXdpZHRoOjEuMDsiIHgxPSIyODQiIHgyPSIyODQiIHkxPSIxNzQ1LjgyODEiIHkyPSIxNzY1LjgyODEiLz48cG9seWdvbiBmaWxsPSIjMDBCRkZGIiBwb2ludHM9IjI4MCwxNzU1LjgyODEsMjg0LDE3NjUuODI4MSwyODgsMTc1NS44MjgxLDI4NCwxNzU5LjgyODEiIHN0eWxlPSJzdHJva2U6IzAwQkZGRjtzdHJva2Utd2lkdGg6MS4wOyIvPjxsaW5lIHN0eWxlPSJzdHJva2U6IzAwQkZGRjtzdHJva2Utd2lkdGg6MS4wOyIgeDE9IjI4NCIgeDI9IjI4NCIgeTE9IjE4NTUuODEyNSIgeTI9IjE4NzUuODEyNSIvPjxwb2x5Z29uIGZpbGw9IiMwMEJGRkYiIHBvaW50cz0iMjgwLDE4NjUuODEyNSwyODQsMTg3NS44MTI1LDI4OCwxODY1LjgxMjUsMjg0LDE4NjkuODEyNSIgc3R5bGU9InN0cm9rZTojMDBCRkZGO3N0cm9rZS13aWR0aDoxLjA7Ii8+PGxpbmUgc3R5bGU9InN0cm9rZTojMDBCRkZGO3N0cm9rZS13aWR0aDoxLjA7IiB4MT0iMjg0IiB4Mj0iMjg0IiB5MT0iMjAxNy4zOTg0IiB5Mj0iMjA0Ny4wMTE3Ii8+PHBvbHlnb24gZmlsbD0iIzAwQkZGRiIgcG9pbnRzPSIyODAsMjAzNy4wMTE3LDI4NCwyMDQ3LjAxMTcsMjg4LDIwMzcuMDExNywyODQsMjA0MS4wMTE3IiBzdHlsZT0ic3Ryb2tlOiMwMEJGRkY7c3Ryb2tlLXdpZHRoOjEuMDsiLz48bGluZSBzdHlsZT0ic3Ryb2tlOiMwMEJGRkY7c3Ryb2tlLXdpZHRoOjEuMDsiIHgxPSIyODQiIHgyPSIyODQiIHkxPSIxOTUyLjY1NjMiIHkyPSIxOTg0LjU1NDciLz48cG9seWdvbiBmaWxsPSIjMDBCRkZGIiBwb2ludHM9IjI4MCwxOTc0LjU1NDcsMjg0LDE5ODQuNTU0NywyODgsMTk3NC41NTQ3LDI4NCwxOTc4LjU1NDciIHN0eWxlPSJzdHJva2U6IzAwQkZGRjtzdHJva2Utd2lkdGg6MS4wOyIvPjxsaW5lIHN0eWxlPSJzdHJva2U6IzAwQkZGRjtzdHJva2Utd2lkdGg6MS4wOyIgeDE9IjI4NCIgeDI9IjI4NCIgeTE9IjIwNzkuODU1NSIgeTI9IjIwODkuODU1NSIvPjxsaW5lIHN0eWxlPSJzdHJva2U6IzAwQkZGRjtzdHJva2Utd2lkdGg6MS4wOyIgeDE9IjI4NCIgeDI9IjQyMCIgeTE9IjIwODkuODU1NSIgeTI9IjIwODkuODU1NSIvPjxwb2x5Z29uIGZpbGw9IiMwMEJGRkYiIHBvaW50cz0iNDE2LDIwMjcuMDExNyw0MjAsMjAxNy4wMTE3LDQyNCwyMDI3LjAxMTcsNDIwLDIwMjMuMDExNyIgc3R5bGU9InN0cm9rZTojMDBCRkZGO3N0cm9rZS13aWR0aDoxLjA7Ii8+PGxpbmUgc3R5bGU9InN0cm9rZTojMDBCRkZGO3N0cm9rZS13aWR0aDoxLjA7IiB4MT0iNDIwIiB4Mj0iNDIwIiB5MT0iMTk0MC42NTYzIiB5Mj0iMjA4OS44NTU1Ii8+PGxpbmUgc3R5bGU9InN0cm9rZTojMDBCRkZGO3N0cm9rZS13aWR0aDoxLjA7IiB4MT0iNDIwIiB4Mj0iMzc2LjUiIHkxPSIxOTQwLjY1NjMiIHkyPSIxOTQwLjY1NjMiLz48cG9seWdvbiBmaWxsPSIjMDBCRkZGIiBwb2ludHM9IjM4Ni41LDE5MzYuNjU2MywzNzYuNSwxOTQwLjY1NjMsMzg2LjUsMTk0NC42NTYzLDM4Mi41LDE5NDAuNjU2MyIgc3R5bGU9InN0cm9rZTojMDBCRkZGO3N0cm9rZS13aWR0aDoxLjA7Ii8+PGxpbmUgc3R5bGU9InN0cm9rZTojMDBCRkZGO3N0cm9rZS13aWR0aDoxLjA7IiB4MT0iMTkxLjUiIHgyPSIxNDgiIHkxPSIxOTQwLjY1NjMiIHkyPSIxOTQwLjY1NjMiLz48cG9seWdvbiBmaWxsPSIjMDBCRkZGIiBwb2ludHM9IjE0NCwyMDEzLjAxMTcsMTQ4LDIwMjMuMDExNywxNTIsMjAxMy4wMTE3LDE0OCwyMDE3LjAxMTciIHN0eWxlPSJzdHJva2U6IzAwQkZGRjtzdHJva2Utd2lkdGg6MS4wOyIvPjxsaW5lIHN0eWxlPSJzdHJva2U6IzAwQkZGRjtzdHJva2Utd2lkdGg6MS4wOyIgeDE9IjE0OCIgeDI9IjE0OCIgeTE9IjE5NDAuNjU2MyIgeTI9IjIxMDEuODU1NSIvPjxsaW5lIHN0eWxlPSJzdHJva2U6IzAwQkZGRjtzdHJva2Utd2lkdGg6MS4wOyIgeDE9IjE0OCIgeDI9IjI4NCIgeTE9IjIxMDEuODU1NSIgeTI9IjIxMDEuODU1NSIvPjxsaW5lIHN0eWxlPSJzdHJva2U6IzAwQkZGRjtzdHJva2Utd2lkdGg6MS4wOyIgeDE9IjI4NCIgeDI9IjI4NCIgeTE9IjIxMDEuODU1NSIgeTI9IjIxMjEuODU1NSIvPjxwb2x5Z29uIGZpbGw9IiMwMEJGRkYiIHBvaW50cz0iMjgwLDIxMTEuODU1NSwyODQsMjEyMS44NTU1LDI4OCwyMTExLjg1NTUsMjg0LDIxMTUuODU1NSIgc3R5bGU9InN0cm9rZTojMDBCRkZGO3N0cm9rZS13aWR0aDoxLjA7Ii8+PGxpbmUgc3R5bGU9InN0cm9rZTojMDBCRkZGO3N0cm9rZS13aWR0aDoxLjA7IiB4MT0iMjg0IiB4Mj0iMjg0IiB5MT0iMTkwOC42NTYzIiB5Mj0iMTkyOC42NTYzIi8+PHBvbHlnb24gZmlsbD0iIzAwQkZGRiIgcG9pbnRzPSIyODAsMTkxOC42NTYzLDI4NCwxOTI4LjY1NjMsMjg4LDE5MTguNjU2MywyODQsMTkyMi42NTYzIiBzdHlsZT0ic3Ryb2tlOiMwMEJGRkY7c3Ryb2tlLXdpZHRoOjEuMDsiLz48bGluZSBzdHlsZT0ic3Ryb2tlOiMwMEJGRkY7c3Ryb2tlLXdpZHRoOjEuMDsiIHgxPSIyODQiIHgyPSIyODQiIHkxPSIyMTU0LjY5OTIiIHkyPSIyMTc0LjY5OTIiLz48cG9seWdvbiBmaWxsPSIjMDBCRkZGIiBwb2ludHM9IjI4MCwyMTY0LjY5OTIsMjg0LDIxNzQuNjk5MiwyODgsMjE2NC42OTkyLDI4NCwyMTY4LjY5OTIiIHN0eWxlPSJzdHJva2U6IzAwQkZGRjtzdHJva2Utd2lkdGg6MS4wOyIvPjxsaW5lIHN0eWxlPSJzdHJva2U6IzAwQkZGRjtzdHJva2Utd2lkdGg6MS4wOyIgeDE9IjI4NCIgeDI9IjI4NCIgeTE9IjIzMTYuMjg1MiIgeTI9IjIzNDUuODk4NCIvPjxwb2x5Z29uIGZpbGw9IiMwMEJGRkYiIHBvaW50cz0iMjgwLDIzMzUuODk4NCwyODQsMjM0NS44OTg0LDI4OCwyMzM1Ljg5ODQsMjg0LDIzMzkuODk4NCIgc3R5bGU9InN0cm9rZTojMDBCRkZGO3N0cm9rZS13aWR0aDoxLjA7Ii8+PGxpbmUgc3R5bGU9InN0cm9rZTojMDBCRkZGO3N0cm9rZS13aWR0aDoxLjA7IiB4MT0iMjg0IiB4Mj0iMjg0IiB5MT0iMjI1MS41NDMiIHkyPSIyMjgzLjQ0MTQiLz48cG9seWdvbiBmaWxsPSIjMDBCRkZGIiBwb2ludHM9IjI4MCwyMjczLjQ0MTQsMjg0LDIyODMuNDQxNCwyODgsMjI3My40NDE0LDI4NCwyMjc3LjQ0MTQiIHN0eWxlPSJzdHJva2U6IzAwQkZGRjtzdHJva2Utd2lkdGg6MS4wOyIvPjxsaW5lIHN0eWxlPSJzdHJva2U6IzAwQkZGRjtzdHJva2Utd2lkdGg6MS4wOyIgeDE9IjI4NCIgeDI9IjI4NCIgeTE9IjIzNzguNzQyMiIgeTI9IjIzODguNzQyMiIvPjxsaW5lIHN0eWxlPSJzdHJva2U6IzAwQkZGRjtzdHJva2Utd2lkdGg6MS4wOyIgeDE9IjI4NCIgeDI9IjQyMyIgeTE9IjIzODguNzQyMiIgeTI9IjIzODguNzQyMiIvPjxwb2x5Z29uIGZpbGw9IiMwMEJGRkYiIHBvaW50cz0iNDE5LDIzMjUuODk4NCw0MjMsMjMxNS44OTg0LDQyNywyMzI1Ljg5ODQsNDIzLDIzMjEuODk4NCIgc3R5bGU9InN0cm9rZTojMDBCRkZGO3N0cm9rZS13aWR0aDoxLjA7Ii8+PGxpbmUgc3R5bGU9InN0cm9rZTojMDBCRkZGO3N0cm9rZS13aWR0aDoxLjA7IiB4MT0iNDIzIiB4Mj0iNDIzIiB5MT0iMjIzOS41NDMiIHkyPSIyMzg4Ljc0MjIiLz48bGluZSBzdHlsZT0ic3Ryb2tlOiMwMEJGRkY7c3Ryb2tlLXdpZHRoOjEuMDsiIHgxPSI0MjMiIHgyPSIzNzkuNSIgeTE9IjIyMzkuNTQzIiB5Mj0iMjIzOS41NDMiLz48cG9seWdvbiBmaWxsPSIjMDBCRkZGIiBwb2ludHM9IjM4OS41LDIyMzUuNTQzLDM3OS41LDIyMzkuNTQzLDM4OS41LDIyNDMuNTQzLDM4NS41LDIyMzkuNTQzIiBzdHlsZT0ic3Ryb2tlOiMwMEJGRkY7c3Ryb2tlLXdpZHRoOjEuMDsiLz48bGluZSBzdHlsZT0ic3Ryb2tlOiMwMEJGRkY7c3Ryb2tlLXdpZHRoOjEuMDsiIHgxPSIxODguNSIgeDI9IjE0NSIgeTE9IjIyMzkuNTQzIiB5Mj0iMjIzOS41NDMiLz48cG9seWdvbiBmaWxsPSIjMDBCRkZGIiBwb2ludHM9IjE0MSwyMzExLjg5ODQsMTQ1LDIzMjEuODk4NCwxNDksMjMxMS44OTg0LDE0NSwyMzE1Ljg5ODQiIHN0eWxlPSJzdHJva2U6IzAwQkZGRjtzdHJva2Utd2lkdGg6MS4wOyIvPjxsaW5lIHN0eWxlPSJzdHJva2U6IzAwQkZGRjtzdHJva2Utd2lkdGg6MS4wOyIgeDE9IjE0NSIgeDI9IjE0NSIgeTE9IjIyMzkuNTQzIiB5Mj0iMjQwMC43NDIyIi8+PGxpbmUgc3R5bGU9InN0cm9rZTojMDBCRkZGO3N0cm9rZS13aWR0aDoxLjA7IiB4MT0iMTQ1IiB4Mj0iMjg0IiB5MT0iMjQwMC43NDIyIiB5Mj0iMjQwMC43NDIyIi8+PGxpbmUgc3R5bGU9InN0cm9rZTojMDBCRkZGO3N0cm9rZS13aWR0aDoxLjA7IiB4MT0iMjg0IiB4Mj0iMjg0IiB5MT0iMjQwMC43NDIyIiB5Mj0iMjQyMC43NDIyIi8+PHBvbHlnb24gZmlsbD0iIzAwQkZGRiIgcG9pbnRzPSIyODAsMjQxMC43NDIyLDI4NCwyNDIwLjc0MjIsMjg4LDI0MTAuNzQyMiwyODQsMjQxNC43NDIyIiBzdHlsZT0ic3Ryb2tlOiMwMEJGRkY7c3Ryb2tlLXdpZHRoOjEuMDsiLz48bGluZSBzdHlsZT0ic3Ryb2tlOiMwMEJGRkY7c3Ryb2tlLXdpZHRoOjEuMDsiIHgxPSIyODQiIHgyPSIyODQiIHkxPSIyMjA3LjU0MyIgeTI9IjIyMjcuNTQzIi8+PHBvbHlnb24gZmlsbD0iIzAwQkZGRiIgcG9pbnRzPSIyODAsMjIxNy41NDMsMjg0LDIyMjcuNTQzLDI4OCwyMjE3LjU0MywyODQsMjIyMS41NDMiIHN0eWxlPSJzdHJva2U6IzAwQkZGRjtzdHJva2Utd2lkdGg6MS4wOyIvPjxsaW5lIHN0eWxlPSJzdHJva2U6IzAwQkZGRjtzdHJva2Utd2lkdGg6MS4wOyIgeDE9IjIwMyIgeDI9IjE0OC41IiB5MT0iMjQzMi43NDIyIiB5Mj0iMjQzMi43NDIyIi8+PGxpbmUgc3R5bGU9InN0cm9rZTojMDBCRkZGO3N0cm9rZS13aWR0aDoxLjA7IiB4MT0iMTQ4LjUiIHgyPSIxNDguNSIgeTE9IjI0MzIuNzQyMiIgeTI9IjI0NTQuNzQyMiIvPjxwb2x5Z29uIGZpbGw9IiMwMEJGRkYiIHBvaW50cz0iMTQ0LjUsMjQ0NC43NDIyLDE0OC41LDI0NTQuNzQyMiwxNTIuNSwyNDQ0Ljc0MjIsMTQ4LjUsMjQ0OC43NDIyIiBzdHlsZT0ic3Ryb2tlOiMwMEJGRkY7c3Ryb2tlLXdpZHRoOjEuMDsiLz48bGluZSBzdHlsZT0ic3Ryb2tlOiMwMEJGRkY7c3Ryb2tlLXdpZHRoOjEuMDsiIHgxPSIzNjUiIHgyPSI0MTkuNSIgeTE9IjI0MzIuNzQyMiIgeTI9IjI0MzIuNzQyMiIvPjxsaW5lIHN0eWxlPSJzdHJva2U6IzAwQkZGRjtzdHJva2Utd2lkdGg6MS4wOyIgeDE9IjQxOS41IiB4Mj0iNDE5LjUiIHkxPSIyNDMyLjc0MjIiIHkyPSIyNDU0Ljc0MjIiLz48cG9seWdvbiBmaWxsPSIjMDBCRkZGIiBwb2ludHM9IjQxNS41LDI0NDQuNzQyMiw0MTkuNSwyNDU0Ljc0MjIsNDIzLjUsMjQ0NC43NDIyLDQxOS41LDI0NDguNzQyMiIgc3R5bGU9InN0cm9rZTojMDBCRkZGO3N0cm9rZS13aWR0aDoxLjA7Ii8+PGxpbmUgc3R5bGU9InN0cm9rZTojMDBCRkZGO3N0cm9rZS13aWR0aDoxLjA7IiB4MT0iMTQ4LjUiIHgyPSIxNDguNSIgeTE9IjI0ODcuNTg1OSIgeTI9IjI1MDUuNTg1OSIvPjxsaW5lIHN0eWxlPSJzdHJva2U6IzAwQkZGRjtzdHJva2Utd2lkdGg6MS4wOyIgeDE9IjE0OC41IiB4Mj0iMjcyIiB5MT0iMjUwNS41ODU5IiB5Mj0iMjUwNS41ODU5Ii8+PHBvbHlnb24gZmlsbD0iIzAwQkZGRiIgcG9pbnRzPSIyNjIsMjUwMS41ODU5LDI3MiwyNTA1LjU4NTksMjYyLDI1MDkuNTg1OSwyNjYsMjUwNS41ODU5IiBzdHlsZT0ic3Ryb2tlOiMwMEJGRkY7c3Ryb2tlLXdpZHRoOjEuMDsiLz48bGluZSBzdHlsZT0ic3Ryb2tlOiMwMEJGRkY7c3Ryb2tlLXdpZHRoOjEuMDsiIHgxPSI0MTkuNSIgeDI9IjQxOS41IiB5MT0iMjQ4Ny41ODU5IiB5Mj0iMjUwNS41ODU5Ii8+PGxpbmUgc3R5bGU9InN0cm9rZTojMDBCRkZGO3N0cm9rZS13aWR0aDoxLjA7IiB4MT0iNDE5LjUiIHgyPSIyOTYiIHkxPSIyNTA1LjU4NTkiIHkyPSIyNTA1LjU4NTkiLz48cG9seWdvbiBmaWxsPSIjMDBCRkZGIiBwb2ludHM9IjMwNiwyNTAxLjU4NTksMjk2LDI1MDUuNTg1OSwzMDYsMjUwOS41ODU5LDMwMiwyNTA1LjU4NTkiIHN0eWxlPSJzdHJva2U6IzAwQkZGRjtzdHJva2Utd2lkdGg6MS4wOyIvPjxsaW5lIHN0eWxlPSJzdHJva2U6IzAwQkZGRjtzdHJva2Utd2lkdGg6MS4wOyIgeDE9IjI4NCIgeDI9IjI4NCIgeTE9IjI1MTcuNTg1OSIgeTI9IjI1MzcuNTg1OSIvPjxwb2x5Z29uIGZpbGw9IiMwMEJGRkYiIHBvaW50cz0iMjgwLDI1MjcuNTg1OSwyODQsMjUzNy41ODU5LDI4OCwyNTI3LjU4NTksMjg0LDI1MzEuNTg1OSIgc3R5bGU9InN0cm9rZTojMDBCRkZGO3N0cm9rZS13aWR0aDoxLjA7Ii8+PCEtLVNSQz1baExKOVJYaW4zQnRGTG4wLUQzT1F2MERpNjRLTTEyWkd2ajBTcXkyR0h4SDdvNEdvOTNnRU0tSlZJc3RacVRXZk1oSU5QNG5JdjdrRll0aklVWUVpVTBSTjI2YnNJZ3pYOUxnN2JVaXlJcjRfaFF0UFFkYmpNY0RYcm9aZy1vLWpEUmxla2E3U3QzX2poemZqRnEzS2Y1dUt4VTVkMU4wcm9GUDVoSGxBUnpYamg0SHhkMHRXcmNZQXpjTkJFUWd0Z2Q4YUI1S0xMbzU1b2NXT1ZUUnk4TGhyMHFVWHNsSENUUFI1b2Q4QVhUUVRKVGJyUkw0R0dpWkhrVTAzaDhyZWt6eVNUb2FiRUJFckRPOHM0ZTdDdTRzQU9UaVFnT2lmcWlvZzhIUHl0SjBMYjBrZlFaZTFBRmpYZndYOXpRVHRIa0NYQzVHZXVvQTY0M1ZwMGQ2aE1lSm5XQUZHaWVKdE5NajNXQ3lSc2QtUVc3OG10Z0VSU0FNVWloVjZ4ZUlMUzhfMnJhckticGJQVERrTU8wdWtzMVVFUzNDRUJYWjhUNXZPQy12aUJTWGF1c1dMWXV1Y2lzMDlWekdBbmdkZ29leUg4d082VE9Tdm1GZzZqQk1ReUxDcElwUktpYWhfck9nX3RnZ0llMV9DbHNMT2dGWFJBZ1RQWnZRZlE2UnV0cGRvTG5lMlJJUExiSF81Mk41YURpTnd6Mlg2X2Q3MzhnMWtWbEFXMzIyTGtHem1DWFlfMGM0eHZmMUpOTFh5RFl5dTNrb2RNUHE3N3ROMWZHYVZFVFpfY2lOdDdpUjEyS2czT0gyc3FfSzRnQWtqUVlLaWJMR01ReXpJajN0OVphTENjRmE0SGljeUJJZDhBbTBld1dPcXlqNVE2WGp0SFVDaHZRTzRXQ2FCVmdhT09oVVlidFN0U1RGT2MxS3VyTGM2YkxReVJacHVCNDNvWE1EWnU3MVJranU3Y1NETkdZb3Y1UERVMnVPanljSlZZV2JPVWhhTU5ldm8wQVE3b25oNE1nSkxWN1pxVVJlSGF2V1Q1dm1LREwtTEwtTjhiTVNiYUhZQnE5MXAyRHNTVTVCenJBYjNOdGIwZWlsZEl3WHhDbnJPbFYxTG55N2hLd1pwbFh0M3Bmdl9tOXJKXzI3bURDX1RPQzl5VmhYdXh3ek5kb0h5RkF2U1pjeG5BZVZiUHBzWHl1STRZVlc1XS0tPjwvZz48L3N2Zz4=;" vertex="1" parent="KHU4US2tGuuYrZfUwwJg-1">
            <mxGeometry x="50" y="-220" width="568" height="2580" as="geometry" />
          </mxCell>
        </UserObject>
      </root>
    </mxGraphModel>
  </diagram>
  <diagram name="Copy of Copy of Page-2" id="tv85x7prWZsetHKy9ggD">
    <mxGraphModel dx="1282" dy="1679" grid="1" gridSize="10" guides="1" tooltips="1" connect="1" arrows="1" fold="1" page="1" pageScale="1" pageWidth="850" pageHeight="1100" math="0" shadow="0">
      <root>
        <mxCell id="XMvLstlO6ftKEk1OnWNJ-0" />
        <mxCell id="XMvLstlO6ftKEk1OnWNJ-1" parent="XMvLstlO6ftKEk1OnWNJ-0" />
        <UserObject label="" plantUmlData="{&quot;data&quot;:&quot;@startuml\nskinparam shadowing false\nskinparam backgroundColor white\nskinparam ArrowColor DeepSkyBlue\nskinparam activity {\n  BackgroundColor LightSkyBlue\n  BorderColor DeepSkyBlue\n  FontColor black\n}\n\nstart\n:Initialize start_frontier with source node;\n:Initialize goal_frontier with target node;\n:Initialize start_explored dictionary with source;\n:Initialize goal_explored dictionary with target;\n\nwhile (start_frontier and goal_frontier not empty?) is (yes)\n  \n  &#39;Forward search step\n  :Get node from start_frontier;\n  :Add node to start_explored;\n  \n  if (node exists in goal_explored?) then (yes)\n    :Build forward path;\n    :Build backward path;\n    :Combine paths based on direction;\n    :Return combined path;\n    end\n  else (no)\n    :Get neighbors for current node;\n    while (For each neighbor) is (next)\n      if (neighbor not in start_explored AND\\nnot in start_frontier?) then (yes)\n        :Create child node;\n        :Add to start_frontier;\n      endif\n    endwhile (done)\n  endif\n  \n  &#39;Backward search step\n  :Get node from goal_frontier;\n  :Add node to goal_explored;\n  \n  if (node exists in start_explored?) then (yes)\n    :Build forward path;\n    :Build backward path;\n    :Combine paths based on direction;\n    :Return combined path;\n    end\n  else (no)\n    :Get neighbors for current node;\n    while (For each neighbor) is (next)\n      if (neighbor not in goal_explored AND\\nnot in goal_frontier?) then (yes)\n        :Create child node;\n        :Add to goal_frontier;\n      endif\n    endwhile (done)\n  endif\n\nendwhile (no)\n\n:Return None - No path found;\n\nstop\n@enduml&quot;,&quot;format&quot;:&quot;svg&quot;}" id="XMvLstlO6ftKEk1OnWNJ-2">
          <mxCell style="shape=image;noLabel=1;verticalAlign=top;aspect=fixed;imageAspect=0;image=data:image/svg+xml,PD94bWwgdmVyc2lvbj0iMS4wIiBlbmNvZGluZz0idXMtYXNjaWkiIHN0YW5kYWxvbmU9Im5vIj8+PHN2ZyB4bWxucz0iaHR0cDovL3d3dy53My5vcmcvMjAwMC9zdmciIHhtbG5zOnhsaW5rPSJodHRwOi8vd3d3LnczLm9yZy8xOTk5L3hsaW5rIiBjb250ZW50U3R5bGVUeXBlPSJ0ZXh0L2NzcyIgaGVpZ2h0PSIxNDEwcHgiIHByZXNlcnZlQXNwZWN0UmF0aW89Im5vbmUiIHN0eWxlPSJ3aWR0aDo2MDFweDtoZWlnaHQ6MTQxMHB4O2JhY2tncm91bmQ6I0ZGRkZGRjsiIHZlcnNpb249IjEuMSIgdmlld0JveD0iMCAwIDYwMSAxNDEwIiB3aWR0aD0iNjAxcHgiIHpvb21BbmRQYW49Im1hZ25pZnkiPjxkZWZzLz48Zz48ZWxsaXBzZSBjeD0iMjkxLjc1IiBjeT0iMjAiIGZpbGw9IiMyMjIyMjIiIHJ4PSIxMCIgcnk9IjEwIiBzdHlsZT0ic3Ryb2tlOiMyMjIyMjI7c3Ryb2tlLXdpZHRoOjEuMDsiLz48cmVjdCBmaWxsPSIjODdDRUZBIiBoZWlnaHQ9IjMyLjg0MzgiIHJ4PSIxMi41IiByeT0iMTIuNSIgc3R5bGU9InN0cm9rZTojMDBCRkZGO3N0cm9rZS13aWR0aDowLjU7IiB3aWR0aD0iMjkzIiB4PSIxNDUuMjUiIHk9IjUwIi8+PHRleHQgZmlsbD0iIzAwMDAwMCIgZm9udC1mYW1pbHk9InNhbnMtc2VyaWYiIGZvbnQtc2l6ZT0iMTIiIGxlbmd0aEFkanVzdD0ic3BhY2luZyIgdGV4dExlbmd0aD0iMjczIiB4PSIxNTUuMjUiIHk9IjcxLjM0MzgiPkluaXRpYWxpemUgc3RhcnRfZnJvbnRpZXIgd2l0aCBzb3VyY2Ugbm9kZTwvdGV4dD48cmVjdCBmaWxsPSIjODdDRUZBIiBoZWlnaHQ9IjMyLjg0MzgiIHJ4PSIxMi41IiByeT0iMTIuNSIgc3R5bGU9InN0cm9rZTojMDBCRkZGO3N0cm9rZS13aWR0aDowLjU7IiB3aWR0aD0iMjg2IiB4PSIxNDguNzUiIHk9IjEwMi44NDM4Ii8+PHRleHQgZmlsbD0iIzAwMDAwMCIgZm9udC1mYW1pbHk9InNhbnMtc2VyaWYiIGZvbnQtc2l6ZT0iMTIiIGxlbmd0aEFkanVzdD0ic3BhY2luZyIgdGV4dExlbmd0aD0iMjY2IiB4PSIxNTguNzUiIHk9IjEyNC4xODc1Ij5Jbml0aWFsaXplIGdvYWxfZnJvbnRpZXIgd2l0aCB0YXJnZXQgbm9kZTwvdGV4dD48cmVjdCBmaWxsPSIjODdDRUZBIiBoZWlnaHQ9IjMyLjg0MzgiIHJ4PSIxMi41IiByeT0iMTIuNSIgc3R5bGU9InN0cm9rZTojMDBCRkZGO3N0cm9rZS13aWR0aDowLjU7IiB3aWR0aD0iMzMzIiB4PSIxMjUuMjUiIHk9IjE1NS42ODc1Ii8+PHRleHQgZmlsbD0iIzAwMDAwMCIgZm9udC1mYW1pbHk9InNhbnMtc2VyaWYiIGZvbnQtc2l6ZT0iMTIiIGxlbmd0aEFkanVzdD0ic3BhY2luZyIgdGV4dExlbmd0aD0iMzEzIiB4PSIxMzUuMjUiIHk9IjE3Ny4wMzEzIj5Jbml0aWFsaXplIHN0YXJ0X2V4cGxvcmVkIGRpY3Rpb25hcnkgd2l0aCBzb3VyY2U8L3RleHQ+PHJlY3QgZmlsbD0iIzg3Q0VGQSIgaGVpZ2h0PSIzMi44NDM4IiByeD0iMTIuNSIgcnk9IjEyLjUiIHN0eWxlPSJzdHJva2U6IzAwQkZGRjtzdHJva2Utd2lkdGg6MC41OyIgd2lkdGg9IjMyNiIgeD0iMTI4Ljc1IiB5PSIyMDguNTMxMyIvPjx0ZXh0IGZpbGw9IiMwMDAwMDAiIGZvbnQtZmFtaWx5PSJzYW5zLXNlcmlmIiBmb250LXNpemU9IjEyIiBsZW5ndGhBZGp1c3Q9InNwYWNpbmciIHRleHRMZW5ndGg9IjMwNiIgeD0iMTM4Ljc1IiB5PSIyMjkuODc1Ij5Jbml0aWFsaXplIGdvYWxfZXhwbG9yZWQgZGljdGlvbmFyeSB3aXRoIHRhcmdldDwvdGV4dD48cmVjdCBmaWxsPSIjODdDRUZBIiBoZWlnaHQ9IjMyLjg0MzgiIHJ4PSIxMi41IiByeT0iMTIuNSIgc3R5bGU9InN0cm9rZTojMDBCRkZGO3N0cm9rZS13aWR0aDowLjU7IiB3aWR0aD0iMjA0IiB4PSIxODkuNzUiIHk9IjMxNy4yNzM0Ii8+PHRleHQgZmlsbD0iIzAwMDAwMCIgZm9udC1mYW1pbHk9InNhbnMtc2VyaWYiIGZvbnQtc2l6ZT0iMTIiIGxlbmd0aEFkanVzdD0ic3BhY2luZyIgdGV4dExlbmd0aD0iMTg0IiB4PSIxOTkuNzUiIHk9IjMzOC42MTcyIj5HZXQgbm9kZSBmcm9tIHN0YXJ0X2Zyb250aWVyPC90ZXh0PjxyZWN0IGZpbGw9IiM4N0NFRkEiIGhlaWdodD0iMzIuODQzOCIgcng9IjEyLjUiIHJ5PSIxMi41IiBzdHlsZT0ic3Ryb2tlOiMwMEJGRkY7c3Ryb2tlLXdpZHRoOjAuNTsiIHdpZHRoPSIxOTQiIHg9IjE5NC43NSIgeT0iMzcwLjExNzIiLz48dGV4dCBmaWxsPSIjMDAwMDAwIiBmb250LWZhbWlseT0ic2Fucy1zZXJpZiIgZm9udC1zaXplPSIxMiIgbGVuZ3RoQWRqdXN0PSJzcGFjaW5nIiB0ZXh0TGVuZ3RoPSIxNzQiIHg9IjIwNC43NSIgeT0iMzkxLjQ2MDkiPkFkZCBub2RlIHRvIHN0YXJ0X2V4cGxvcmVkPC90ZXh0Pjxwb2x5Z29uIGZpbGw9IiM4N0NFRkEiIHBvaW50cz0iMjA0Ljc1LDQyMi45NjA5LDM3OC43NSw0MjIuOTYwOSwzOTAuNzUsNDM0Ljk2MDksMzc4Ljc1LDQ0Ni45NjA5LDIwNC43NSw0NDYuOTYwOSwxOTIuNzUsNDM0Ljk2MDksMjA0Ljc1LDQyMi45NjA5IiBzdHlsZT0ic3Ryb2tlOiMwMEJGRkY7c3Ryb2tlLXdpZHRoOjAuNTsiLz48dGV4dCBmaWxsPSIjMDAwMDAwIiBmb250LWZhbWlseT0ic2Fucy1zZXJpZiIgZm9udC1zaXplPSIxMSIgbGVuZ3RoQWRqdXN0PSJzcGFjaW5nIiB0ZXh0TGVuZ3RoPSIxNzQiIHg9IjIwNC43NSIgeT0iNDM5LjQ3MjciPm5vZGUgZXhpc3RzIGluIGdvYWxfZXhwbG9yZWQ/PC90ZXh0Pjx0ZXh0IGZpbGw9IiMwMDAwMDAiIGZvbnQtZmFtaWx5PSJzYW5zLXNlcmlmIiBmb250LXNpemU9IjExIiBsZW5ndGhBZGp1c3Q9InNwYWNpbmciIHRleHRMZW5ndGg9IjE4IiB4PSIxNzQuNzUiIHk9IjQzMy41ODU5Ij55ZXM8L3RleHQ+PHRleHQgZmlsbD0iIzAwMDAwMCIgZm9udC1mYW1pbHk9InNhbnMtc2VyaWYiIGZvbnQtc2l6ZT0iMTEiIGxlbmd0aEFkanVzdD0ic3BhY2luZyIgdGV4dExlbmd0aD0iMTIiIHg9IjM5MC43NSIgeT0iNDMzLjU4NTkiPm5vPC90ZXh0PjxyZWN0IGZpbGw9IiM4N0NFRkEiIGhlaWdodD0iMzIuODQzOCIgcng9IjEyLjUiIHJ5PSIxMi41IiBzdHlsZT0ic3Ryb2tlOiMwMEJGRkY7c3Ryb2tlLXdpZHRoOjAuNTsiIHdpZHRoPSIxMzkiIHg9Ijg1IiB5PSI0NTYuOTYwOSIvPjx0ZXh0IGZpbGw9IiMwMDAwMDAiIGZvbnQtZmFtaWx5PSJzYW5zLXNlcmlmIiBmb250LXNpemU9IjEyIiBsZW5ndGhBZGp1c3Q9InNwYWNpbmciIHRleHRMZW5ndGg9IjExOSIgeD0iOTUiIHk9IjQ3OC4zMDQ3Ij5CdWlsZCBmb3J3YXJkIHBhdGg8L3RleHQ+PHJlY3QgZmlsbD0iIzg3Q0VGQSIgaGVpZ2h0PSIzMi44NDM4IiByeD0iMTIuNSIgcnk9IjEyLjUiIHN0eWxlPSJzdHJva2U6IzAwQkZGRjtzdHJva2Utd2lkdGg6MC41OyIgd2lkdGg9IjE0NSIgeD0iODIiIHk9IjUwOS44MDQ3Ii8+PHRleHQgZmlsbD0iIzAwMDAwMCIgZm9udC1mYW1pbHk9InNhbnMtc2VyaWYiIGZvbnQtc2l6ZT0iMTIiIGxlbmd0aEFkanVzdD0ic3BhY2luZyIgdGV4dExlbmd0aD0iMTI1IiB4PSI5MiIgeT0iNTMxLjE0ODQiPkJ1aWxkIGJhY2t3YXJkIHBhdGg8L3RleHQ+PHJlY3QgZmlsbD0iIzg3Q0VGQSIgaGVpZ2h0PSIzMi44NDM4IiByeD0iMTIuNSIgcnk9IjEyLjUiIHN0eWxlPSJzdHJva2U6IzAwQkZGRjtzdHJva2Utd2lkdGg6MC41OyIgd2lkdGg9IjIzMyIgeD0iMzgiIHk9IjU3My43NzM0Ii8+PHRleHQgZmlsbD0iIzAwMDAwMCIgZm9udC1mYW1pbHk9InNhbnMtc2VyaWYiIGZvbnQtc2l6ZT0iMTIiIGxlbmd0aEFkanVzdD0ic3BhY2luZyIgdGV4dExlbmd0aD0iMjEzIiB4PSI0OCIgeT0iNTk1LjExNzIiPkNvbWJpbmUgcGF0aHMgYmFzZWQgb24gZGlyZWN0aW9uPC90ZXh0PjxyZWN0IGZpbGw9IiM4N0NFRkEiIGhlaWdodD0iMzIuODQzOCIgcng9IjEyLjUiIHJ5PSIxMi41IiBzdHlsZT0ic3Ryb2tlOiMwMEJGRkY7c3Ryb2tlLXdpZHRoOjAuNTsiIHdpZHRoPSIxNTMiIHg9Ijc4IiB5PSI2NDEuNjE3MiIvPjx0ZXh0IGZpbGw9IiMwMDAwMDAiIGZvbnQtZmFtaWx5PSJzYW5zLXNlcmlmIiBmb250LXNpemU9IjEyIiBsZW5ndGhBZGp1c3Q9InNwYWNpbmciIHRleHRMZW5ndGg9IjEzMyIgeD0iODgiIHk9IjY2Mi45NjA5Ij5SZXR1cm4gY29tYmluZWQgcGF0aDwvdGV4dD48ZWxsaXBzZSBjeD0iMTU0LjUiIGN5PSI3MTkuNDYwOSIgZmlsbD0ibm9uZSIgcng9IjEwIiByeT0iMTAiIHN0eWxlPSJzdHJva2U6IzIyMjIyMjtzdHJva2Utd2lkdGg6MS41OyIvPjxsaW5lIHN0eWxlPSJzdHJva2U6IzIyMjIyMjtzdHJva2Utd2lkdGg6Mi41OyIgeDE9IjE0OC4zMTI4IiB4Mj0iMTYwLjY4NzIiIHkxPSI3MTMuMjczOCIgeTI9IjcyNS42NDgxIi8+PGxpbmUgc3R5bGU9InN0cm9rZTojMjIyMjIyO3N0cm9rZS13aWR0aDoyLjU7IiB4MT0iMTYwLjY4NzIiIHgyPSIxNDguMzEyOCIgeTE9IjcxMy4yNzM4IiB5Mj0iNzI1LjY0ODEiLz48cmVjdCBmaWxsPSIjODdDRUZBIiBoZWlnaHQ9IjMyLjg0MzgiIHJ4PSIxMi41IiByeT0iMTIuNSIgc3R5bGU9InN0cm9rZTojMDBCRkZGO3N0cm9rZS13aWR0aDowLjU7IiB3aWR0aD0iMjIxIiB4PSIzMTguNSIgeT0iNDU2Ljk2MDkiLz48dGV4dCBmaWxsPSIjMDAwMDAwIiBmb250LWZhbWlseT0ic2Fucy1zZXJpZiIgZm9udC1zaXplPSIxMiIgbGVuZ3RoQWRqdXN0PSJzcGFjaW5nIiB0ZXh0TGVuZ3RoPSIyMDEiIHg9IjMyOC41IiB5PSI0NzguMzA0NyI+R2V0IG5laWdoYm9ycyBmb3IgY3VycmVudCBub2RlPC90ZXh0PjxyZWN0IGZpbGw9IiM4N0NFRkEiIGhlaWdodD0iMzIuODQzOCIgcng9IjEyLjUiIHJ5PSIxMi41IiBzdHlsZT0ic3Ryb2tlOiMwMEJGRkY7c3Ryb2tlLXdpZHRoOjAuNTsiIHdpZHRoPSIxMzMiIHg9IjM2Mi41IiB5PSI2MTMuNzAzMSIvPjx0ZXh0IGZpbGw9IiMwMDAwMDAiIGZvbnQtZmFtaWx5PSJzYW5zLXNlcmlmIiBmb250LXNpemU9IjEyIiBsZW5ndGhBZGp1c3Q9InNwYWNpbmciIHRleHRMZW5ndGg9IjExMyIgeD0iMzcyLjUiIHk9IjYzNS4wNDY5Ij5DcmVhdGUgY2hpbGQgbm9kZTwvdGV4dD48cmVjdCBmaWxsPSIjODdDRUZBIiBoZWlnaHQ9IjMyLjg0MzgiIHJ4PSIxMi41IiByeT0iMTIuNSIgc3R5bGU9InN0cm9rZTojMDBCRkZGO3N0cm9rZS13aWR0aDowLjU7IiB3aWR0aD0iMTU4IiB4PSIzNTAiIHk9IjY4MS41NDY5Ii8+PHRleHQgZmlsbD0iIzAwMDAwMCIgZm9udC1mYW1pbHk9InNhbnMtc2VyaWYiIGZvbnQtc2l6ZT0iMTIiIGxlbmd0aEFkanVzdD0ic3BhY2luZyIgdGV4dExlbmd0aD0iMTM4IiB4PSIzNjAiIHk9IjcwMi44OTA2Ij5BZGQgdG8gc3RhcnRfZnJvbnRpZXI8L3RleHQ+PHBvbHlnb24gZmlsbD0iIzg3Q0VGQSIgcG9pbnRzPSIzMjcsNTY1LjcwMzEsNTMxLDU2NS43MDMxLDU0Myw1NzcuNzAzMSw1MzEsNTg5LjcwMzEsMzI3LDU4OS43MDMxLDMxNSw1NzcuNzAzMSwzMjcsNTY1LjcwMzEiIHN0eWxlPSJzdHJva2U6IzAwQkZGRjtzdHJva2Utd2lkdGg6MC41OyIvPjx0ZXh0IGZpbGw9IiMwMDAwMDAiIGZvbnQtZmFtaWx5PSJzYW5zLXNlcmlmIiBmb250LXNpemU9IjExIiBsZW5ndGhBZGp1c3Q9InNwYWNpbmciIHRleHRMZW5ndGg9IjE4IiB4PSI0MzMiIHk9IjYwMC4xMDE2Ij55ZXM8L3RleHQ+PHRleHQgZmlsbD0iIzAwMDAwMCIgZm9udC1mYW1pbHk9InNhbnMtc2VyaWYiIGZvbnQtc2l6ZT0iMTEiIGxlbmd0aEFkanVzdD0ic3BhY2luZyIgdGV4dExlbmd0aD0iMjA0IiB4PSIzMjciIHk9IjU3Ni4zMjgxIj5uZWlnaGJvciBub3QgaW4gc3RhcnRfZXhwbG9yZWQgQU5EPC90ZXh0Pjx0ZXh0IGZpbGw9IiMwMDAwMDAiIGZvbnQtZmFtaWx5PSJzYW5zLXNlcmlmIiBmb250LXNpemU9IjExIiBsZW5ndGhBZGp1c3Q9InNwYWNpbmciIHRleHRMZW5ndGg9IjEzMiIgeD0iMzI3IiB5PSI1ODguMTAxNiI+bm90IGluIHN0YXJ0X2Zyb250aWVyPzwvdGV4dD48cG9seWdvbiBmaWxsPSIjODdDRUZBIiBwb2ludHM9IjQyOSw3MzguMzkwNiw0NDEsNzUwLjM5MDYsNDI5LDc2Mi4zOTA2LDQxNyw3NTAuMzkwNiw0MjksNzM4LjM5MDYiIHN0eWxlPSJzdHJva2U6IzAwQkZGRjtzdHJva2Utd2lkdGg6MC41OyIvPjxwb2x5Z29uIGZpbGw9IiM4N0NFRkEiIHBvaW50cz0iMzc4LDUwOS44MDQ3LDQ4MCw1MDkuODA0Nyw0OTIsNTIxLjgwNDcsNDgwLDUzMy44MDQ3LDM3OCw1MzMuODA0NywzNjYsNTIxLjgwNDcsMzc4LDUwOS44MDQ3IiBzdHlsZT0ic3Ryb2tlOiMwMEJGRkY7c3Ryb2tlLXdpZHRoOjAuNTsiLz48dGV4dCBmaWxsPSIjMDAwMDAwIiBmb250LWZhbWlseT0ic2Fucy1zZXJpZiIgZm9udC1zaXplPSIxMSIgbGVuZ3RoQWRqdXN0PSJzcGFjaW5nIiB0ZXh0TGVuZ3RoPSIyNCIgeD0iNDMzIiB5PSI1NDQuMjAzMSI+bmV4dDwvdGV4dD48dGV4dCBmaWxsPSIjMDAwMDAwIiBmb250LWZhbWlseT0ic2Fucy1zZXJpZiIgZm9udC1zaXplPSIxMSIgbGVuZ3RoQWRqdXN0PSJzcGFjaW5nIiB0ZXh0TGVuZ3RoPSIxMDIiIHg9IjM3OCIgeT0iNTI2LjMxNjQiPkZvciBlYWNoIG5laWdoYm9yPC90ZXh0Pjx0ZXh0IGZpbGw9IiMwMDAwMDAiIGZvbnQtZmFtaWx5PSJzYW5zLXNlcmlmIiBmb250LXNpemU9IjExIiBsZW5ndGhBZGp1c3Q9InNwYWNpbmciIHRleHRMZW5ndGg9IjI0IiB4PSIzNDIiIHk9IjUyMC40Mjk3Ij5kb25lPC90ZXh0PjxyZWN0IGZpbGw9IiM4N0NFRkEiIGhlaWdodD0iMzIuODQzOCIgcng9IjEyLjUiIHJ5PSIxMi41IiBzdHlsZT0ic3Ryb2tlOiMwMEJGRkY7c3Ryb2tlLXdpZHRoOjAuNTsiIHdpZHRoPSIxOTgiIHg9IjE5Mi43NSIgeT0iODE2LjAwMzkiLz48dGV4dCBmaWxsPSIjMDAwMDAwIiBmb250LWZhbWlseT0ic2Fucy1zZXJpZiIgZm9udC1zaXplPSIxMiIgbGVuZ3RoQWRqdXN0PSJzcGFjaW5nIiB0ZXh0TGVuZ3RoPSIxNzgiIHg9IjIwMi43NSIgeT0iODM3LjM0NzciPkdldCBub2RlIGZyb20gZ29hbF9mcm9udGllcjwvdGV4dD48cmVjdCBmaWxsPSIjODdDRUZBIiBoZWlnaHQ9IjMyLjg0MzgiIHJ4PSIxMi41IiByeT0iMTIuNSIgc3R5bGU9InN0cm9rZTojMDBCRkZGO3N0cm9rZS13aWR0aDowLjU7IiB3aWR0aD0iMTg4IiB4PSIxOTcuNzUiIHk9Ijg2OC44NDc3Ii8+PHRleHQgZmlsbD0iIzAwMDAwMCIgZm9udC1mYW1pbHk9InNhbnMtc2VyaWYiIGZvbnQtc2l6ZT0iMTIiIGxlbmd0aEFkanVzdD0ic3BhY2luZyIgdGV4dExlbmd0aD0iMTY4IiB4PSIyMDcuNzUiIHk9Ijg5MC4xOTE0Ij5BZGQgbm9kZSB0byBnb2FsX2V4cGxvcmVkPC90ZXh0Pjxwb2x5Z29uIGZpbGw9IiM4N0NFRkEiIHBvaW50cz0iMjAxLjc1LDkyMS42OTE0LDM4MS43NSw5MjEuNjkxNCwzOTMuNzUsOTMzLjY5MTQsMzgxLjc1LDk0NS42OTE0LDIwMS43NSw5NDUuNjkxNCwxODkuNzUsOTMzLjY5MTQsMjAxLjc1LDkyMS42OTE0IiBzdHlsZT0ic3Ryb2tlOiMwMEJGRkY7c3Ryb2tlLXdpZHRoOjAuNTsiLz48dGV4dCBmaWxsPSIjMDAwMDAwIiBmb250LWZhbWlseT0ic2Fucy1zZXJpZiIgZm9udC1zaXplPSIxMSIgbGVuZ3RoQWRqdXN0PSJzcGFjaW5nIiB0ZXh0TGVuZ3RoPSIxODAiIHg9IjIwMS43NSIgeT0iOTM4LjIwMzEiPm5vZGUgZXhpc3RzIGluIHN0YXJ0X2V4cGxvcmVkPzwvdGV4dD48dGV4dCBmaWxsPSIjMDAwMDAwIiBmb250LWZhbWlseT0ic2Fucy1zZXJpZiIgZm9udC1zaXplPSIxMSIgbGVuZ3RoQWRqdXN0PSJzcGFjaW5nIiB0ZXh0TGVuZ3RoPSIxOCIgeD0iMTcxLjc1IiB5PSI5MzIuMzE2NCI+eWVzPC90ZXh0Pjx0ZXh0IGZpbGw9IiMwMDAwMDAiIGZvbnQtZmFtaWx5PSJzYW5zLXNlcmlmIiBmb250LXNpemU9IjExIiBsZW5ndGhBZGp1c3Q9InNwYWNpbmciIHRleHRMZW5ndGg9IjEyIiB4PSIzOTMuNzUiIHk9IjkzMi4zMTY0Ij5ubzwvdGV4dD48cmVjdCBmaWxsPSIjODdDRUZBIiBoZWlnaHQ9IjMyLjg0MzgiIHJ4PSIxMi41IiByeT0iMTIuNSIgc3R5bGU9InN0cm9rZTojMDBCRkZGO3N0cm9rZS13aWR0aDowLjU7IiB3aWR0aD0iMTM5IiB4PSI4Ni41IiB5PSI5NTUuNjkxNCIvPjx0ZXh0IGZpbGw9IiMwMDAwMDAiIGZvbnQtZmFtaWx5PSJzYW5zLXNlcmlmIiBmb250LXNpemU9IjEyIiBsZW5ndGhBZGp1c3Q9InNwYWNpbmciIHRleHRMZW5ndGg9IjExOSIgeD0iOTYuNSIgeT0iOTc3LjAzNTIiPkJ1aWxkIGZvcndhcmQgcGF0aDwvdGV4dD48cmVjdCBmaWxsPSIjODdDRUZBIiBoZWlnaHQ9IjMyLjg0MzgiIHJ4PSIxMi41IiByeT0iMTIuNSIgc3R5bGU9InN0cm9rZTojMDBCRkZGO3N0cm9rZS13aWR0aDowLjU7IiB3aWR0aD0iMTQ1IiB4PSI4My41IiB5PSIxMDA4LjUzNTIiLz48dGV4dCBmaWxsPSIjMDAwMDAwIiBmb250LWZhbWlseT0ic2Fucy1zZXJpZiIgZm9udC1zaXplPSIxMiIgbGVuZ3RoQWRqdXN0PSJzcGFjaW5nIiB0ZXh0TGVuZ3RoPSIxMjUiIHg9IjkzLjUiIHk9IjEwMjkuODc4OSI+QnVpbGQgYmFja3dhcmQgcGF0aDwvdGV4dD48cmVjdCBmaWxsPSIjODdDRUZBIiBoZWlnaHQ9IjMyLjg0MzgiIHJ4PSIxMi41IiByeT0iMTIuNSIgc3R5bGU9InN0cm9rZTojMDBCRkZGO3N0cm9rZS13aWR0aDowLjU7IiB3aWR0aD0iMjMzIiB4PSIzOS41IiB5PSIxMDcyLjUwMzkiLz48dGV4dCBmaWxsPSIjMDAwMDAwIiBmb250LWZhbWlseT0ic2Fucy1zZXJpZiIgZm9udC1zaXplPSIxMiIgbGVuZ3RoQWRqdXN0PSJzcGFjaW5nIiB0ZXh0TGVuZ3RoPSIyMTMiIHg9IjQ5LjUiIHk9IjEwOTMuODQ3NyI+Q29tYmluZSBwYXRocyBiYXNlZCBvbiBkaXJlY3Rpb248L3RleHQ+PHJlY3QgZmlsbD0iIzg3Q0VGQSIgaGVpZ2h0PSIzMi44NDM4IiByeD0iMTIuNSIgcnk9IjEyLjUiIHN0eWxlPSJzdHJva2U6IzAwQkZGRjtzdHJva2Utd2lkdGg6MC41OyIgd2lkdGg9IjE1MyIgeD0iNzkuNSIgeT0iMTE0MC4zNDc3Ii8+PHRleHQgZmlsbD0iIzAwMDAwMCIgZm9udC1mYW1pbHk9InNhbnMtc2VyaWYiIGZvbnQtc2l6ZT0iMTIiIGxlbmd0aEFkanVzdD0ic3BhY2luZyIgdGV4dExlbmd0aD0iMTMzIiB4PSI4OS41IiB5PSIxMTYxLjY5MTQiPlJldHVybiBjb21iaW5lZCBwYXRoPC90ZXh0PjxlbGxpcHNlIGN4PSIxNTYiIGN5PSIxMjE4LjE5MTQiIGZpbGw9Im5vbmUiIHJ4PSIxMCIgcnk9IjEwIiBzdHlsZT0ic3Ryb2tlOiMyMjIyMjI7c3Ryb2tlLXdpZHRoOjEuNTsiLz48bGluZSBzdHlsZT0ic3Ryb2tlOiMyMjIyMjI7c3Ryb2tlLXdpZHRoOjIuNTsiIHgxPSIxNDkuODEyOCIgeDI9IjE2Mi4xODcyIiB5MT0iMTIxMi4wMDQyIiB5Mj0iMTIyNC4zNzg2Ii8+PGxpbmUgc3R5bGU9InN0cm9rZTojMjIyMjIyO3N0cm9rZS13aWR0aDoyLjU7IiB4MT0iMTYyLjE4NzIiIHgyPSIxNDkuODEyOCIgeTE9IjEyMTIuMDA0MiIgeTI9IjEyMjQuMzc4NiIvPjxyZWN0IGZpbGw9IiM4N0NFRkEiIGhlaWdodD0iMzIuODQzOCIgcng9IjEyLjUiIHJ5PSIxMi41IiBzdHlsZT0ic3Ryb2tlOiMwMEJGRkY7c3Ryb2tlLXdpZHRoOjAuNTsiIHdpZHRoPSIyMjEiIHg9IjMxNyIgeT0iOTU1LjY5MTQiLz48dGV4dCBmaWxsPSIjMDAwMDAwIiBmb250LWZhbWlseT0ic2Fucy1zZXJpZiIgZm9udC1zaXplPSIxMiIgbGVuZ3RoQWRqdXN0PSJzcGFjaW5nIiB0ZXh0TGVuZ3RoPSIyMDEiIHg9IjMyNyIgeT0iOTc3LjAzNTIiPkdldCBuZWlnaGJvcnMgZm9yIGN1cnJlbnQgbm9kZTwvdGV4dD48cmVjdCBmaWxsPSIjODdDRUZBIiBoZWlnaHQ9IjMyLjg0MzgiIHJ4PSIxMi41IiByeT0iMTIuNSIgc3R5bGU9InN0cm9rZTojMDBCRkZGO3N0cm9rZS13aWR0aDowLjU7IiB3aWR0aD0iMTMzIiB4PSIzNjEiIHk9IjExMTIuNDMzNiIvPjx0ZXh0IGZpbGw9IiMwMDAwMDAiIGZvbnQtZmFtaWx5PSJzYW5zLXNlcmlmIiBmb250LXNpemU9IjEyIiBsZW5ndGhBZGp1c3Q9InNwYWNpbmciIHRleHRMZW5ndGg9IjExMyIgeD0iMzcxIiB5PSIxMTMzLjc3NzMiPkNyZWF0ZSBjaGlsZCBub2RlPC90ZXh0PjxyZWN0IGZpbGw9IiM4N0NFRkEiIGhlaWdodD0iMzIuODQzOCIgcng9IjEyLjUiIHJ5PSIxMi41IiBzdHlsZT0ic3Ryb2tlOiMwMEJGRkY7c3Ryb2tlLXdpZHRoOjAuNTsiIHdpZHRoPSIxNTIiIHg9IjM1MS41IiB5PSIxMTgwLjI3NzMiLz48dGV4dCBmaWxsPSIjMDAwMDAwIiBmb250LWZhbWlseT0ic2Fucy1zZXJpZiIgZm9udC1zaXplPSIxMiIgbGVuZ3RoQWRqdXN0PSJzcGFjaW5nIiB0ZXh0TGVuZ3RoPSIxMzIiIHg9IjM2MS41IiB5PSIxMjAxLjYyMTEiPkFkZCB0byBnb2FsX2Zyb250aWVyPC90ZXh0Pjxwb2x5Z29uIGZpbGw9IiM4N0NFRkEiIHBvaW50cz0iMzI4LjUsMTA2NC40MzM2LDUyNi41LDEwNjQuNDMzNiw1MzguNSwxMDc2LjQzMzYsNTI2LjUsMTA4OC40MzM2LDMyOC41LDEwODguNDMzNiwzMTYuNSwxMDc2LjQzMzYsMzI4LjUsMTA2NC40MzM2IiBzdHlsZT0ic3Ryb2tlOiMwMEJGRkY7c3Ryb2tlLXdpZHRoOjAuNTsiLz48dGV4dCBmaWxsPSIjMDAwMDAwIiBmb250LWZhbWlseT0ic2Fucy1zZXJpZiIgZm9udC1zaXplPSIxMSIgbGVuZ3RoQWRqdXN0PSJzcGFjaW5nIiB0ZXh0TGVuZ3RoPSIxOCIgeD0iNDMxLjUiIHk9IjEwOTguODMyIj55ZXM8L3RleHQ+PHRleHQgZmlsbD0iIzAwMDAwMCIgZm9udC1mYW1pbHk9InNhbnMtc2VyaWYiIGZvbnQtc2l6ZT0iMTEiIGxlbmd0aEFkanVzdD0ic3BhY2luZyIgdGV4dExlbmd0aD0iMTk4IiB4PSIzMjguNSIgeT0iMTA3NS4wNTg2Ij5uZWlnaGJvciBub3QgaW4gZ29hbF9leHBsb3JlZCBBTkQ8L3RleHQ+PHRleHQgZmlsbD0iIzAwMDAwMCIgZm9udC1mYW1pbHk9InNhbnMtc2VyaWYiIGZvbnQtc2l6ZT0iMTEiIGxlbmd0aEFkanVzdD0ic3BhY2luZyIgdGV4dExlbmd0aD0iMTI2IiB4PSIzMjguNSIgeT0iMTA4Ni44MzIiPm5vdCBpbiBnb2FsX2Zyb250aWVyPzwvdGV4dD48cG9seWdvbiBmaWxsPSIjODdDRUZBIiBwb2ludHM9IjQyNy41LDEyMzcuMTIxMSw0MzkuNSwxMjQ5LjEyMTEsNDI3LjUsMTI2MS4xMjExLDQxNS41LDEyNDkuMTIxMSw0MjcuNSwxMjM3LjEyMTEiIHN0eWxlPSJzdHJva2U6IzAwQkZGRjtzdHJva2Utd2lkdGg6MC41OyIvPjxwb2x5Z29uIGZpbGw9IiM4N0NFRkEiIHBvaW50cz0iMzc2LjUsMTAwOC41MzUyLDQ3OC41LDEwMDguNTM1Miw0OTAuNSwxMDIwLjUzNTIsNDc4LjUsMTAzMi41MzUyLDM3Ni41LDEwMzIuNTM1MiwzNjQuNSwxMDIwLjUzNTIsMzc2LjUsMTAwOC41MzUyIiBzdHlsZT0ic3Ryb2tlOiMwMEJGRkY7c3Ryb2tlLXdpZHRoOjAuNTsiLz48dGV4dCBmaWxsPSIjMDAwMDAwIiBmb250LWZhbWlseT0ic2Fucy1zZXJpZiIgZm9udC1zaXplPSIxMSIgbGVuZ3RoQWRqdXN0PSJzcGFjaW5nIiB0ZXh0TGVuZ3RoPSIyNCIgeD0iNDMxLjUiIHk9IjEwNDIuOTMzNiI+bmV4dDwvdGV4dD48dGV4dCBmaWxsPSIjMDAwMDAwIiBmb250LWZhbWlseT0ic2Fucy1zZXJpZiIgZm9udC1zaXplPSIxMSIgbGVuZ3RoQWRqdXN0PSJzcGFjaW5nIiB0ZXh0TGVuZ3RoPSIxMDIiIHg9IjM3Ni41IiB5PSIxMDI1LjA0NjkiPkZvciBlYWNoIG5laWdoYm9yPC90ZXh0Pjx0ZXh0IGZpbGw9IiMwMDAwMDAiIGZvbnQtZmFtaWx5PSJzYW5zLXNlcmlmIiBmb250LXNpemU9IjExIiBsZW5ndGhBZGp1c3Q9InNwYWNpbmciIHRleHRMZW5ndGg9IjI0IiB4PSIzNDAuNSIgeT0iMTAxOS4xNjAyIj5kb25lPC90ZXh0Pjxwb2x5Z29uIGZpbGw9IiM4N0NFRkEiIHBvaW50cz0iMTYyLjc1LDI2MS4zNzUsNDIwLjc1LDI2MS4zNzUsNDMyLjc1LDI3My4zNzUsNDIwLjc1LDI4NS4zNzUsMTYyLjc1LDI4NS4zNzUsMTUwLjc1LDI3My4zNzUsMTYyLjc1LDI2MS4zNzUiIHN0eWxlPSJzdHJva2U6IzAwQkZGRjtzdHJva2Utd2lkdGg6MC41OyIvPjx0ZXh0IGZpbGw9IiMwMDAwMDAiIGZvbnQtZmFtaWx5PSJzYW5zLXNlcmlmIiBmb250LXNpemU9IjExIiBsZW5ndGhBZGp1c3Q9InNwYWNpbmciIHRleHRMZW5ndGg9IjE4IiB4PSIyOTUuNzUiIHk9IjI5NS43NzM0Ij55ZXM8L3RleHQ+PHRleHQgZmlsbD0iIzAwMDAwMCIgZm9udC1mYW1pbHk9InNhbnMtc2VyaWYiIGZvbnQtc2l6ZT0iMTEiIGxlbmd0aEFkanVzdD0ic3BhY2luZyIgdGV4dExlbmd0aD0iMjU4IiB4PSIxNjIuNzUiIHk9IjI3Ny44ODY3Ij5zdGFydF9mcm9udGllciBhbmQgZ29hbF9mcm9udGllciBub3QgZW1wdHk/PC90ZXh0Pjx0ZXh0IGZpbGw9IiMwMDAwMDAiIGZvbnQtZmFtaWx5PSJzYW5zLXNlcmlmIiBmb250LXNpemU9IjExIiBsZW5ndGhBZGp1c3Q9InNwYWNpbmciIHRleHRMZW5ndGg9IjEyIiB4PSIxMzguNzUiIHk9IjI3MiI+bm88L3RleHQ+PHJlY3QgZmlsbD0iIzg3Q0VGQSIgaGVpZ2h0PSIzMi44NDM4IiByeD0iMTIuNSIgcnk9IjEyLjUiIHN0eWxlPSJzdHJva2U6IzAwQkZGRjtzdHJva2Utd2lkdGg6MC41OyIgd2lkdGg9IjIwMCIgeD0iMTkxLjc1IiB5PSIxMzI1LjEyMTEiLz48dGV4dCBmaWxsPSIjMDAwMDAwIiBmb250LWZhbWlseT0ic2Fucy1zZXJpZiIgZm9udC1zaXplPSIxMiIgbGVuZ3RoQWRqdXN0PSJzcGFjaW5nIiB0ZXh0TGVuZ3RoPSIxODAiIHg9IjIwMS43NSIgeT0iMTM0Ni40NjQ4Ij5SZXR1cm4gTm9uZSAtIE5vIHBhdGggZm91bmQ8L3RleHQ+PGVsbGlwc2UgY3g9IjI5MS43NSIgY3k9IjEzODguOTY0OCIgZmlsbD0ibm9uZSIgcng9IjExIiByeT0iMTEiIHN0eWxlPSJzdHJva2U6IzIyMjIyMjtzdHJva2Utd2lkdGg6MS4wOyIvPjxlbGxpcHNlIGN4PSIyOTEuNzUiIGN5PSIxMzg4Ljk2NDgiIGZpbGw9IiMyMjIyMjIiIHJ4PSI2IiByeT0iNiIgc3R5bGU9InN0cm9rZTojMjIyMjIyO3N0cm9rZS13aWR0aDoxLjA7Ii8+PGxpbmUgc3R5bGU9InN0cm9rZTojMDBCRkZGO3N0cm9rZS13aWR0aDoxLjA7IiB4MT0iMjkxLjc1IiB4Mj0iMjkxLjc1IiB5MT0iMzAiIHkyPSI1MCIvPjxwb2x5Z29uIGZpbGw9IiMwMEJGRkYiIHBvaW50cz0iMjg3Ljc1LDQwLDI5MS43NSw1MCwyOTUuNzUsNDAsMjkxLjc1LDQ0IiBzdHlsZT0ic3Ryb2tlOiMwMEJGRkY7c3Ryb2tlLXdpZHRoOjEuMDsiLz48bGluZSBzdHlsZT0ic3Ryb2tlOiMwMEJGRkY7c3Ryb2tlLXdpZHRoOjEuMDsiIHgxPSIyOTEuNzUiIHgyPSIyOTEuNzUiIHkxPSI4Mi44NDM4IiB5Mj0iMTAyLjg0MzgiLz48cG9seWdvbiBmaWxsPSIjMDBCRkZGIiBwb2ludHM9IjI4Ny43NSw5Mi44NDM4LDI5MS43NSwxMDIuODQzOCwyOTUuNzUsOTIuODQzOCwyOTEuNzUsOTYuODQzOCIgc3R5bGU9InN0cm9rZTojMDBCRkZGO3N0cm9rZS13aWR0aDoxLjA7Ii8+PGxpbmUgc3R5bGU9InN0cm9rZTojMDBCRkZGO3N0cm9rZS13aWR0aDoxLjA7IiB4MT0iMjkxLjc1IiB4Mj0iMjkxLjc1IiB5MT0iMTM1LjY4NzUiIHkyPSIxNTUuNjg3NSIvPjxwb2x5Z29uIGZpbGw9IiMwMEJGRkYiIHBvaW50cz0iMjg3Ljc1LDE0NS42ODc1LDI5MS43NSwxNTUuNjg3NSwyOTUuNzUsMTQ1LjY4NzUsMjkxLjc1LDE0OS42ODc1IiBzdHlsZT0ic3Ryb2tlOiMwMEJGRkY7c3Ryb2tlLXdpZHRoOjEuMDsiLz48bGluZSBzdHlsZT0ic3Ryb2tlOiMwMEJGRkY7c3Ryb2tlLXdpZHRoOjEuMDsiIHgxPSIyOTEuNzUiIHgyPSIyOTEuNzUiIHkxPSIxODguNTMxMyIgeTI9IjIwOC41MzEzIi8+PHBvbHlnb24gZmlsbD0iIzAwQkZGRiIgcG9pbnRzPSIyODcuNzUsMTk4LjUzMTMsMjkxLjc1LDIwOC41MzEzLDI5NS43NSwxOTguNTMxMywyOTEuNzUsMjAyLjUzMTMiIHN0eWxlPSJzdHJva2U6IzAwQkZGRjtzdHJva2Utd2lkdGg6MS4wOyIvPjxsaW5lIHN0eWxlPSJzdHJva2U6IzAwQkZGRjtzdHJva2Utd2lkdGg6MS4wOyIgeDE9IjI5MS43NSIgeDI9IjI5MS43NSIgeTE9IjM1MC4xMTcyIiB5Mj0iMzcwLjExNzIiLz48cG9seWdvbiBmaWxsPSIjMDBCRkZGIiBwb2ludHM9IjI4Ny43NSwzNjAuMTE3MiwyOTEuNzUsMzcwLjExNzIsMjk1Ljc1LDM2MC4xMTcyLDI5MS43NSwzNjQuMTE3MiIgc3R5bGU9InN0cm9rZTojMDBCRkZGO3N0cm9rZS13aWR0aDoxLjA7Ii8+PGxpbmUgc3R5bGU9InN0cm9rZTojMDBCRkZGO3N0cm9rZS13aWR0aDoxLjA7IiB4MT0iMTU0LjUiIHgyPSIxNTQuNSIgeTE9IjQ4OS44MDQ3IiB5Mj0iNTA5LjgwNDciLz48cG9seWdvbiBmaWxsPSIjMDBCRkZGIiBwb2ludHM9IjE1MC41LDQ5OS44MDQ3LDE1NC41LDUwOS44MDQ3LDE1OC41LDQ5OS44MDQ3LDE1NC41LDUwMy44MDQ3IiBzdHlsZT0ic3Ryb2tlOiMwMEJGRkY7c3Ryb2tlLXdpZHRoOjEuMDsiLz48bGluZSBzdHlsZT0ic3Ryb2tlOiMwMEJGRkY7c3Ryb2tlLXdpZHRoOjEuMDsiIHgxPSIxNTQuNSIgeDI9IjE1NC41IiB5MT0iNTQyLjY0ODQiIHkyPSI1NzMuNzczNCIvPjxwb2x5Z29uIGZpbGw9IiMwMEJGRkYiIHBvaW50cz0iMTUwLjUsNTYzLjc3MzQsMTU0LjUsNTczLjc3MzQsMTU4LjUsNTYzLjc3MzQsMTU0LjUsNTY3Ljc3MzQiIHN0eWxlPSJzdHJva2U6IzAwQkZGRjtzdHJva2Utd2lkdGg6MS4wOyIvPjxsaW5lIHN0eWxlPSJzdHJva2U6IzAwQkZGRjtzdHJva2Utd2lkdGg6MS4wOyIgeDE9IjE1NC41IiB4Mj0iMTU0LjUiIHkxPSI2MDYuNjE3MiIgeTI9IjY0MS42MTcyIi8+PHBvbHlnb24gZmlsbD0iIzAwQkZGRiIgcG9pbnRzPSIxNTAuNSw2MzEuNjE3MiwxNTQuNSw2NDEuNjE3MiwxNTguNSw2MzEuNjE3MiwxNTQuNSw2MzUuNjE3MiIgc3R5bGU9InN0cm9rZTojMDBCRkZGO3N0cm9rZS13aWR0aDoxLjA7Ii8+PGxpbmUgc3R5bGU9InN0cm9rZTojMDBCRkZGO3N0cm9rZS13aWR0aDoxLjA7IiB4MT0iMTU0LjUiIHgyPSIxNTQuNSIgeTE9IjY3NC40NjA5IiB5Mj0iNzA5LjQ2MDkiLz48cG9seWdvbiBmaWxsPSIjMDBCRkZGIiBwb2ludHM9IjE1MC41LDY5OS40NjA5LDE1NC41LDcwOS40NjA5LDE1OC41LDY5OS40NjA5LDE1NC41LDcwMy40NjA5IiBzdHlsZT0ic3Ryb2tlOiMwMEJGRkY7c3Ryb2tlLXdpZHRoOjEuMDsiLz48bGluZSBzdHlsZT0ic3Ryb2tlOiMwMEJGRkY7c3Ryb2tlLXdpZHRoOjEuMDsiIHgxPSI0MjkiIHgyPSI0MjkiIHkxPSI2NDYuNTQ2OSIgeTI9IjY4MS41NDY5Ii8+PHBvbHlnb24gZmlsbD0iIzAwQkZGRiIgcG9pbnRzPSI0MjUsNjcxLjU0NjksNDI5LDY4MS41NDY5LDQzMyw2NzEuNTQ2OSw0MjksNjc1LjU0NjkiIHN0eWxlPSJzdHJva2U6IzAwQkZGRjtzdHJva2Utd2lkdGg6MS4wOyIvPjxsaW5lIHN0eWxlPSJzdHJva2U6IzAwQkZGRjtzdHJva2Utd2lkdGg6MS4wOyIgeDE9IjQyOSIgeDI9IjQyOSIgeTE9IjU4OS43MDMxIiB5Mj0iNjEzLjcwMzEiLz48cG9seWdvbiBmaWxsPSIjMDBCRkZGIiBwb2ludHM9IjQyNSw2MDMuNzAzMSw0MjksNjEzLjcwMzEsNDMzLDYwMy43MDMxLDQyOSw2MDcuNzAzMSIgc3R5bGU9InN0cm9rZTojMDBCRkZGO3N0cm9rZS13aWR0aDoxLjA7Ii8+PGxpbmUgc3R5bGU9InN0cm9rZTojMDBCRkZGO3N0cm9rZS13aWR0aDoxLjA7IiB4MT0iNTQzIiB4Mj0iNTU1IiB5MT0iNTc3LjcwMzEiIHkyPSI1NzcuNzAzMSIvPjxwb2x5Z29uIGZpbGw9IiMwMEJGRkYiIHBvaW50cz0iNTUxLDY1NC4wNDY5LDU1NSw2NjQuMDQ2OSw1NTksNjU0LjA0NjksNTU1LDY1OC4wNDY5IiBzdHlsZT0ic3Ryb2tlOiMwMEJGRkY7c3Ryb2tlLXdpZHRoOjEuMDsiLz48bGluZSBzdHlsZT0ic3Ryb2tlOiMwMEJGRkY7c3Ryb2tlLXdpZHRoOjEuMDsiIHgxPSI1NTUiIHgyPSI1NTUiIHkxPSI1NzcuNzAzMSIgeTI9Ijc1MC4zOTA2Ii8+PGxpbmUgc3R5bGU9InN0cm9rZTojMDBCRkZGO3N0cm9rZS13aWR0aDoxLjA7IiB4MT0iNTU1IiB4Mj0iNDQxIiB5MT0iNzUwLjM5MDYiIHkyPSI3NTAuMzkwNiIvPjxwb2x5Z29uIGZpbGw9IiMwMEJGRkYiIHBvaW50cz0iNDUxLDc0Ni4zOTA2LDQ0MSw3NTAuMzkwNiw0NTEsNzU0LjM5MDYsNDQ3LDc1MC4zOTA2IiBzdHlsZT0ic3Ryb2tlOiMwMEJGRkY7c3Ryb2tlLXdpZHRoOjEuMDsiLz48bGluZSBzdHlsZT0ic3Ryb2tlOiMwMEJGRkY7c3Ryb2tlLXdpZHRoOjEuMDsiIHgxPSI0MjkiIHgyPSI0MjkiIHkxPSI3MTQuMzkwNiIgeTI9IjczOC4zOTA2Ii8+PHBvbHlnb24gZmlsbD0iIzAwQkZGRiIgcG9pbnRzPSI0MjUsNzI4LjM5MDYsNDI5LDczOC4zOTA2LDQzMyw3MjguMzkwNiw0MjksNzMyLjM5MDYiIHN0eWxlPSJzdHJva2U6IzAwQkZGRjtzdHJva2Utd2lkdGg6MS4wOyIvPjxsaW5lIHN0eWxlPSJzdHJva2U6IzAwQkZGRjtzdHJva2Utd2lkdGg6MS4wOyIgeDE9IjQyOSIgeDI9IjQyOSIgeTE9IjUzMy44MDQ3IiB5Mj0iNTY1LjcwMzEiLz48cG9seWdvbiBmaWxsPSIjMDBCRkZGIiBwb2ludHM9IjQyNSw1NTUuNzAzMSw0MjksNTY1LjcwMzEsNDMzLDU1NS43MDMxLDQyOSw1NTkuNzAzMSIgc3R5bGU9InN0cm9rZTojMDBCRkZGO3N0cm9rZS13aWR0aDoxLjA7Ii8+PGxpbmUgc3R5bGU9InN0cm9rZTojMDBCRkZGO3N0cm9rZS13aWR0aDoxLjA7IiB4MT0iNDI5IiB4Mj0iNDI5IiB5MT0iNzYyLjM5MDYiIHkyPSI3NzIuMzkwNiIvPjxsaW5lIHN0eWxlPSJzdHJva2U6IzAwQkZGRjtzdHJva2Utd2lkdGg6MS4wOyIgeDE9IjQyOSIgeDI9IjU2NyIgeTE9Ijc3Mi4zOTA2IiB5Mj0iNzcyLjM5MDYiLz48cG9seWdvbiBmaWxsPSIjMDBCRkZGIiBwb2ludHM9IjU2Myw2NTYuMTYwMiw1NjcsNjQ2LjE2MDIsNTcxLDY1Ni4xNjAyLDU2Nyw2NTIuMTYwMiIgc3R5bGU9InN0cm9rZTojMDBCRkZGO3N0cm9rZS13aWR0aDoxLjA7Ii8+PGxpbmUgc3R5bGU9InN0cm9rZTojMDBCRkZGO3N0cm9rZS13aWR0aDoxLjA7IiB4MT0iNTY3IiB4Mj0iNTY3IiB5MT0iNTIxLjgwNDciIHkyPSI3NzIuMzkwNiIvPjxsaW5lIHN0eWxlPSJzdHJva2U6IzAwQkZGRjtzdHJva2Utd2lkdGg6MS4wOyIgeDE9IjU2NyIgeDI9IjQ5MiIgeTE9IjUyMS44MDQ3IiB5Mj0iNTIxLjgwNDciLz48cG9seWdvbiBmaWxsPSIjMDBCRkZGIiBwb2ludHM9IjUwMiw1MTcuODA0Nyw0OTIsNTIxLjgwNDcsNTAyLDUyNS44MDQ3LDQ5OCw1MjEuODA0NyIgc3R5bGU9InN0cm9rZTojMDBCRkZGO3N0cm9rZS13aWR0aDoxLjA7Ii8+PGxpbmUgc3R5bGU9InN0cm9rZTojMDBCRkZGO3N0cm9rZS13aWR0aDoxLjA7IiB4MT0iMzY2IiB4Mj0iMzAzIiB5MT0iNTIxLjgwNDciIHkyPSI1MjEuODA0NyIvPjxwb2x5Z29uIGZpbGw9IiMwMEJGRkYiIHBvaW50cz0iMjk5LDY0NS4xNjAyLDMwMyw2NTUuMTYwMiwzMDcsNjQ1LjE2MDIsMzAzLDY0OS4xNjAyIiBzdHlsZT0ic3Ryb2tlOiMwMEJGRkY7c3Ryb2tlLXdpZHRoOjEuMDsiLz48bGluZSBzdHlsZT0ic3Ryb2tlOiMwMEJGRkY7c3Ryb2tlLXdpZHRoOjEuMDsiIHgxPSIzMDMiIHgyPSIzMDMiIHkxPSI1MjEuODA0NyIgeTI9Ijc5MC4zOTA2Ii8+PGxpbmUgc3R5bGU9InN0cm9rZTojMDBCRkZGO3N0cm9rZS13aWR0aDoxLjA7IiB4MT0iMzAzIiB4Mj0iMjkxLjc1IiB5MT0iNzkwLjM5MDYiIHkyPSI3OTAuMzkwNiIvPjxsaW5lIHN0eWxlPSJzdHJva2U6IzAwQkZGRjtzdHJva2Utd2lkdGg6MS4wOyIgeDE9IjI5MS43NSIgeDI9IjI5MS43NSIgeTE9Ijc5MC4zOTA2IiB5Mj0iODE2LjAwMzkiLz48cG9seWdvbiBmaWxsPSIjMDBCRkZGIiBwb2ludHM9IjI4Ny43NSw4MDYuMDAzOSwyOTEuNzUsODE2LjAwMzksMjk1Ljc1LDgwNi4wMDM5LDI5MS43NSw4MTAuMDAzOSIgc3R5bGU9InN0cm9rZTojMDBCRkZGO3N0cm9rZS13aWR0aDoxLjA7Ii8+PGxpbmUgc3R5bGU9InN0cm9rZTojMDBCRkZGO3N0cm9rZS13aWR0aDoxLjA7IiB4MT0iNDI5IiB4Mj0iNDI5IiB5MT0iNDg5LjgwNDciIHkyPSI1MDkuODA0NyIvPjxwb2x5Z29uIGZpbGw9IiMwMEJGRkYiIHBvaW50cz0iNDI1LDQ5OS44MDQ3LDQyOSw1MDkuODA0Nyw0MzMsNDk5LjgwNDcsNDI5LDUwMy44MDQ3IiBzdHlsZT0ic3Ryb2tlOiMwMEJGRkY7c3Ryb2tlLXdpZHRoOjEuMDsiLz48bGluZSBzdHlsZT0ic3Ryb2tlOiMwMEJGRkY7c3Ryb2tlLXdpZHRoOjEuMDsiIHgxPSIxOTIuNzUiIHgyPSIxNTQuNSIgeTE9IjQzNC45NjA5IiB5Mj0iNDM0Ljk2MDkiLz48bGluZSBzdHlsZT0ic3Ryb2tlOiMwMEJGRkY7c3Ryb2tlLXdpZHRoOjEuMDsiIHgxPSIxNTQuNSIgeDI9IjE1NC41IiB5MT0iNDM0Ljk2MDkiIHkyPSI0NTYuOTYwOSIvPjxwb2x5Z29uIGZpbGw9IiMwMEJGRkYiIHBvaW50cz0iMTUwLjUsNDQ2Ljk2MDksMTU0LjUsNDU2Ljk2MDksMTU4LjUsNDQ2Ljk2MDksMTU0LjUsNDUwLjk2MDkiIHN0eWxlPSJzdHJva2U6IzAwQkZGRjtzdHJva2Utd2lkdGg6MS4wOyIvPjxsaW5lIHN0eWxlPSJzdHJva2U6IzAwQkZGRjtzdHJva2Utd2lkdGg6MS4wOyIgeDE9IjM5MC43NSIgeDI9IjQyOSIgeTE9IjQzNC45NjA5IiB5Mj0iNDM0Ljk2MDkiLz48bGluZSBzdHlsZT0ic3Ryb2tlOiMwMEJGRkY7c3Ryb2tlLXdpZHRoOjEuMDsiIHgxPSI0MjkiIHgyPSI0MjkiIHkxPSI0MzQuOTYwOSIgeTI9IjQ1Ni45NjA5Ii8+PHBvbHlnb24gZmlsbD0iIzAwQkZGRiIgcG9pbnRzPSI0MjUsNDQ2Ljk2MDksNDI5LDQ1Ni45NjA5LDQzMyw0NDYuOTYwOSw0MjksNDUwLjk2MDkiIHN0eWxlPSJzdHJva2U6IzAwQkZGRjtzdHJva2Utd2lkdGg6MS4wOyIvPjxsaW5lIHN0eWxlPSJzdHJva2U6IzAwQkZGRjtzdHJva2Utd2lkdGg6MS4wOyIgeDE9IjI5MS43NSIgeDI9IjI5MS43NSIgeTE9IjQwMi45NjA5IiB5Mj0iNDIyLjk2MDkiLz48cG9seWdvbiBmaWxsPSIjMDBCRkZGIiBwb2ludHM9IjI4Ny43NSw0MTIuOTYwOSwyOTEuNzUsNDIyLjk2MDksMjk1Ljc1LDQxMi45NjA5LDI5MS43NSw0MTYuOTYwOSIgc3R5bGU9InN0cm9rZTojMDBCRkZGO3N0cm9rZS13aWR0aDoxLjA7Ii8+PGxpbmUgc3R5bGU9InN0cm9rZTojMDBCRkZGO3N0cm9rZS13aWR0aDoxLjA7IiB4MT0iMjkxLjc1IiB4Mj0iMjkxLjc1IiB5MT0iODQ4Ljg0NzciIHkyPSI4NjguODQ3NyIvPjxwb2x5Z29uIGZpbGw9IiMwMEJGRkYiIHBvaW50cz0iMjg3Ljc1LDg1OC44NDc3LDI5MS43NSw4NjguODQ3NywyOTUuNzUsODU4Ljg0NzcsMjkxLjc1LDg2Mi44NDc3IiBzdHlsZT0ic3Ryb2tlOiMwMEJGRkY7c3Ryb2tlLXdpZHRoOjEuMDsiLz48bGluZSBzdHlsZT0ic3Ryb2tlOiMwMEJGRkY7c3Ryb2tlLXdpZHRoOjEuMDsiIHgxPSIxNTYiIHgyPSIxNTYiIHkxPSI5ODguNTM1MiIgeTI9IjEwMDguNTM1MiIvPjxwb2x5Z29uIGZpbGw9IiMwMEJGRkYiIHBvaW50cz0iMTUyLDk5OC41MzUyLDE1NiwxMDA4LjUzNTIsMTYwLDk5OC41MzUyLDE1NiwxMDAyLjUzNTIiIHN0eWxlPSJzdHJva2U6IzAwQkZGRjtzdHJva2Utd2lkdGg6MS4wOyIvPjxsaW5lIHN0eWxlPSJzdHJva2U6IzAwQkZGRjtzdHJva2Utd2lkdGg6MS4wOyIgeDE9IjE1NiIgeDI9IjE1NiIgeTE9IjEwNDEuMzc4OSIgeTI9IjEwNzIuNTAzOSIvPjxwb2x5Z29uIGZpbGw9IiMwMEJGRkYiIHBvaW50cz0iMTUyLDEwNjIuNTAzOSwxNTYsMTA3Mi41MDM5LDE2MCwxMDYyLjUwMzksMTU2LDEwNjYuNTAzOSIgc3R5bGU9InN0cm9rZTojMDBCRkZGO3N0cm9rZS13aWR0aDoxLjA7Ii8+PGxpbmUgc3R5bGU9InN0cm9rZTojMDBCRkZGO3N0cm9rZS13aWR0aDoxLjA7IiB4MT0iMTU2IiB4Mj0iMTU2IiB5MT0iMTEwNS4zNDc3IiB5Mj0iMTE0MC4zNDc3Ii8+PHBvbHlnb24gZmlsbD0iIzAwQkZGRiIgcG9pbnRzPSIxNTIsMTEzMC4zNDc3LDE1NiwxMTQwLjM0NzcsMTYwLDExMzAuMzQ3NywxNTYsMTEzNC4zNDc3IiBzdHlsZT0ic3Ryb2tlOiMwMEJGRkY7c3Ryb2tlLXdpZHRoOjEuMDsiLz48bGluZSBzdHlsZT0ic3Ryb2tlOiMwMEJGRkY7c3Ryb2tlLXdpZHRoOjEuMDsiIHgxPSIxNTYiIHgyPSIxNTYiIHkxPSIxMTczLjE5MTQiIHkyPSIxMjA4LjE5MTQiLz48cG9seWdvbiBmaWxsPSIjMDBCRkZGIiBwb2ludHM9IjE1MiwxMTk4LjE5MTQsMTU2LDEyMDguMTkxNCwxNjAsMTE5OC4xOTE0LDE1NiwxMjAyLjE5MTQiIHN0eWxlPSJzdHJva2U6IzAwQkZGRjtzdHJva2Utd2lkdGg6MS4wOyIvPjxsaW5lIHN0eWxlPSJzdHJva2U6IzAwQkZGRjtzdHJva2Utd2lkdGg6MS4wOyIgeDE9IjQyNy41IiB4Mj0iNDI3LjUiIHkxPSIxMTQ1LjI3NzMiIHkyPSIxMTgwLjI3NzMiLz48cG9seWdvbiBmaWxsPSIjMDBCRkZGIiBwb2ludHM9IjQyMy41LDExNzAuMjc3Myw0MjcuNSwxMTgwLjI3NzMsNDMxLjUsMTE3MC4yNzczLDQyNy41LDExNzQuMjc3MyIgc3R5bGU9InN0cm9rZTojMDBCRkZGO3N0cm9rZS13aWR0aDoxLjA7Ii8+PGxpbmUgc3R5bGU9InN0cm9rZTojMDBCRkZGO3N0cm9rZS13aWR0aDoxLjA7IiB4MT0iNDI3LjUiIHgyPSI0MjcuNSIgeTE9IjEwODguNDMzNiIgeTI9IjExMTIuNDMzNiIvPjxwb2x5Z29uIGZpbGw9IiMwMEJGRkYiIHBvaW50cz0iNDIzLjUsMTEwMi40MzM2LDQyNy41LDExMTIuNDMzNiw0MzEuNSwxMTAyLjQzMzYsNDI3LjUsMTEwNi40MzM2IiBzdHlsZT0ic3Ryb2tlOiMwMEJGRkY7c3Ryb2tlLXdpZHRoOjEuMDsiLz48bGluZSBzdHlsZT0ic3Ryb2tlOiMwMEJGRkY7c3Ryb2tlLXdpZHRoOjEuMDsiIHgxPSI1MzguNSIgeDI9IjU1MC41IiB5MT0iMTA3Ni40MzM2IiB5Mj0iMTA3Ni40MzM2Ii8+PHBvbHlnb24gZmlsbD0iIzAwQkZGRiIgcG9pbnRzPSI1NDYuNSwxMTUyLjc3NzMsNTUwLjUsMTE2Mi43NzczLDU1NC41LDExNTIuNzc3Myw1NTAuNSwxMTU2Ljc3NzMiIHN0eWxlPSJzdHJva2U6IzAwQkZGRjtzdHJva2Utd2lkdGg6MS4wOyIvPjxsaW5lIHN0eWxlPSJzdHJva2U6IzAwQkZGRjtzdHJva2Utd2lkdGg6MS4wOyIgeDE9IjU1MC41IiB4Mj0iNTUwLjUiIHkxPSIxMDc2LjQzMzYiIHkyPSIxMjQ5LjEyMTEiLz48bGluZSBzdHlsZT0ic3Ryb2tlOiMwMEJGRkY7c3Ryb2tlLXdpZHRoOjEuMDsiIHgxPSI1NTAuNSIgeDI9IjQzOS41IiB5MT0iMTI0OS4xMjExIiB5Mj0iMTI0OS4xMjExIi8+PHBvbHlnb24gZmlsbD0iIzAwQkZGRiIgcG9pbnRzPSI0NDkuNSwxMjQ1LjEyMTEsNDM5LjUsMTI0OS4xMjExLDQ0OS41LDEyNTMuMTIxMSw0NDUuNSwxMjQ5LjEyMTEiIHN0eWxlPSJzdHJva2U6IzAwQkZGRjtzdHJva2Utd2lkdGg6MS4wOyIvPjxsaW5lIHN0eWxlPSJzdHJva2U6IzAwQkZGRjtzdHJva2Utd2lkdGg6MS4wOyIgeDE9IjQyNy41IiB4Mj0iNDI3LjUiIHkxPSIxMjEzLjEyMTEiIHkyPSIxMjM3LjEyMTEiLz48cG9seWdvbiBmaWxsPSIjMDBCRkZGIiBwb2ludHM9IjQyMy41LDEyMjcuMTIxMSw0MjcuNSwxMjM3LjEyMTEsNDMxLjUsMTIyNy4xMjExLDQyNy41LDEyMzEuMTIxMSIgc3R5bGU9InN0cm9rZTojMDBCRkZGO3N0cm9rZS13aWR0aDoxLjA7Ii8+PGxpbmUgc3R5bGU9InN0cm9rZTojMDBCRkZGO3N0cm9rZS13aWR0aDoxLjA7IiB4MT0iNDI3LjUiIHgyPSI0MjcuNSIgeTE9IjEwMzIuNTM1MiIgeTI9IjEwNjQuNDMzNiIvPjxwb2x5Z29uIGZpbGw9IiMwMEJGRkYiIHBvaW50cz0iNDIzLjUsMTA1NC40MzM2LDQyNy41LDEwNjQuNDMzNiw0MzEuNSwxMDU0LjQzMzYsNDI3LjUsMTA1OC40MzM2IiBzdHlsZT0ic3Ryb2tlOiMwMEJGRkY7c3Ryb2tlLXdpZHRoOjEuMDsiLz48bGluZSBzdHlsZT0ic3Ryb2tlOiMwMEJGRkY7c3Ryb2tlLXdpZHRoOjEuMDsiIHgxPSI0MjcuNSIgeDI9IjQyNy41IiB5MT0iMTI2MS4xMjExIiB5Mj0iMTI3MS4xMjExIi8+PGxpbmUgc3R5bGU9InN0cm9rZTojMDBCRkZGO3N0cm9rZS13aWR0aDoxLjA7IiB4MT0iNDI3LjUiIHgyPSI1NjIuNSIgeTE9IjEyNzEuMTIxMSIgeTI9IjEyNzEuMTIxMSIvPjxwb2x5Z29uIGZpbGw9IiMwMEJGRkYiIHBvaW50cz0iNTU4LjUsMTE1NC44OTA2LDU2Mi41LDExNDQuODkwNiw1NjYuNSwxMTU0Ljg5MDYsNTYyLjUsMTE1MC44OTA2IiBzdHlsZT0ic3Ryb2tlOiMwMEJGRkY7c3Ryb2tlLXdpZHRoOjEuMDsiLz48bGluZSBzdHlsZT0ic3Ryb2tlOiMwMEJGRkY7c3Ryb2tlLXdpZHRoOjEuMDsiIHgxPSI1NjIuNSIgeDI9IjU2Mi41IiB5MT0iMTAyMC41MzUyIiB5Mj0iMTI3MS4xMjExIi8+PGxpbmUgc3R5bGU9InN0cm9rZTojMDBCRkZGO3N0cm9rZS13aWR0aDoxLjA7IiB4MT0iNTYyLjUiIHgyPSI0OTAuNSIgeTE9IjEwMjAuNTM1MiIgeTI9IjEwMjAuNTM1MiIvPjxwb2x5Z29uIGZpbGw9IiMwMEJGRkYiIHBvaW50cz0iNTAwLjUsMTAxNi41MzUyLDQ5MC41LDEwMjAuNTM1Miw1MDAuNSwxMDI0LjUzNTIsNDk2LjUsMTAyMC41MzUyIiBzdHlsZT0ic3Ryb2tlOiMwMEJGRkY7c3Ryb2tlLXdpZHRoOjEuMDsiLz48bGluZSBzdHlsZT0ic3Ryb2tlOiMwMEJGRkY7c3Ryb2tlLXdpZHRoOjEuMDsiIHgxPSIzNjQuNSIgeDI9IjMwNC41IiB5MT0iMTAyMC41MzUyIiB5Mj0iMTAyMC41MzUyIi8+PHBvbHlnb24gZmlsbD0iIzAwQkZGRiIgcG9pbnRzPSIzMDAuNSwxMTQ5Ljg5MDYsMzA0LjUsMTE1OS44OTA2LDMwOC41LDExNDkuODkwNiwzMDQuNSwxMTUzLjg5MDYiIHN0eWxlPSJzdHJva2U6IzAwQkZGRjtzdHJva2Utd2lkdGg6MS4wOyIvPjxsaW5lIHN0eWxlPSJzdHJva2U6IzAwQkZGRjtzdHJva2Utd2lkdGg6MS4wOyIgeDE9IjMwNC41IiB4Mj0iMzA0LjUiIHkxPSIxMDIwLjUzNTIiIHkyPSIxMjkzLjEyMTEiLz48bGluZSBzdHlsZT0ic3Ryb2tlOiMwMEJGRkY7c3Ryb2tlLXdpZHRoOjEuMDsiIHgxPSIzMDQuNSIgeDI9IjU4OSIgeTE9IjEyOTMuMTIxMSIgeTI9IjEyOTMuMTIxMSIvPjxsaW5lIHN0eWxlPSJzdHJva2U6IzAwQkZGRjtzdHJva2Utd2lkdGg6MS4wOyIgeDE9IjU4OSIgeDI9IjU4OSIgeTE9IjI3My4zNzUiIHkyPSIxMjkzLjEyMTEiLz48bGluZSBzdHlsZT0ic3Ryb2tlOiMwMEJGRkY7c3Ryb2tlLXdpZHRoOjEuMDsiIHgxPSI1ODkiIHgyPSI0MzIuNzUiIHkxPSIyNzMuMzc1IiB5Mj0iMjczLjM3NSIvPjxwb2x5Z29uIGZpbGw9IiMwMEJGRkYiIHBvaW50cz0iNDQyLjc1LDI2OS4zNzUsNDMyLjc1LDI3My4zNzUsNDQyLjc1LDI3Ny4zNzUsNDM4Ljc1LDI3My4zNzUiIHN0eWxlPSJzdHJva2U6IzAwQkZGRjtzdHJva2Utd2lkdGg6MS4wOyIvPjxsaW5lIHN0eWxlPSJzdHJva2U6IzAwQkZGRjtzdHJva2Utd2lkdGg6MS4wOyIgeDE9IjQyNy41IiB4Mj0iNDI3LjUiIHkxPSI5ODguNTM1MiIgeTI9IjEwMDguNTM1MiIvPjxwb2x5Z29uIGZpbGw9IiMwMEJGRkYiIHBvaW50cz0iNDIzLjUsOTk4LjUzNTIsNDI3LjUsMTAwOC41MzUyLDQzMS41LDk5OC41MzUyLDQyNy41LDEwMDIuNTM1MiIgc3R5bGU9InN0cm9rZTojMDBCRkZGO3N0cm9rZS13aWR0aDoxLjA7Ii8+PGxpbmUgc3R5bGU9InN0cm9rZTojMDBCRkZGO3N0cm9rZS13aWR0aDoxLjA7IiB4MT0iMTg5Ljc1IiB4Mj0iMTU2IiB5MT0iOTMzLjY5MTQiIHkyPSI5MzMuNjkxNCIvPjxsaW5lIHN0eWxlPSJzdHJva2U6IzAwQkZGRjtzdHJva2Utd2lkdGg6MS4wOyIgeDE9IjE1NiIgeDI9IjE1NiIgeTE9IjkzMy42OTE0IiB5Mj0iOTU1LjY5MTQiLz48cG9seWdvbiBmaWxsPSIjMDBCRkZGIiBwb2ludHM9IjE1Miw5NDUuNjkxNCwxNTYsOTU1LjY5MTQsMTYwLDk0NS42OTE0LDE1Niw5NDkuNjkxNCIgc3R5bGU9InN0cm9rZTojMDBCRkZGO3N0cm9rZS13aWR0aDoxLjA7Ii8+PGxpbmUgc3R5bGU9InN0cm9rZTojMDBCRkZGO3N0cm9rZS13aWR0aDoxLjA7IiB4MT0iMzkzLjc1IiB4Mj0iNDI3LjUiIHkxPSI5MzMuNjkxNCIgeTI9IjkzMy42OTE0Ii8+PGxpbmUgc3R5bGU9InN0cm9rZTojMDBCRkZGO3N0cm9rZS13aWR0aDoxLjA7IiB4MT0iNDI3LjUiIHgyPSI0MjcuNSIgeTE9IjkzMy42OTE0IiB5Mj0iOTU1LjY5MTQiLz48cG9seWdvbiBmaWxsPSIjMDBCRkZGIiBwb2ludHM9IjQyMy41LDk0NS42OTE0LDQyNy41LDk1NS42OTE0LDQzMS41LDk0NS42OTE0LDQyNy41LDk0OS42OTE0IiBzdHlsZT0ic3Ryb2tlOiMwMEJGRkY7c3Ryb2tlLXdpZHRoOjEuMDsiLz48bGluZSBzdHlsZT0ic3Ryb2tlOiMwMEJGRkY7c3Ryb2tlLXdpZHRoOjEuMDsiIHgxPSIyOTEuNzUiIHgyPSIyOTEuNzUiIHkxPSI5MDEuNjkxNCIgeTI9IjkyMS42OTE0Ii8+PHBvbHlnb24gZmlsbD0iIzAwQkZGRiIgcG9pbnRzPSIyODcuNzUsOTExLjY5MTQsMjkxLjc1LDkyMS42OTE0LDI5NS43NSw5MTEuNjkxNCwyOTEuNzUsOTE1LjY5MTQiIHN0eWxlPSJzdHJva2U6IzAwQkZGRjtzdHJva2Utd2lkdGg6MS4wOyIvPjxsaW5lIHN0eWxlPSJzdHJva2U6IzAwQkZGRjtzdHJva2Utd2lkdGg6MS4wOyIgeDE9IjI5MS43NSIgeDI9IjI5MS43NSIgeTE9IjI4NS4zNzUiIHkyPSIzMTcuMjczNCIvPjxwb2x5Z29uIGZpbGw9IiMwMEJGRkYiIHBvaW50cz0iMjg3Ljc1LDMwNy4yNzM0LDI5MS43NSwzMTcuMjczNCwyOTUuNzUsMzA3LjI3MzQsMjkxLjc1LDMxMS4yNzM0IiBzdHlsZT0ic3Ryb2tlOiMwMEJGRkY7c3Ryb2tlLXdpZHRoOjEuMDsiLz48bGluZSBzdHlsZT0ic3Ryb2tlOiMwMEJGRkY7c3Ryb2tlLXdpZHRoOjEuMDsiIHgxPSIxNTAuNzUiIHgyPSIyNCIgeTE9IjI3My4zNzUiIHkyPSIyNzMuMzc1Ii8+PHBvbHlnb24gZmlsbD0iIzAwQkZGRiIgcG9pbnRzPSIyMCw3ODYuMDAzOSwyNCw3OTYuMDAzOSwyOCw3ODYuMDAzOSwyNCw3OTAuMDAzOSIgc3R5bGU9InN0cm9rZTojMDBCRkZGO3N0cm9rZS13aWR0aDoxLjA7Ii8+PGxpbmUgc3R5bGU9InN0cm9rZTojMDBCRkZGO3N0cm9rZS13aWR0aDoxLjA7IiB4MT0iMjQiIHgyPSIyNCIgeTE9IjI3My4zNzUiIHkyPSIxMzA1LjEyMTEiLz48bGluZSBzdHlsZT0ic3Ryb2tlOiMwMEJGRkY7c3Ryb2tlLXdpZHRoOjEuMDsiIHgxPSIyNCIgeDI9IjI5MS43NSIgeTE9IjEzMDUuMTIxMSIgeTI9IjEzMDUuMTIxMSIvPjxsaW5lIHN0eWxlPSJzdHJva2U6IzAwQkZGRjtzdHJva2Utd2lkdGg6MS4wOyIgeDE9IjI5MS43NSIgeDI9IjI5MS43NSIgeTE9IjEzMDUuMTIxMSIgeTI9IjEzMjUuMTIxMSIvPjxwb2x5Z29uIGZpbGw9IiMwMEJGRkYiIHBvaW50cz0iMjg3Ljc1LDEzMTUuMTIxMSwyOTEuNzUsMTMyNS4xMjExLDI5NS43NSwxMzE1LjEyMTEsMjkxLjc1LDEzMTkuMTIxMSIgc3R5bGU9InN0cm9rZTojMDBCRkZGO3N0cm9rZS13aWR0aDoxLjA7Ii8+PGxpbmUgc3R5bGU9InN0cm9rZTojMDBCRkZGO3N0cm9rZS13aWR0aDoxLjA7IiB4MT0iMjkxLjc1IiB4Mj0iMjkxLjc1IiB5MT0iMjQxLjM3NSIgeTI9IjI2MS4zNzUiLz48cG9seWdvbiBmaWxsPSIjMDBCRkZGIiBwb2ludHM9IjI4Ny43NSwyNTEuMzc1LDI5MS43NSwyNjEuMzc1LDI5NS43NSwyNTEuMzc1LDI5MS43NSwyNTUuMzc1IiBzdHlsZT0ic3Ryb2tlOiMwMEJGRkY7c3Ryb2tlLXdpZHRoOjEuMDsiLz48bGluZSBzdHlsZT0ic3Ryb2tlOiMwMEJGRkY7c3Ryb2tlLXdpZHRoOjEuMDsiIHgxPSIyOTEuNzUiIHgyPSIyOTEuNzUiIHkxPSIxMzU3Ljk2NDgiIHkyPSIxMzc3Ljk2NDgiLz48cG9seWdvbiBmaWxsPSIjMDBCRkZGIiBwb2ludHM9IjI4Ny43NSwxMzY3Ljk2NDgsMjkxLjc1LDEzNzcuOTY0OCwyOTUuNzUsMTM2Ny45NjQ4LDI5MS43NSwxMzcxLjk2NDgiIHN0eWxlPSJzdHJva2U6IzAwQkZGRjtzdHJva2Utd2lkdGg6MS4wOyIvPjwhLS1TUkM9W3ZMSDFSamltNEJwcDVOa2hTLVc3ZWFEVzlxWEhlQ1lYa0hPZVE3NGI0UFA5T1JjZ2hIUnpVdlNZdktYb0tXSXo1WjBXVzNDU3BTd0U1R3hNVFBocTRLQVpaSnpQTHFFYnN1MGdOOTJ6Qld5ci1Ud1BVenp3V2JEWlVPdmxZVm1mR0ctOHRWRFhzQk56ZEExQmpaeWkzXzFCMFVuTVFieml0VjFxSHMxRjFrYlEzVTNIRXF4ZC1yT3FyNi1iMGNqWVRWbFBNUlF3akp5SG5mRmw1R2ROZWJZcnQ0M21GUEs4cFhpaTVrSlF3dFI1YlVpcnlZbFM5OHBkSldvVzBNRGI5a3lxM1ZEdGwyQl92ZXRxZmE4ZllSRDVzQW9TUXNUTV9mbmRtNkY3bXpxRHMwMlIwU0VEbjJBXzN1LVVKZmVDMURIS1lYZDZKZXZsRi1MOUczSUVnc1lBSURXUWFtWmlMbUNNSVRiTWkxYTlVQlExMHJZdGQ0Z2lTOEZrT2FPcVR4cmozTEpQS1FVdkFVUDBCRENRa1ZWN2xOS3U3V0xYMThkQkVxY0NTQ21pcXh1WXotSVdKRW92MFplWkp2SlFIaGxQbzNXeklobHNkYThxMTZMRlg2eFFSWUpieDJLX0cydDlKVm9LaUNDcDl4NlNINFI3TEtXS2dxdmlkbncta0dLcVhOcVRLdmdSSzNEMnNTSFdOYW9ETTVwRFBJbHBmVUx2UkpMRGRjU210YzdLZGgzT1l6cUt6Yi1CaVFaUExJeU0tdHd4NWlpaV9relVCRl91eXJlaWVseHRMYm5qeDdzYksyejBKNEREb0pxOTJweEFPdW5FOGY2RlNuNl9oaHh4MG0wMF0tLT48L2c+PC9zdmc+;" parent="XMvLstlO6ftKEk1OnWNJ-1" vertex="1">
            <mxGeometry x="50" y="-630" width="690.51" height="1620" as="geometry" />
          </mxCell>
        </UserObject>
      </root>
    </mxGraphModel>
  </diagram>
</mxfile>
